DaiBannaSIL-Bold.ufo
<glyph name="exclam" format="2">
  <advance width="503"/>
  <unicode hex="0021"/>
  <outline>
    <contour>
      <point x="184" y="360" type="line" smooth="yes"/>
      <point x="189" y="327"/>
      <point x="283" y="326"/>
      <point x="289" y="360" type="curve" smooth="yes"/>
      <point x="353" y="757" type="line" smooth="yes"/>
      <point x="356" y="778"/>
      <point x="360" y="882"/>
      <point x="360" y="918" type="curve" smooth="yes"/>
      <point x="360" y="949"/>
      <point x="346" y="968"/>
      <point x="236" y="968" type="curve" smooth="yes"/>
      <point x="130" y="968"/>
      <point x="112" y="956"/>
      <point x="112" y="923" type="curve" smooth="yes" name="hr01"/>
      <point x="112" y="887"/>
      <point x="114" y="794"/>
      <point x="119" y="757" type="curve" smooth="yes"/>
    </contour>
    <contour>
      <point x="236" y="-16" type="curve" smooth="yes"/>
      <point x="301" y="-16"/>
      <point x="352" y="44"/>
      <point x="352" y="130" type="curve" smooth="yes"/>
      <point x="352" y="215"/>
      <point x="303" y="273"/>
      <point x="236" y="273" type="curve" smooth="yes"/>
      <point x="168" y="273"/>
      <point x="120" y="220"/>
      <point x="120" y="130" type="curve" smooth="yes"/>
      <point x="120" y="41"/>
      <point x="174" y="-16"/>
    </contour>
  </outline>
</glyph>
<glyph name="quotedbl" format="2">
  <advance width="933"/>
  <unicode hex="0022"/>
  <outline>
    <contour>
      <point x="674" y="765" type="line" smooth="yes"/>
      <point x="678" y="754"/>
      <point x="716" y="752"/>
      <point x="719" y="765" type="curve" smooth="yes"/>
      <point x="795" y="1093" type="line" smooth="yes"/>
      <point x="819" y="1196"/>
      <point x="827" y="1283"/>
      <point x="827" y="1310" type="curve" smooth="yes"/>
      <point x="827" y="1408"/>
      <point x="769" y="1457"/>
      <point x="697" y="1457" type="curve" smooth="yes"/>
      <point x="628" y="1457"/>
      <point x="574" y="1421"/>
      <point x="574" y="1298" type="curve" smooth="yes"/>
      <point x="574" y="1263"/>
      <point x="578" y="1183"/>
      <point x="598" y="1095" type="curve" smooth="yes"/>
    </contour>
    <contour>
      <point x="232" y="765" type="line" smooth="yes"/>
      <point x="235" y="754"/>
      <point x="273" y="752"/>
      <point x="276" y="765" type="curve" smooth="yes"/>
      <point x="352" y="1093" type="line" smooth="yes"/>
      <point x="376" y="1196"/>
      <point x="384" y="1283"/>
      <point x="384" y="1310" type="curve" smooth="yes"/>
      <point x="384" y="1408"/>
      <point x="326" y="1457"/>
      <point x="255" y="1457" type="curve" smooth="yes"/>
      <point x="185" y="1457"/>
      <point x="131" y="1421"/>
      <point x="131" y="1298" type="curve" smooth="yes"/>
      <point x="131" y="1263"/>
      <point x="135" y="1183"/>
      <point x="155" y="1095" type="curve" smooth="yes"/>
    </contour>
  </outline>
</glyph>
<glyph name="numbersign" format="2">
  <advance width="976"/>
  <unicode hex="0023"/>
  <outline>
    <contour>
      <point x="971" y="852"/>
      <point x="977" y="879" type="curve"/>
      <point x="954" y="902" type="line"/>
      <point x="206" y="902" type="line"/>
      <point x="196" y="877"/>
      <point x="164" y="808"/>
      <point x="159" y="782" type="curve"/>
      <point x="182" y="759" type="line"/>
      <point x="930" y="759" type="line"/>
      <point x="939" y="780"/>
    </contour>
    <contour>
      <point x="598" y="156" type="curve"/>
      <point x="886" y="1168" type="line"/>
      <point x="862" y="1188" type="line"/>
      <point x="833" y="1177"/>
      <point x="769" y="1170"/>
      <point x="742" y="1150" type="curve"/>
      <point x="452" y="135" type="line"/>
      <point x="476" y="116" type="line"/>
      <point x="508" y="127"/>
      <point x="575" y="139"/>
    </contour>
    <contour>
      <point x="302" y="156" type="curve"/>
      <point x="593" y="1168" type="line"/>
      <point x="566" y="1188" type="line"/>
      <point x="540" y="1177"/>
      <point x="475" y="1170"/>
      <point x="448" y="1150" type="curve"/>
      <point x="159" y="135" type="line"/>
      <point x="183" y="116" type="line"/>
      <point x="215" y="127"/>
      <point x="280" y="139"/>
    </contour>
    <contour>
      <point x="871" y="512"/>
      <point x="876" y="536" type="curve"/>
      <point x="856" y="561" type="line"/>
      <point x="107" y="561" type="line"/>
      <point x="96" y="536"/>
      <point x="67" y="465"/>
      <point x="61" y="441" type="curve"/>
      <point x="81" y="418" type="line"/>
      <point x="832" y="418" type="line"/>
      <point x="841" y="439"/>
    </contour>
  </outline>
</glyph>
<glyph name="dollar" format="2">
  <advance width="998"/>
  <unicode hex="0024"/>
  <outline>
    <contour>
      <point x="498" y="-171" type="curve" smooth="yes"/>
      <point x="534" y="-171"/>
      <point x="579" y="-169"/>
      <point x="579" y="-150" type="curve" smooth="yes"/>
      <point x="579" y="-112"/>
      <point x="579" y="-65"/>
      <point x="578" y="-12" type="curve"/>
      <point x="817" y="19"/>
      <point x="948" y="167"/>
      <point x="948" y="397" type="curve" smooth="yes"/>
      <point x="948" y="646"/>
      <point x="751" y="770"/>
      <point x="570" y="901" type="curve" name="hr03"/>
      <point x="572" y="1068"/>
      <point x="576" y="1272"/>
      <point x="578" y="1427" type="curve"/>
      <point x="664" y="1376"/>
      <point x="683" y="1222"/>
      <point x="696" y="1205" type="curve" smooth="yes"/>
      <point x="716" y="1172"/>
      <point x="745" y="1164"/>
      <point x="860" y="1245" type="curve" smooth="yes"/>
      <point x="912" y="1281"/>
      <point x="919" y="1300"/>
      <point x="903" y="1332" type="curve" smooth="yes"/>
      <point x="862" y="1415"/>
      <point x="720" y="1475"/>
      <point x="578" y="1493" type="curve"/>
      <point x="578" y="1533"/>
      <point x="579" y="1568"/>
      <point x="579" y="1595" type="curve" smooth="yes"/>
      <point x="579" y="1614"/>
      <point x="535" y="1615"/>
      <point x="498" y="1615" type="curve" smooth="yes"/>
      <point x="460" y="1615"/>
      <point x="417" y="1614"/>
      <point x="417" y="1595" type="curve" smooth="yes" name="hr02"/>
      <point x="417" y="1567"/>
      <point x="418" y="1532"/>
      <point x="418" y="1491" type="curve"/>
      <point x="219" y="1459"/>
      <point x="90" y="1305"/>
      <point x="90" y="1138" type="curve" smooth="yes"/>
      <point x="90" y="891"/>
      <point x="249" y="793"/>
      <point x="426" y="656" type="curve"/>
      <point x="425" y="509"/>
      <point x="422" y="253"/>
      <point x="419" y="57" type="curve" name="hr01"/>
      <point x="338" y="112"/>
      <point x="340" y="265"/>
      <point x="321" y="305" type="curve" smooth="yes"/>
      <point x="316" y="316"/>
      <point x="274" y="321"/>
      <point x="167" y="263" type="curve" smooth="yes"/>
      <point x="93" y="224"/>
      <point x="76" y="197"/>
      <point x="94" y="165" type="curve" smooth="yes"/>
      <point x="128" y="99"/>
      <point x="252" y="7"/>
      <point x="418" y="-13" type="curve"/>
      <point x="417" y="-65"/>
      <point x="417" y="-112"/>
      <point x="417" y="-150" type="curve" smooth="yes"/>
      <point x="417" y="-169"/>
      <point x="461" y="-171"/>
    </contour>
    <contour>
      <point x="577" y="50" type="curve" name="hr04"/>
      <point x="575" y="216"/>
      <point x="572" y="374"/>
      <point x="570" y="547" type="curve"/>
      <point x="722" y="431"/>
      <point x="781" y="379"/>
      <point x="781" y="273" type="curve" smooth="yes"/>
      <point x="781" y="188"/>
      <point x="703" y="85"/>
    </contour>
    <contour>
      <point x="425" y="1008" type="curve"/>
      <point x="288" y="1109"/>
      <point x="254" y="1147"/>
      <point x="254" y="1254" type="curve" smooth="yes"/>
      <point x="254" y="1342"/>
      <point x="333" y="1402"/>
      <point x="418" y="1429" type="curve"/>
      <point x="420" y="1305"/>
      <point x="423" y="1152"/>
    </contour>
  </outline>
</glyph>
<glyph name="percent" format="2">
  <advance width="1482"/>
  <unicode hex="0025"/>
  <outline>
    <contour>
      <point x="379" y="-17" type="curve" smooth="yes"/>
      <point x="454" y="-17"/>
      <point x="464" y="-15"/>
      <point x="473" y="3" type="curve" smooth="yes"/>
      <point x="1196" y="1478" type="line" smooth="yes"/>
      <point x="1205" y="1496"/>
      <point x="1187" y="1498"/>
      <point x="1119" y="1498" type="curve" smooth="yes"/>
      <point x="1055" y="1498"/>
      <point x="1037" y="1495"/>
      <point x="1029" y="1478" type="curve" smooth="yes"/>
      <point x="301" y="3" type="line" smooth="yes"/>
      <point x="293" y="-14"/>
      <point x="301" y="-17"/>
    </contour>
    <contour>
      <point x="1070" y="-17" type="curve" smooth="yes"/>
      <point x="1264" y="-17"/>
      <point x="1382" y="160"/>
      <point x="1382" y="325" type="curve" smooth="yes"/>
      <point x="1382" y="479"/>
      <point x="1277" y="668"/>
      <point x="1070" y="668" type="curve" smooth="yes"/>
      <point x="868" y="668"/>
      <point x="758" y="473"/>
      <point x="758" y="325" type="curve" smooth="yes"/>
      <point x="758" y="168"/>
      <point x="873" y="-17"/>
    </contour>
    <contour>
      <point x="1070" y="40" type="curve" smooth="yes"/>
      <point x="999" y="40"/>
      <point x="989" y="164"/>
      <point x="989" y="325" type="curve" smooth="yes"/>
      <point x="989" y="481"/>
      <point x="1001" y="611"/>
      <point x="1070" y="611" type="curve" smooth="yes"/>
      <point x="1156" y="611"/>
      <point x="1153" y="481"/>
      <point x="1153" y="325" type="curve" smooth="yes"/>
      <point x="1153" y="170"/>
      <point x="1155" y="40"/>
    </contour>
    <contour>
      <point x="412" y="813" type="curve" smooth="yes"/>
      <point x="606" y="813"/>
      <point x="724" y="990"/>
      <point x="724" y="1155" type="curve" smooth="yes"/>
      <point x="724" y="1309"/>
      <point x="619" y="1498"/>
      <point x="412" y="1498" type="curve" smooth="yes"/>
      <point x="210" y="1498"/>
      <point x="100" y="1303"/>
      <point x="100" y="1155" type="curve" smooth="yes"/>
      <point x="100" y="998"/>
      <point x="215" y="813"/>
    </contour>
    <contour>
      <point x="412" y="870" type="curve" smooth="yes"/>
      <point x="341" y="870"/>
      <point x="331" y="994"/>
      <point x="331" y="1155" type="curve" smooth="yes"/>
      <point x="331" y="1311"/>
      <point x="343" y="1441"/>
      <point x="412" y="1441" type="curve" smooth="yes"/>
      <point x="498" y="1441"/>
      <point x="495" y="1311"/>
      <point x="495" y="1155" type="curve" smooth="yes"/>
      <point x="495" y="1000"/>
      <point x="497" y="870"/>
    </contour>
  </outline>
</glyph>
<glyph name="ampersand" format="2">
  <advance width="1267"/>
  <unicode hex="0026"/>
  <outline>
    <contour>
      <point x="462" y="-17" type="curve" smooth="yes"/>
      <point x="585" y="-17"/>
      <point x="696" y="42"/>
      <point x="791" y="135" type="curve"/>
      <point x="848" y="78"/>
      <point x="903" y="28"/>
      <point x="959" y="-15" type="curve" smooth="yes" name="hr01"/>
      <point x="976" y="-28"/>
      <point x="1080" y="-3"/>
      <point x="1138" y="52" type="curve" smooth="yes"/>
      <point x="1211" y="121"/>
      <point x="1213" y="145"/>
      <point x="1200" y="152" type="curve" smooth="yes"/>
      <point x="1094" y="204"/>
      <point x="1006" y="257"/>
      <point x="932" y="308" type="curve"/>
      <point x="1038" y="471"/>
      <point x="1113" y="665"/>
      <point x="1150" y="824" type="curve" smooth="yes"/>
      <point x="1152" y="834"/>
      <point x="1145" y="850"/>
      <point x="1014" y="895" type="curve" smooth="yes"/>
      <point x="891" y="937"/>
      <point x="881" y="930"/>
      <point x="886" y="910" type="curve" smooth="yes"/>
      <point x="915" y="807"/>
      <point x="902" y="573"/>
      <point x="831" y="390" type="curve"/>
      <point x="683" y="519"/>
      <point x="599" y="655"/>
      <point x="550" y="783" type="curve"/>
      <point x="708" y="943"/>
      <point x="907" y="1057"/>
      <point x="907" y="1227" type="curve" smooth="yes"/>
      <point x="907" y="1400"/>
      <point x="776" y="1498"/>
      <point x="596" y="1498" type="curve" smooth="yes"/>
      <point x="445" y="1498"/>
      <point x="250" y="1384"/>
      <point x="250" y="1122" type="curve" smooth="yes" name="hr02"/>
      <point x="250" y="1019"/>
      <point x="285" y="897"/>
      <point x="342" y="770" type="curve"/>
      <point x="205" y="659"/>
      <point x="76" y="529"/>
      <point x="76" y="301" type="curve" smooth="yes"/>
      <point x="76" y="48"/>
      <point x="260" y="-17"/>
    </contour>
    <contour>
      <point x="566" y="146" type="curve" smooth="yes" name="hr04"/>
      <point x="429" y="146"/>
      <point x="362" y="229"/>
      <point x="362" y="373" type="curve" smooth="yes" name="hr03"/>
      <point x="362" y="471"/>
      <point x="384" y="552"/>
      <point x="420" y="620" type="curve"/>
      <point x="503" y="477"/>
      <point x="608" y="334"/>
      <point x="720" y="210" type="curve"/>
      <point x="677" y="170"/>
      <point x="627" y="146"/>
    </contour>
    <contour>
      <point x="512" y="908" type="curve"/>
      <point x="494" y="991"/>
      <point x="489" y="1068"/>
      <point x="489" y="1137" type="curve" smooth="yes"/>
      <point x="489" y="1338"/>
      <point x="505" y="1442"/>
      <point x="596" y="1442" type="curve" smooth="yes"/>
      <point x="662" y="1442"/>
      <point x="665" y="1330"/>
      <point x="665" y="1208" type="curve" smooth="yes"/>
      <point x="665" y="1075"/>
      <point x="600" y="986"/>
    </contour>
  </outline>
</glyph>
<glyph name="quotesingle" format="2">
  <advance width="412"/>
  <unicode hex="0027"/>
  <outline>
    <contour>
      <point x="182" y="765" type="line" smooth="yes"/>
      <point x="185" y="754"/>
      <point x="223" y="752"/>
      <point x="226" y="765" type="curve" smooth="yes"/>
      <point x="302" y="1093" type="line" smooth="yes"/>
      <point x="326" y="1196"/>
      <point x="334" y="1283"/>
      <point x="334" y="1310" type="curve" smooth="yes"/>
      <point x="334" y="1408"/>
      <point x="276" y="1457"/>
      <point x="205" y="1457" type="curve" smooth="yes"/>
      <point x="135" y="1457"/>
      <point x="81" y="1421"/>
      <point x="81" y="1298" type="curve" smooth="yes"/>
      <point x="81" y="1263"/>
      <point x="85" y="1183"/>
      <point x="105" y="1095" type="curve" smooth="yes"/>
    </contour>
  </outline>
</glyph>
<glyph name="parenleft" format="2">
  <advance width="733"/>
  <unicode hex="0028"/>
  <outline>
    <contour>
      <point x="834" y="-609" type="curve" smooth="yes"/>
      <point x="850" y="-597"/>
      <point x="825" y="-572"/>
      <point x="759" y="-541" type="curve" smooth="yes"/>
      <point x="636" y="-482"/>
      <point x="421" y="-52"/>
      <point x="421" y="483" type="curve" smooth="yes"/>
      <point x="421" y="1054"/>
      <point x="616" y="1440"/>
      <point x="759" y="1527" type="curve" smooth="yes"/>
      <point x="827" y="1569"/>
      <point x="843" y="1577"/>
      <point x="837" y="1589" type="curve" smooth="yes"/>
      <point x="825" y="1611"/>
      <point x="757" y="1610"/>
      <point x="707" y="1583" type="curve" smooth="yes"/>
      <point x="488" y="1463"/>
      <point x="165" y="1132"/>
      <point x="161" y="473" type="curve" smooth="yes"/>
      <point x="157" y="-168"/>
      <point x="459" y="-488"/>
      <point x="707" y="-595" type="curve" smooth="yes"/>
      <point x="765" y="-620"/>
      <point x="809" y="-627"/>
    </contour>
  </outline>
</glyph>
<glyph name="parenright" format="2">
  <advance width="733"/>
  <unicode hex="0029"/>
  <outline>
    <contour>
      <point x="-105" y="-616" type="curve" smooth="yes"/>
      <point x="-93" y="-638"/>
      <point x="-25" y="-637"/>
      <point x="25" y="-610" type="curve" smooth="yes"/>
      <point x="243" y="-490"/>
      <point x="568" y="-159"/>
      <point x="572" y="500" type="curve" smooth="yes"/>
      <point x="575" y="1141"/>
      <point x="273" y="1461"/>
      <point x="25" y="1568" type="curve" smooth="yes"/>
      <point x="-33" y="1593"/>
      <point x="-77" y="1600"/>
      <point x="-103" y="1582" type="curve" smooth="yes"/>
      <point x="-119" y="1570"/>
      <point x="-93" y="1545"/>
      <point x="-28" y="1514" type="curve" smooth="yes"/>
      <point x="95" y="1455"/>
      <point x="312" y="1027"/>
      <point x="312" y="491" type="curve" smooth="yes"/>
      <point x="312" y="-80"/>
      <point x="115" y="-467"/>
      <point x="-28" y="-554" type="curve" smooth="yes"/>
      <point x="-95" y="-596"/>
      <point x="-112" y="-604"/>
    </contour>
  </outline>
</glyph>
<glyph name="asterisk" format="2">
  <advance width="1025"/>
  <unicode hex="002A"/>
  <outline>
    <contour>
      <point x="634" y="723" type="curve" smooth="yes"/>
      <point x="653" y="698"/>
      <point x="683" y="687"/>
      <point x="774" y="754" type="curve" smooth="yes"/>
      <point x="865" y="820"/>
      <point x="864" y="852"/>
      <point x="846" y="877" type="curve" smooth="yes"/>
      <point x="772" y="979"/>
      <point x="632" y="998"/>
      <point x="560" y="1104" type="curve"/>
      <point x="680" y="1151"/>
      <point x="806" y="1077"/>
      <point x="928" y="1116" type="curve" smooth="yes"/>
      <point x="957" y="1126"/>
      <point x="975" y="1153"/>
      <point x="940" y="1261" type="curve" smooth="yes"/>
      <point x="906" y="1366"/>
      <point x="876" y="1375"/>
      <point x="847" y="1365" type="curve" smooth="yes"/>
      <point x="726" y="1326"/>
      <point x="666" y="1199"/>
      <point x="542" y="1162" type="curve"/>
      <point x="535" y="1292"/>
      <point x="645" y="1388"/>
      <point x="645" y="1516" type="curve" smooth="yes"/>
      <point x="645" y="1547"/>
      <point x="624" y="1572"/>
      <point x="511" y="1572" type="curve" smooth="yes"/>
      <point x="400" y="1572"/>
      <point x="383" y="1547"/>
      <point x="383" y="1516" type="curve" smooth="yes"/>
      <point x="383" y="1389"/>
      <point x="484" y="1293"/>
      <point x="482" y="1164" type="curve"/>
      <point x="356" y="1197"/>
      <point x="299" y="1331"/>
      <point x="177" y="1370" type="curve" smooth="yes"/>
      <point x="147" y="1380"/>
      <point x="117" y="1369"/>
      <point x="81" y="1260" type="curve" smooth="yes"/>
      <point x="47" y="1155"/>
      <point x="66" y="1131"/>
      <point x="96" y="1121" type="curve" smooth="yes"/>
      <point x="217" y="1082"/>
      <point x="339" y="1149"/>
      <point x="461" y="1106" type="curve"/>
      <point x="391" y="998"/>
      <point x="246" y="985"/>
      <point x="171" y="880" type="curve" smooth="yes"/>
      <point x="152" y="855"/>
      <point x="155" y="822"/>
      <point x="247" y="755" type="curve" smooth="yes"/>
      <point x="336" y="689"/>
      <point x="364" y="701"/>
      <point x="382" y="726" type="curve" smooth="yes"/>
      <point x="458" y="829"/>
      <point x="431" y="967"/>
      <point x="510" y="1069" type="curve"/>
      <point x="591" y="969"/>
      <point x="559" y="827"/>
    </contour>
  </outline>
</glyph>
<glyph name="plus" format="2">
  <advance width="806"/>
  <unicode hex="002B"/>
  <outline>
    <contour>
      <point x="762" y="559" type="curve"/>
      <point x="728" y="592" type="line"/>
      <point x="94" y="592" type="line"/>
      <point x="83" y="568"/>
      <point x="50" y="502"/>
      <point x="44" y="475" type="curve"/>
      <point x="78" y="442" type="line"/>
      <point x="711" y="442" type="line"/>
      <point x="720" y="462"/>
      <point x="754" y="532"/>
    </contour>
    <contour>
      <point x="480" y="200" type="curve"/>
      <point x="480" y="842" type="line"/>
      <point x="447" y="874" type="line"/>
      <point x="420" y="867"/>
      <point x="354" y="843"/>
      <point x="331" y="836" type="curve"/>
      <point x="331" y="192" type="line"/>
      <point x="364" y="160" type="line"/>
      <point x="392" y="166"/>
      <point x="456" y="188"/>
    </contour>
  </outline>
</glyph>
<glyph name="comma" format="2">
  <advance width="457"/>
  <unicode hex="002C"/>
  <outline>
    <contour>
      <point x="127" y="-397" type="curve" smooth="yes"/>
      <point x="134" y="-423"/>
      <point x="366" y="-293"/>
      <point x="366" y="67" type="curve" smooth="yes"/>
      <point x="366" y="199"/>
      <point x="313" y="310"/>
      <point x="216" y="310" type="curve" smooth="yes"/>
      <point x="149" y="310"/>
      <point x="96" y="249"/>
      <point x="96" y="144" type="curve" smooth="yes" name="hr01"/>
      <point x="96" y="36"/>
      <point x="162" y="-17"/>
      <point x="218" y="-17" type="curve" smooth="yes"/>
      <point x="249" y="-17"/>
      <point x="254" y="10"/>
      <point x="264" y="10" type="curve" smooth="yes"/>
      <point x="272" y="10"/>
      <point x="276" y="-23"/>
      <point x="276" y="-60" type="curve" smooth="yes"/>
      <point x="276" y="-224"/>
      <point x="121" y="-378"/>
    </contour>
  </outline>
</glyph>
<glyph name="hyphen" format="2">
  <advance width="756"/>
  <unicode hex="002D"/>
  <outline>
    <contour>
      <point x="136" y="465" type="curve" smooth="yes"/>
      <point x="620" y="465" type="line" smooth="yes"/>
      <point x="634" y="465"/>
      <point x="638" y="490"/>
      <point x="638" y="551" type="curve" smooth="yes"/>
      <point x="638" y="607"/>
      <point x="633" y="637"/>
      <point x="618" y="637" type="curve" smooth="yes"/>
      <point x="139" y="637" type="line" smooth="yes"/>
      <point x="123" y="637"/>
      <point x="118" y="607"/>
      <point x="118" y="551" type="curve" smooth="yes"/>
      <point x="118" y="490"/>
      <point x="121" y="465"/>
    </contour>
  </outline>
</glyph>
<glyph name="period" format="2">
  <advance width="430"/>
  <unicode hex="002E"/>
  <outline>
    <contour>
      <point x="216" y="-17" type="curve" smooth="yes"/>
      <point x="280" y="-17"/>
      <point x="334" y="48"/>
      <point x="334" y="148" type="curve" smooth="yes"/>
      <point x="334" y="255"/>
      <point x="281" y="308"/>
      <point x="216" y="308" type="curve" smooth="yes"/>
      <point x="155" y="308"/>
      <point x="96" y="253"/>
      <point x="96" y="148" type="curve" smooth="yes"/>
      <point x="96" y="45"/>
      <point x="155" y="-17"/>
    </contour>
  </outline>
</glyph>
<glyph name="slash" format="2">
  <advance width="904"/>
  <unicode hex="002F"/>
  <outline>
    <contour>
      <point x="238" y="-250" type="curve"/>
      <point x="882" y="1440" type="line"/>
      <point x="836" y="1472" type="line"/>
      <point x="801" y="1462"/>
      <point x="701" y="1436"/>
      <point x="668" y="1415" type="curve"/>
      <point x="23" y="-274" type="line"/>
      <point x="68" y="-308" type="line"/>
      <point x="99" y="-299"/>
      <point x="215" y="-266"/>
    </contour>
  </outline>
</glyph>
<glyph name="zero" format="2">
  <advance width="956"/>
  <unicode hex="0030"/>
  <outline>
    <contour>
      <point x="478" y="-17" type="curve" smooth="yes"/>
      <point x="798" y="-17"/>
      <point x="900" y="393"/>
      <point x="900" y="740" type="curve" smooth="yes"/>
      <point x="900" y="1127"/>
      <point x="787" y="1498"/>
      <point x="478" y="1498" type="curve" smooth="yes"/>
      <point x="201" y="1498"/>
      <point x="56" y="1124"/>
      <point x="56" y="740" type="curve" smooth="yes"/>
      <point x="56" y="391"/>
      <point x="186" y="-17"/>
    </contour>
    <contour>
      <point x="478" y="39" type="curve" smooth="yes"/>
      <point x="353" y="39"/>
      <point x="343" y="320"/>
      <point x="343" y="740" type="curve" smooth="yes"/>
      <point x="343" y="1160"/>
      <point x="357" y="1442"/>
      <point x="478" y="1442" type="curve" smooth="yes"/>
      <point x="610" y="1442"/>
      <point x="615" y="1160"/>
      <point x="615" y="740" type="curve" smooth="yes" name="hr01"/>
      <point x="615" y="331"/>
      <point x="599" y="39"/>
    </contour>
  </outline>
</glyph>
<glyph name="one" format="2">
  <advance width="956"/>
  <unicode hex="0031"/>
  <outline>
    <contour>
      <point x="588" y="-17" type="curve" smooth="yes"/>
      <point x="640" y="-17"/>
      <point x="712" y="-17"/>
      <point x="712" y="24" type="curve" smooth="yes"/>
      <point x="712" y="76"/>
      <point x="690" y="504"/>
      <point x="690" y="768" type="curve" smooth="yes" name="hr03"/>
      <point x="690" y="1040"/>
      <point x="712" y="1422"/>
      <point x="712" y="1447" type="curve" smooth="yes"/>
      <point x="712" y="1488"/>
      <point x="638" y="1488"/>
      <point x="588" y="1488" type="curve" smooth="yes"/>
      <point x="538" y="1488"/>
      <point x="468" y="1488"/>
      <point x="464" y="1447" type="curve" smooth="yes" name="hr02"/>
      <point x="460" y="1400"/>
      <point x="220" y="1065"/>
      <point x="169" y="1018" type="curve" smooth="yes"/>
      <point x="155" y="1005"/>
      <point x="169" y="982"/>
      <point x="241" y="929" type="curve" smooth="yes"/>
      <point x="288" y="894"/>
      <point x="324" y="891"/>
      <point x="330" y="912" type="curve" smooth="yes"/>
      <point x="357" y="1024"/>
      <point x="415" y="1173"/>
      <point x="471" y="1285" type="curve"/>
      <point x="478" y="1142"/>
      <point x="486" y="939"/>
      <point x="486" y="768" type="curve" smooth="yes" name="hr01"/>
      <point x="486" y="504"/>
      <point x="464" y="76"/>
      <point x="464" y="24" type="curve" smooth="yes"/>
      <point x="464" y="-17"/>
      <point x="536" y="-17"/>
    </contour>
  </outline>
</glyph>
<glyph name="two" format="2">
  <advance width="956"/>
  <unicode hex="0032"/>
  <outline>
    <contour>
      <point x="135" y="-16" type="curve" smooth="yes"/>
      <point x="550" y="-16" type="line" smooth="yes"/>
      <point x="691" y="-16"/>
      <point x="775" y="-16"/>
      <point x="854" y="0" type="curve" smooth="yes"/>
      <point x="866" y="2"/>
      <point x="882" y="15"/>
      <point x="869" y="93" type="curve" smooth="yes"/>
      <point x="857" y="167"/>
      <point x="838" y="188"/>
      <point x="829" y="185" type="curve" smooth="yes"/>
      <point x="774" y="164"/>
      <point x="729" y="124"/>
      <point x="580" y="124" type="curve" smooth="yes"/>
      <point x="423" y="124" type="line" smooth="yes"/>
      <point x="399" y="124"/>
      <point x="362" y="153"/>
      <point x="362" y="229" type="curve" smooth="yes"/>
      <point x="362" y="419"/>
      <point x="402" y="513"/>
      <point x="495" y="622" type="curve" smooth="yes"/>
      <point x="822" y="995"/>
      <point x="873" y="1041"/>
      <point x="873" y="1184" type="curve" smooth="yes"/>
      <point x="873" y="1418"/>
      <point x="723" y="1498"/>
      <point x="499" y="1498" type="curve" smooth="yes"/>
      <point x="296" y="1498"/>
      <point x="174" y="1430"/>
      <point x="106" y="1342" type="curve" smooth="yes"/>
      <point x="95" y="1328"/>
      <point x="89" y="1294"/>
      <point x="166" y="1237" type="curve" smooth="yes"/>
      <point x="245" y="1177"/>
      <point x="308" y="1186"/>
      <point x="313" y="1211" type="curve" smooth="yes"/>
      <point x="343" y="1365"/>
      <point x="355" y="1443"/>
      <point x="469" y="1443" type="curve" smooth="yes"/>
      <point x="567" y="1443"/>
      <point x="590" y="1330"/>
      <point x="590" y="1172" type="curve" smooth="yes"/>
      <point x="590" y="990"/>
      <point x="528" y="825"/>
      <point x="375" y="654" type="curve" smooth="yes"/>
      <point x="152" y="405"/>
      <point x="78" y="304"/>
      <point x="78" y="106" type="curve" smooth="yes"/>
      <point x="78" y="0"/>
      <point x="97" y="-16"/>
    </contour>
  </outline>
</glyph>
<glyph name="three" format="2">
  <advance width="956"/>
  <unicode hex="0033"/>
  <outline>
    <contour>
      <point x="456" y="-17" type="curve" smooth="yes"/>
      <point x="744" y="-17"/>
      <point x="890" y="197"/>
      <point x="890" y="448" type="curve" smooth="yes"/>
      <point x="890" y="677"/>
      <point x="773" y="825"/>
      <point x="625" y="857" type="curve"/>
      <point x="747" y="887"/>
      <point x="833" y="1016"/>
      <point x="833" y="1166" type="curve" smooth="yes"/>
      <point x="833" y="1347"/>
      <point x="717" y="1498"/>
      <point x="471" y="1498" type="curve" smooth="yes"/>
      <point x="337" y="1498"/>
      <point x="175" y="1429"/>
      <point x="126" y="1332" type="curve" smooth="yes"/>
      <point x="108" y="1298"/>
      <point x="114" y="1282"/>
      <point x="169" y="1243" type="curve" smooth="yes"/>
      <point x="286" y="1162"/>
      <point x="314" y="1172"/>
      <point x="335" y="1206" type="curve" smooth="yes"/>
      <point x="349" y="1223"/>
      <point x="313" y="1443"/>
      <point x="451" y="1443" type="curve" smooth="yes"/>
      <point x="548" y="1443"/>
      <point x="555" y="1300"/>
      <point x="555" y="1142" type="curve" smooth="yes" name="hr01"/>
      <point x="555" y="991"/>
      <point x="548" y="913"/>
      <point x="437" y="913" type="curve" smooth="yes"/>
      <point x="415" y="913"/>
      <point x="406" y="891"/>
      <point x="408" y="854" type="curve" smooth="yes"/>
      <point x="410" y="793"/>
      <point x="423" y="786"/>
      <point x="428" y="787" type="curve" smooth="yes"/>
      <point x="577" y="817"/>
      <point x="602" y="683"/>
      <point x="602" y="450" type="curve" smooth="yes"/>
      <point x="602" y="233"/>
      <point x="547" y="39"/>
      <point x="448" y="39" type="curve" smooth="yes"/>
      <point x="338" y="39"/>
      <point x="351" y="258"/>
      <point x="327" y="311" type="curve" smooth="yes"/>
      <point x="323" y="322"/>
      <point x="283" y="329"/>
      <point x="175" y="271" type="curve" smooth="yes"/>
      <point x="99" y="230"/>
      <point x="82" y="204"/>
      <point x="100" y="170" type="curve" smooth="yes"/>
      <point x="140" y="92"/>
      <point x="256" y="-17"/>
    </contour>
  </outline>
</glyph>
<glyph name="four" format="2">
  <advance width="956"/>
  <unicode hex="0034"/>
  <outline>
    <contour>
      <point x="688" y="-17" type="curve" smooth="yes"/>
      <point x="740" y="-17"/>
      <point x="803" y="-17"/>
      <point x="803" y="24" type="curve" smooth="yes"/>
      <point x="803" y="55"/>
      <point x="796" y="223"/>
      <point x="790" y="410" type="curve"/>
      <point x="831" y="412"/>
      <point x="866" y="416"/>
      <point x="893" y="421" type="curve" smooth="yes"/>
      <point x="905" y="423"/>
      <point x="913" y="459"/>
      <point x="906" y="520" type="curve" smooth="yes"/>
      <point x="898" y="589"/>
      <point x="875" y="620"/>
      <point x="868" y="614" type="curve" smooth="yes"/>
      <point x="847" y="595"/>
      <point x="818" y="580"/>
      <point x="786" y="567" type="curve" name="hr02"/>
      <point x="784" y="643"/>
      <point x="783" y="716"/>
      <point x="783" y="779" type="curve" smooth="yes" name="hr01"/>
      <point x="783" y="1043"/>
      <point x="800" y="1399"/>
      <point x="800" y="1457" type="curve" smooth="yes"/>
      <point x="800" y="1498"/>
      <point x="735" y="1498"/>
      <point x="685" y="1498" type="curve" smooth="yes"/>
      <point x="629" y="1498"/>
      <point x="581" y="1492"/>
      <point x="573" y="1456" type="curve" smooth="yes"/>
      <point x="555" y="1375"/>
      <point x="350" y="1048"/>
      <point x="321" y="1002" type="curve" smooth="yes"/>
      <point x="163" y="756"/>
      <point x="71" y="633"/>
      <point x="71" y="467" type="curve" smooth="yes"/>
      <point x="71" y="420"/>
      <point x="94" y="405"/>
      <point x="140" y="405" type="curve" smooth="yes"/>
      <point x="586" y="405" type="line"/>
      <point x="580" y="220"/>
      <point x="573" y="55"/>
      <point x="573" y="24" type="curve" smooth="yes"/>
      <point x="573" y="-17"/>
      <point x="636" y="-17"/>
    </contour>
    <contour>
      <point x="341" y="535" type="line" smooth="yes"/>
      <point x="319" y="535"/>
      <point x="305" y="566"/>
      <point x="305" y="591" type="curve" smooth="yes"/>
      <point x="305" y="772"/>
      <point x="360" y="851"/>
      <point x="510" y="1141" type="curve" smooth="yes"/>
      <point x="534" y="1187"/>
      <point x="558" y="1232"/>
      <point x="580" y="1272" type="curve"/>
      <point x="586" y="1131"/>
      <point x="593" y="938"/>
      <point x="593" y="779" type="curve" smooth="yes" name="hr03"/>
      <point x="593" y="707"/>
      <point x="592" y="622"/>
      <point x="589" y="535" type="curve" name="hr04"/>
    </contour>
  </outline>
</glyph>
<glyph name="five" format="2">
  <advance width="956"/>
  <unicode hex="0035"/>
  <outline>
    <contour>
      <point x="466" y="-17" type="curve" smooth="yes"/>
      <point x="704" y="-17"/>
      <point x="900" y="150"/>
      <point x="900" y="468" type="curve" smooth="yes"/>
      <point x="900" y="845"/>
      <point x="707" y="969"/>
      <point x="497" y="969" type="curve" smooth="yes" name="hr02"/>
      <point x="395" y="969"/>
      <point x="406" y="957"/>
      <point x="398" y="957" type="curve" smooth="yes"/>
      <point x="389" y="957"/>
      <point x="386" y="957"/>
      <point x="388" y="974" type="curve" smooth="yes"/>
      <point x="400" y="1069"/>
      <point x="438" y="1315"/>
      <point x="442" y="1334" type="curve" smooth="yes"/>
      <point x="446" y="1354"/>
      <point x="456" y="1353"/>
      <point x="477" y="1353" type="curve" smooth="yes"/>
      <point x="646" y="1353" type="line" smooth="yes"/>
      <point x="719" y="1353"/>
      <point x="778" y="1307"/>
      <point x="799" y="1302" type="curve" smooth="yes"/>
      <point x="808" y="1299"/>
      <point x="819" y="1302"/>
      <point x="839" y="1385" type="curve" smooth="yes"/>
      <point x="855" y="1446"/>
      <point x="848" y="1474"/>
      <point x="836" y="1478" type="curve" smooth="yes"/>
      <point x="810" y="1488"/>
      <point x="743" y="1491"/>
      <point x="640" y="1491" type="curve" smooth="yes"/>
      <point x="251" y="1491" type="line" smooth="yes"/>
      <point x="218" y="1491"/>
      <point x="208" y="1481"/>
      <point x="208" y="1462" type="curve" smooth="yes"/>
      <point x="208" y="1420"/>
      <point x="136" y="960"/>
      <point x="121" y="890" type="curve" smooth="yes"/>
      <point x="117" y="872"/>
      <point x="132" y="856"/>
      <point x="207" y="821" type="curve" smooth="yes"/>
      <point x="271" y="792"/>
      <point x="315" y="783"/>
      <point x="329" y="783" type="curve" smooth="yes" name="hr01"/>
      <point x="399" y="783"/>
      <point x="373" y="916"/>
      <point x="488" y="916" type="curve" smooth="yes"/>
      <point x="593" y="916"/>
      <point x="612" y="758"/>
      <point x="612" y="490" type="curve" smooth="yes"/>
      <point x="612" y="159"/>
      <point x="521" y="39"/>
      <point x="458" y="39" type="curve" smooth="yes"/>
      <point x="332" y="39"/>
      <point x="381" y="172"/>
      <point x="326" y="305" type="curve" smooth="yes"/>
      <point x="318" y="325"/>
      <point x="267" y="320"/>
      <point x="188" y="271" type="curve" smooth="yes"/>
      <point x="97" y="216"/>
      <point x="83" y="173"/>
      <point x="106" y="152" type="curve" smooth="yes"/>
      <point x="180" y="80"/>
      <point x="295" y="-17"/>
    </contour>
  </outline>
</glyph>
<glyph name="six" format="2">
  <advance width="956"/>
  <unicode hex="0036"/>
  <outline>
    <contour>
      <point x="478" y="-17" type="curve" smooth="yes"/>
      <point x="767" y="-17"/>
      <point x="900" y="262"/>
      <point x="900" y="496" type="curve" smooth="yes"/>
      <point x="900" y="711"/>
      <point x="775" y="968"/>
      <point x="478" y="968" type="curve" smooth="yes"/>
      <point x="433" y="968"/>
      <point x="391" y="958"/>
      <point x="347" y="936" type="curve"/>
      <point x="356" y="1274"/>
      <point x="387" y="1443"/>
      <point x="526" y="1443" type="curve" smooth="yes"/>
      <point x="605" y="1443"/>
      <point x="640" y="1305"/>
      <point x="628" y="1218" type="curve" smooth="yes" name="hr01"/>
      <point x="626" y="1181"/>
      <point x="658" y="1157"/>
      <point x="756" y="1217" type="curve" smooth="yes"/>
      <point x="835" y="1264"/>
      <point x="855" y="1310"/>
      <point x="843" y="1328" type="curve" smooth="yes"/>
      <point x="780" y="1423"/>
      <point x="663" y="1499"/>
      <point x="538" y="1499" type="curve" smooth="yes"/>
      <point x="272" y="1499"/>
      <point x="56" y="1251"/>
      <point x="56" y="674" type="curve" smooth="yes"/>
      <point x="56" y="215"/>
      <point x="233" y="-17"/>
    </contour>
    <contour>
      <point x="478" y="39" type="curve" smooth="yes"/>
      <point x="351" y="39"/>
      <point x="333" y="235"/>
      <point x="343" y="592" type="curve" smooth="yes"/>
      <point x="338" y="782"/>
      <point x="384" y="912"/>
      <point x="478" y="912" type="curve" smooth="yes"/>
      <point x="607" y="912"/>
      <point x="612" y="670"/>
      <point x="612" y="496" type="curve" smooth="yes" name="hr03"/>
      <point x="612" y="298"/>
      <point x="605" y="39"/>
    </contour>
  </outline>
</glyph>
<glyph name="seven" format="2">
  <advance width="956"/>
  <unicode hex="0037"/>
  <outline>
    <contour>
      <point x="337" y="-4" type="curve" smooth="yes"/>
      <point x="419" y="-15"/>
      <point x="487" y="-22"/>
      <point x="487" y="0" type="curve" smooth="yes"/>
      <point x="487" y="83"/>
      <point x="467" y="390"/>
      <point x="626" y="733" type="curve" smooth="yes"/>
      <point x="857" y="1230"/>
      <point x="886" y="1310"/>
      <point x="886" y="1382" type="curve" smooth="yes"/>
      <point x="886" y="1405"/>
      <point x="884" y="1415"/>
      <point x="879" y="1434" type="curve" smooth="yes"/>
      <point x="866" y="1486"/>
      <point x="862" y="1491"/>
      <point x="851" y="1491" type="curve" smooth="yes"/>
      <point x="420" y="1491" type="line" smooth="yes"/>
      <point x="280" y="1491"/>
      <point x="171" y="1490"/>
      <point x="92" y="1474" type="curve" smooth="yes"/>
      <point x="80" y="1472"/>
      <point x="74" y="1446"/>
      <point x="91" y="1387" type="curve" smooth="yes"/>
      <point x="115" y="1304"/>
      <point x="133" y="1287"/>
      <point x="141" y="1291" type="curve" smooth="yes"/>
      <point x="232" y="1344"/>
      <point x="300" y="1353"/>
      <point x="438" y="1353" type="curve" smooth="yes"/>
      <point x="598" y="1353" type="line" smooth="yes"/>
      <point x="620" y="1353"/>
      <point x="655" y="1334"/>
      <point x="655" y="1241" type="curve" smooth="yes"/>
      <point x="655" y="1117"/>
      <point x="595" y="944"/>
      <point x="518" y="780" type="curve" smooth="yes"/>
      <point x="374" y="472"/>
      <point x="217" y="128"/>
      <point x="207" y="44" type="curve" smooth="yes"/>
      <point x="204" y="20"/>
      <point x="279" y="4"/>
    </contour>
  </outline>
</glyph>
<glyph name="eight" format="2">
  <advance width="956"/>
  <unicode hex="0038"/>
  <outline>
    <contour>
      <point x="478" y="-17" type="curve" smooth="yes"/>
      <point x="811" y="-17"/>
      <point x="900" y="251"/>
      <point x="900" y="416" type="curve" smooth="yes"/>
      <point x="900" y="610"/>
      <point x="836" y="797"/>
      <point x="650" y="866" type="curve"/>
      <point x="790" y="919"/>
      <point x="850" y="1039"/>
      <point x="850" y="1162" type="curve" smooth="yes"/>
      <point x="850" y="1316"/>
      <point x="739" y="1498"/>
      <point x="478" y="1498" type="curve" smooth="yes"/>
      <point x="244" y="1498"/>
      <point x="106" y="1310"/>
      <point x="106" y="1162" type="curve" smooth="yes" name="hr01"/>
      <point x="106" y="1043"/>
      <point x="166" y="918"/>
      <point x="314" y="864" type="curve"/>
      <point x="136" y="793"/>
      <point x="56" y="606"/>
      <point x="56" y="416" type="curve" smooth="yes"/>
      <point x="56" y="259"/>
      <point x="145" y="-17"/>
    </contour>
    <contour>
      <point x="478" y="39" type="curve" smooth="yes"/>
      <point x="360" y="39"/>
      <point x="343" y="215"/>
      <point x="343" y="416" type="curve" smooth="yes"/>
      <point x="343" y="640"/>
      <point x="364" y="838"/>
      <point x="478" y="838" type="curve" smooth="yes"/>
      <point x="601" y="838"/>
      <point x="612" y="651"/>
      <point x="612" y="416" type="curve" smooth="yes" name="hr04"/>
      <point x="612" y="218"/>
      <point x="592" y="39"/>
    </contour>
    <contour>
      <point x="478" y="894" type="curve" smooth="yes"/>
      <point x="401" y="894"/>
      <point x="393" y="1020"/>
      <point x="393" y="1162" type="curve" smooth="yes"/>
      <point x="393" y="1288"/>
      <point x="400" y="1442"/>
      <point x="478" y="1442" type="curve" smooth="yes"/>
      <point x="551" y="1442"/>
      <point x="574" y="1301"/>
      <point x="574" y="1162" type="curve" smooth="yes" name="hr03"/>
      <point x="574" y="1020"/>
      <point x="554" y="894"/>
    </contour>
  </outline>
</glyph>
<glyph name="nine" format="2">
  <advance width="956"/>
  <unicode hex="0039"/>
  <outline>
    <contour>
      <point x="456" y="-17" type="curve" smooth="yes"/>
      <point x="720" y="-17"/>
      <point x="896" y="316"/>
      <point x="896" y="808" type="curve" smooth="yes"/>
      <point x="896" y="1267"/>
      <point x="723" y="1499"/>
      <point x="478" y="1499" type="curve" smooth="yes"/>
      <point x="236" y="1499"/>
      <point x="60" y="1292"/>
      <point x="60" y="1026" type="curve" smooth="yes"/>
      <point x="60" y="745"/>
      <point x="224" y="574"/>
      <point x="488" y="574" type="curve" smooth="yes"/>
      <point x="543" y="574"/>
      <point x="590" y="589"/>
      <point x="630" y="611" type="curve"/>
      <point x="623" y="261"/>
      <point x="585" y="43"/>
      <point x="444" y="43" type="curve" smooth="yes"/>
      <point x="330" y="43"/>
      <point x="325" y="238"/>
      <point x="308" y="284" type="curve" smooth="yes"/>
      <point x="297" y="314"/>
      <point x="273" y="314"/>
      <point x="175" y="259" type="curve" smooth="yes"/>
      <point x="102" y="218"/>
      <point x="79" y="196"/>
      <point x="100" y="164" type="curve" smooth="yes"/>
      <point x="166" y="63"/>
      <point x="275" y="-17"/>
    </contour>
    <contour>
      <point x="478" y="655" type="curve" smooth="yes"/>
      <point x="349" y="655"/>
      <point x="322" y="799"/>
      <point x="322" y="1026" type="curve" smooth="yes"/>
      <point x="322" y="1245"/>
      <point x="363" y="1439"/>
      <point x="478" y="1439" type="curve" smooth="yes"/>
      <point x="592" y="1439"/>
      <point x="624" y="1262"/>
      <point x="631" y="934" type="curve"/>
      <point x="619" y="771"/>
      <point x="576" y="655"/>
    </contour>
  </outline>
</glyph>
<glyph name="colon" format="2">
  <advance width="431"/>
  <unicode hex="003A"/>
  <outline>
    <contour>
      <point x="216" y="506" type="curve" smooth="yes"/>
      <point x="280" y="506"/>
      <point x="334" y="571"/>
      <point x="334" y="671" type="curve" smooth="yes"/>
      <point x="334" y="778"/>
      <point x="281" y="831"/>
      <point x="216" y="831" type="curve" smooth="yes"/>
      <point x="155" y="831"/>
      <point x="96" y="776"/>
      <point x="96" y="671" type="curve" smooth="yes"/>
      <point x="96" y="568"/>
      <point x="155" y="506"/>
    </contour>
    <contour>
      <point x="215" y="-18" type="curve" smooth="yes"/>
      <point x="280" y="-18"/>
      <point x="334" y="48"/>
      <point x="334" y="148" type="curve" smooth="yes"/>
      <point x="334" y="255"/>
      <point x="281" y="308"/>
      <point x="215" y="308" type="curve" smooth="yes"/>
      <point x="155" y="308"/>
      <point x="96" y="253"/>
      <point x="96" y="148" type="curve" smooth="yes"/>
      <point x="96" y="45"/>
      <point x="155" y="-18"/>
    </contour>
  </outline>
</glyph>
<glyph name="semicolon" format="2">
  <advance width="459"/>
  <unicode hex="003B"/>
  <outline>
    <contour>
      <point x="128" y="-397" type="curve" smooth="yes"/>
      <point x="135" y="-423"/>
      <point x="369" y="-293"/>
      <point x="369" y="67" type="curve" smooth="yes" name="hr01"/>
      <point x="369" y="199"/>
      <point x="314" y="310"/>
      <point x="217" y="310" type="curve" smooth="yes"/>
      <point x="150" y="310"/>
      <point x="97" y="249"/>
      <point x="97" y="144" type="curve" smooth="yes"/>
      <point x="97" y="36"/>
      <point x="164" y="-17"/>
      <point x="219" y="-17" type="curve" smooth="yes"/>
      <point x="250" y="-17"/>
      <point x="255" y="10"/>
      <point x="265" y="10" type="curve" smooth="yes"/>
      <point x="273" y="10"/>
      <point x="277" y="-23"/>
      <point x="277" y="-60" type="curve" smooth="yes"/>
      <point x="277" y="-224"/>
      <point x="122" y="-378"/>
    </contour>
    <contour>
      <point x="213" y="509" type="curve" smooth="yes"/>
      <point x="277" y="509"/>
      <point x="331" y="573"/>
      <point x="331" y="673" type="curve" smooth="yes"/>
      <point x="331" y="780"/>
      <point x="279" y="835"/>
      <point x="213" y="835" type="curve" smooth="yes"/>
      <point x="153" y="835"/>
      <point x="94" y="778"/>
      <point x="94" y="673" type="curve" smooth="yes"/>
      <point x="94" y="570"/>
      <point x="153" y="509"/>
    </contour>
  </outline>
</glyph>
<glyph name="less" format="2">
  <advance width="871"/>
  <unicode hex="003C"/>
  <outline>
    <contour>
      <point x="828" y="823" type="curve"/>
      <point x="794" y="857" type="line"/>
      <point x="83" y="606" type="line"/>
      <point x="72" y="581"/>
      <point x="50" y="506"/>
      <point x="44" y="482" type="curve"/>
      <point x="78" y="436" type="line"/>
      <point x="790" y="689" type="line"/>
      <point x="798" y="712"/>
      <point x="822" y="797"/>
    </contour>
    <contour>
      <point x="828" y="312" type="curve"/>
      <point x="801" y="355" type="line"/>
      <point x="83" y="606" type="line"/>
      <point x="72" y="581"/>
      <point x="50" y="506"/>
      <point x="44" y="482" type="curve"/>
      <point x="78" y="436" type="line"/>
      <point x="717" y="213" type="line"/>
      <point x="755" y="236"/>
      <point x="802" y="287"/>
    </contour>
  </outline>
</glyph>
<glyph name="equal" format="2">
  <advance width="871"/>
  <unicode hex="003D"/>
  <outline>
    <contour>
      <point x="828" y="698" type="curve"/>
      <point x="794" y="731" type="line"/>
      <point x="94" y="731" type="line"/>
      <point x="83" y="706"/>
      <point x="50" y="640"/>
      <point x="44" y="613" type="curve"/>
      <point x="78" y="580" type="line"/>
      <point x="776" y="580" type="line"/>
      <point x="787" y="600"/>
      <point x="820" y="670"/>
    </contour>
    <contour>
      <point x="828" y="422" type="curve"/>
      <point x="794" y="455" type="line"/>
      <point x="94" y="455" type="line"/>
      <point x="83" y="431"/>
      <point x="50" y="364"/>
      <point x="44" y="337" type="curve"/>
      <point x="78" y="304" type="line"/>
      <point x="776" y="304" type="line"/>
      <point x="787" y="324"/>
      <point x="820" y="395"/>
    </contour>
  </outline>
</glyph>
<glyph name="greater" format="2">
  <advance width="871"/>
  <unicode hex="003E"/>
  <outline>
    <contour>
      <point x="828" y="588" type="curve"/>
      <point x="793" y="634" type="line"/>
      <point x="153" y="857" type="line"/>
      <point x="113" y="833"/>
      <point x="70" y="784"/>
      <point x="44" y="759" type="curve"/>
      <point x="70" y="715" type="line"/>
      <point x="551" y="548" type="line"/>
      <point x="80" y="382" type="line"/>
      <point x="74" y="358"/>
      <point x="50" y="274"/>
      <point x="44" y="247" type="curve"/>
      <point x="78" y="213" type="line"/>
      <point x="789" y="465" type="line"/>
      <point x="801" y="497"/>
      <point x="819" y="552"/>
    </contour>
  </outline>
</glyph>
<glyph name="question" format="2">
  <advance width="806"/>
  <unicode hex="003F"/>
  <outline>
    <contour>
      <point x="402" y="347" type="curve" smooth="yes"/>
      <point x="438" y="347"/>
      <point x="499" y="356"/>
      <point x="498" y="365" type="curve" smooth="yes"/>
      <point x="496" y="386"/>
      <point x="492" y="429"/>
      <point x="504" y="442" type="curve" smooth="yes"/>
      <point x="514" y="453"/>
      <point x="711" y="496"/>
      <point x="710" y="723" type="curve" smooth="yes"/>
      <point x="710" y="896"/>
      <point x="580" y="969"/>
      <point x="417" y="969" type="curve" smooth="yes"/>
      <point x="235" y="969"/>
      <point x="176" y="903"/>
      <point x="109" y="808" type="curve" smooth="yes"/>
      <point x="96" y="788"/>
      <point x="95" y="762"/>
      <point x="174" y="737" type="curve" smooth="yes"/>
      <point x="278" y="704"/>
      <point x="297" y="716"/>
      <point x="303" y="748" type="curve" smooth="yes"/>
      <point x="318" y="836"/>
      <point x="329" y="912"/>
      <point x="387" y="912" type="curve" smooth="yes" name="hr01"/>
      <point x="453" y="912"/>
      <point x="478" y="854"/>
      <point x="478" y="718" type="curve" smooth="yes"/>
      <point x="478" y="544"/>
      <point x="330" y="499"/>
      <point x="321" y="487" type="curve" smooth="yes"/>
      <point x="310" y="472"/>
      <point x="303" y="386"/>
      <point x="307" y="364" type="curve" smooth="yes"/>
      <point x="310" y="351"/>
      <point x="362" y="347"/>
    </contour>
    <contour>
      <point x="401" y="-16" type="curve" smooth="yes"/>
      <point x="466" y="-16"/>
      <point x="519" y="46"/>
      <point x="519" y="138" type="curve" smooth="yes" name="hr02"/>
      <point x="519" y="226"/>
      <point x="468" y="286"/>
      <point x="401" y="286" type="curve" smooth="yes"/>
      <point x="333" y="286"/>
      <point x="282" y="234"/>
      <point x="282" y="138" type="curve" smooth="yes"/>
      <point x="282" y="44"/>
      <point x="337" y="-16"/>
    </contour>
  </outline>
</glyph>
<glyph name="at" format="2">
  <advance width="1730"/>
  <unicode hex="0040"/>
  <outline>
    <contour>
      <point x="1643" y="537" type="curve" smooth="yes"/>
      <point x="1643" y="1042"/>
      <point x="1347" y="1270"/>
      <point x="927" y="1270" type="curve" smooth="yes"/>
      <point x="452" y="1270"/>
      <point x="86" y="888"/>
      <point x="86" y="427" type="curve" smooth="yes"/>
      <point x="86" y="-98"/>
      <point x="418" y="-400"/>
      <point x="895" y="-400" type="curve" smooth="yes"/>
      <point x="1215" y="-400"/>
      <point x="1407" y="-254"/>
      <point x="1495" y="-150" type="curve"/>
      <point x="1441" y="-53" type="line"/>
      <point x="1367" y="-115"/>
      <point x="1192" y="-212"/>
      <point x="940" y="-212" type="curve" smooth="yes"/>
      <point x="597" y="-212"/>
      <point x="334" y="5"/>
      <point x="334" y="482" type="curve" smooth="yes"/>
      <point x="334" y="814"/>
      <point x="516" y="1083"/>
      <point x="891" y="1083" type="curve" smooth="yes"/>
      <point x="1213" y="1083"/>
      <point x="1423" y="895"/>
      <point x="1423" y="471" type="curve" smooth="yes"/>
      <point x="1423" y="264"/>
      <point x="1353" y="177"/>
      <point x="1291" y="177" type="curve" smooth="yes"/>
      <point x="1243" y="177"/>
      <point x="1248" y="207"/>
      <point x="1248" y="262" type="curve" smooth="yes"/>
      <point x="1248" y="631" type="line" smooth="yes"/>
      <point x="1248" y="733"/>
      <point x="1274" y="855"/>
      <point x="1274" y="855" type="curve"/>
      <point x="1247" y="883" type="line"/>
      <point x="1179" y="845"/>
      <point x="1128" y="827"/>
      <point x="1041" y="799" type="curve"/>
      <point x="985" y="871"/>
      <point x="940" y="883"/>
      <point x="884" y="883" type="curve" smooth="yes"/>
      <point x="622" y="883"/>
      <point x="478" y="642"/>
      <point x="478" y="397" type="curve" smooth="yes"/>
      <point x="478" y="91"/>
      <point x="623" y="-27"/>
      <point x="748" y="-27" type="curve" smooth="yes"/>
      <point x="846" y="-27"/>
      <point x="881" y="-2"/>
      <point x="982" y="105" type="curve"/>
      <point x="1009" y="-2"/>
      <point x="1070" y="-27"/>
      <point x="1153" y="-27" type="curve" smooth="yes"/>
      <point x="1408" y="-27"/>
      <point x="1643" y="230"/>
    </contour>
    <contour>
      <point x="976" y="672" type="curve"/>
      <point x="976" y="273" type="line"/>
      <point x="928" y="197"/>
      <point x="906" y="180"/>
      <point x="857" y="180" type="curve" smooth="yes"/>
      <point x="804" y="180"/>
      <point x="748" y="216"/>
      <point x="748" y="425" type="curve" smooth="yes"/>
      <point x="748" y="655"/>
      <point x="786" y="748"/>
      <point x="877" y="748" type="curve" smooth="yes"/>
      <point x="929" y="748"/>
      <point x="953" y="718"/>
    </contour>
  </outline>
</glyph>
<glyph name="A" format="2">
  <advance width="1221"/>
  <unicode hex="0041"/>
  <anchor x="600" y="0" name="H"/>
  <anchor x="600" y="-92" name="L"/>
  <anchor x="962" y="0" name="O"/>
  <anchor x="600" y="1260" name="U"/>
  <outline>
    <contour>
      <point x="367" y="387" type="line"/>
      <point x="725" y="387" type="line"/>
      <point x="813" y="145" type="line" smooth="yes"/>
      <point x="826" y="105"/>
      <point x="797" y="88"/>
      <point x="702" y="83" type="curve"/>
      <point x="702" y="0" type="line"/>
      <point x="1200" y="0" type="line"/>
      <point x="1200" y="83" type="line"/>
      <point x="1121" y="92"/>
      <point x="1103" y="111"/>
      <point x="1091" y="145" type="curve" smooth="yes"/>
      <point x="705" y="1211" type="line"/>
      <point x="623" y="1192"/>
      <point x="517" y="1155"/>
      <point x="443" y="1094" type="curve"/>
      <point x="134" y="145" type="line" smooth="yes"/>
      <point x="122" y="109"/>
      <point x="82" y="98"/>
      <point x="0" y="83" type="curve"/>
      <point x="0" y="0" type="line"/>
      <point x="413" y="0" type="line"/>
      <point x="413" y="83" type="line"/>
      <point x="313" y="94"/>
      <point x="274" y="108"/>
      <point x="286" y="145" type="curve" smooth="yes"/>
    </contour>
    <contour>
      <point x="680" y="514" type="line"/>
      <point x="408" y="514" type="line"/>
      <point x="535" y="913" type="line"/>
    </contour>
  </outline>
</glyph>
<glyph name="B" format="2">
  <advance width="1190"/>
  <unicode hex="0042"/>
  <anchor x="561" y="-92" name="L"/>
  <anchor x="561" y="1260" name="U"/>
  <outline>
    <contour>
      <point x="1100" y="327" type="curve" smooth="yes"/>
      <point x="1100" y="497"/>
      <point x="969" y="634"/>
      <point x="767" y="665" type="curve"/>
      <point x="924" y="708"/>
      <point x="998" y="806"/>
      <point x="998" y="938" type="curve" smooth="yes"/>
      <point x="998" y="1092"/>
      <point x="821" y="1186"/>
      <point x="520" y="1186" type="curve" smooth="yes"/>
      <point x="364" y="1186"/>
      <point x="139" y="1158"/>
      <point x="20" y="1131" type="curve"/>
      <point x="34" y="1040" type="line"/>
      <point x="138" y="1061"/>
      <point x="360" y="1075"/>
      <point x="457" y="1075" type="curve" smooth="yes"/>
      <point x="649" y="1075"/>
      <point x="712" y="1015"/>
      <point x="712" y="893" type="curve" smooth="yes"/>
      <point x="712" y="787"/>
      <point x="670" y="689"/>
      <point x="446" y="689" type="curve" smooth="yes"/>
      <point x="377" y="689" type="line"/>
      <point x="386" y="560" type="line"/>
      <point x="424" y="571"/>
      <point x="463" y="581"/>
      <point x="544" y="581" type="curve" smooth="yes"/>
      <point x="758" y="581"/>
      <point x="806" y="453"/>
      <point x="806" y="318" type="curve" smooth="yes"/>
      <point x="806" y="180"/>
      <point x="725" y="98"/>
      <point x="549" y="98" type="curve" smooth="yes"/>
      <point x="493" y="98"/>
      <point x="465" y="103"/>
      <point x="427" y="122" type="curve"/>
      <point x="113" y="0" type="line"/>
      <point x="254" y="-5"/>
      <point x="458" y="-12"/>
      <point x="591" y="-12" type="curve"/>
      <point x="917" y="-12"/>
      <point x="1100" y="118"/>
    </contour>
    <contour>
      <point x="34" y="0" type="line"/>
      <point x="537" y="0" type="line"/>
      <point x="537" y="73" type="line"/>
      <point x="448" y="88"/>
      <point x="436" y="114"/>
      <point x="436" y="129" type="curve" smooth="yes"/>
      <point x="436" y="1132" type="line"/>
      <point x="157" y="1113" type="line"/>
      <point x="157" y="139" type="line" smooth="yes"/>
      <point x="157" y="122"/>
      <point x="117" y="99"/>
      <point x="34" y="83" type="curve"/>
    </contour>
  </outline>
</glyph>
<glyph name="C" format="2">
  <advance width="1076"/>
  <unicode hex="0043"/>
  <anchor x="568" y="0" name="H"/>
  <anchor x="599" y="-92" name="L"/>
  <anchor x="599" y="1260" name="U"/>
  <outline>
    <contour>
      <point x="1013" y="194" type="curve"/>
      <point x="1008" y="203"/>
      <point x="970" y="258"/>
      <point x="957" y="269" type="curve"/>
      <point x="833" y="166"/>
      <point x="712" y="149"/>
      <point x="646" y="149" type="curve" smooth="yes"/>
      <point x="494" y="149"/>
      <point x="328" y="268"/>
      <point x="328" y="573" type="curve" smooth="yes"/>
      <point x="328" y="954"/>
      <point x="462" y="1053"/>
      <point x="588" y="1053" type="curve" smooth="yes"/>
      <point x="673" y="1053"/>
      <point x="754" y="1003"/>
      <point x="815" y="865" type="curve"/>
      <point x="891" y="849" type="line"/>
      <point x="919" y="877"/>
      <point x="1010" y="1083"/>
      <point x="996" y="1094" type="curve" smooth="yes"/>
      <point x="933" y="1145"/>
      <point x="775" y="1186"/>
      <point x="644" y="1186" type="curve" smooth="yes"/>
      <point x="298" y="1186"/>
      <point x="42" y="931"/>
      <point x="42" y="539" type="curve" smooth="yes"/>
      <point x="42" y="183"/>
      <point x="286" y="-27"/>
      <point x="547" y="-27" type="curve" smooth="yes"/>
      <point x="696" y="-27"/>
      <point x="857" y="37"/>
    </contour>
  </outline>
</glyph>
<glyph name="D" format="2">
  <advance width="1249"/>
  <unicode hex="0044"/>
  <anchor x="564" y="-92" name="L"/>
  <anchor x="564" y="1260" name="U"/>
  <outline>
    <contour>
      <point x="34" y="0" type="line"/>
      <point x="75" y="0" type="line" smooth="yes"/>
      <point x="240" y="0"/>
      <point x="371" y="0"/>
      <point x="515" y="0" type="curve" smooth="yes"/>
      <point x="602" y="0" type="line" smooth="yes"/>
      <point x="875" y="0"/>
      <point x="1176" y="161"/>
      <point x="1176" y="621" type="curve" smooth="yes"/>
      <point x="1176" y="977"/>
      <point x="961" y="1186"/>
      <point x="565" y="1186" type="curve" smooth="yes"/>
      <point x="397" y="1186"/>
      <point x="150" y="1161"/>
      <point x="20" y="1131" type="curve"/>
      <point x="34" y="1030" type="line"/>
      <point x="66" y="1034"/>
      <point x="109" y="1040"/>
      <point x="157" y="1047" type="curve"/>
      <point x="157" y="139" type="line" smooth="yes"/>
      <point x="157" y="122"/>
      <point x="117" y="99"/>
      <point x="34" y="83" type="curve"/>
    </contour>
    <contour>
      <point x="560" y="109" type="curve" smooth="yes"/>
      <point x="490" y="109"/>
      <point x="436" y="119"/>
      <point x="436" y="164" type="curve" smooth="yes"/>
      <point x="436" y="1075" type="line"/>
      <point x="457" y="1076"/>
      <point x="476" y="1075"/>
      <point x="494" y="1075" type="curve" smooth="yes"/>
      <point x="744" y="1075"/>
      <point x="876" y="911"/>
      <point x="876" y="586" type="curve" smooth="yes"/>
      <point x="876" y="241"/>
      <point x="685" y="109"/>
    </contour>
  </outline>
</glyph>
<glyph name="E" format="2">
  <advance width="1023"/>
  <unicode hex="0045"/>
  <anchor x="511" y="0" name="H"/>
  <anchor x="511" y="-92" name="L"/>
  <anchor x="773" y="0" name="O"/>
  <anchor x="1023" y="1012" name="R"/>
  <anchor x="511" y="1260" name="U"/>
  <outline>
    <contour>
      <point x="927" y="1125" type="curve"/>
      <point x="887" y="1159" type="line"/>
      <point x="415" y="1159" type="line"/>
      <point x="388" y="1032" type="line"/>
      <point x="729" y="1032" type="line" smooth="yes"/>
      <point x="774" y="1032"/>
      <point x="799" y="953"/>
      <point x="804" y="840" type="curve"/>
      <point x="890" y="840" type="line"/>
      <point x="904" y="887"/>
      <point x="924" y="1062"/>
    </contour>
    <contour>
      <point x="833" y="639" type="curve"/>
      <point x="799" y="676" type="line"/>
      <point x="396" y="676" type="line"/>
      <point x="375" y="566" type="line"/>
      <point x="566" y="566" type="line" smooth="yes"/>
      <point x="669" y="566"/>
      <point x="710" y="550"/>
      <point x="748" y="514" type="curve"/>
      <point x="775" y="535"/>
      <point x="814" y="605"/>
    </contour>
    <contour>
      <point x="987" y="313" type="curve"/>
      <point x="904" y="339" type="line"/>
      <point x="851" y="197"/>
      <point x="812" y="126"/>
      <point x="699" y="126" type="curve" smooth="yes"/>
      <point x="624" y="126" type="line" smooth="yes"/>
      <point x="462" y="126"/>
      <point x="436" y="149"/>
      <point x="436" y="185" type="curve" smooth="yes"/>
      <point x="436" y="1039" type="line" smooth="yes"/>
      <point x="436" y="1055"/>
      <point x="487" y="1067"/>
      <point x="570" y="1075" type="curve"/>
      <point x="570" y="1159" type="line"/>
      <point x="34" y="1159" type="line"/>
      <point x="34" y="1075" type="line"/>
      <point x="123" y="1058"/>
      <point x="157" y="1033"/>
      <point x="157" y="1018" type="curve" smooth="yes"/>
      <point x="157" y="139" type="line" smooth="yes"/>
      <point x="157" y="122"/>
      <point x="117" y="99"/>
      <point x="34" y="83" type="curve"/>
      <point x="34" y="0" type="line"/>
      <point x="949" y="0" type="line"/>
      <point x="960" y="35"/>
      <point x="978" y="207"/>
    </contour>
  </outline>
</glyph>
<glyph name="F" format="2">
  <advance width="989"/>
  <unicode hex="0046"/>
  <anchor x="484" y="-92" name="L"/>
  <anchor x="484" y="1260" name="U"/>
  <outline>
    <contour>
      <point x="935" y="1125" type="curve"/>
      <point x="896" y="1159" type="line"/>
      <point x="415" y="1159" type="line"/>
      <point x="388" y="1032" type="line"/>
      <point x="736" y="1032" type="line" smooth="yes"/>
      <point x="783" y="1032"/>
      <point x="808" y="953"/>
      <point x="812" y="840" type="curve"/>
      <point x="899" y="840" type="line"/>
      <point x="914" y="887"/>
      <point x="933" y="1062"/>
    </contour>
    <contour>
      <point x="807" y="639" type="curve"/>
      <point x="770" y="676" type="line"/>
      <point x="370" y="676" type="line"/>
      <point x="214" y="566" type="line"/>
      <point x="539" y="566" type="line" smooth="yes"/>
      <point x="641" y="566"/>
      <point x="685" y="550"/>
      <point x="720" y="514" type="curve"/>
      <point x="746" y="535"/>
      <point x="784" y="594"/>
    </contour>
    <contour>
      <point x="34" y="0" type="line"/>
      <point x="587" y="0" type="line"/>
      <point x="587" y="83" type="line"/>
      <point x="465" y="106"/>
      <point x="436" y="124"/>
      <point x="436" y="139" type="curve" smooth="yes"/>
      <point x="436" y="1039" type="line" smooth="yes"/>
      <point x="436" y="1055"/>
      <point x="496" y="1067"/>
      <point x="570" y="1075" type="curve"/>
      <point x="570" y="1159" type="line"/>
      <point x="34" y="1159" type="line"/>
      <point x="34" y="1075" type="line"/>
      <point x="123" y="1058"/>
      <point x="157" y="1033"/>
      <point x="157" y="1018" type="curve" smooth="yes"/>
      <point x="157" y="139" type="line" smooth="yes"/>
      <point x="157" y="122"/>
      <point x="117" y="99"/>
      <point x="34" y="83" type="curve"/>
    </contour>
  </outline>
</glyph>
<glyph name="G" format="2">
  <advance width="1153"/>
  <unicode hex="0047"/>
  <anchor x="592" y="0" name="H"/>
  <anchor x="613" y="-92" name="L"/>
  <anchor x="613" y="1260" name="U"/>
  <outline>
    <contour>
      <point x="1119" y="499" type="curve"/>
      <point x="1119" y="583" type="line"/>
      <point x="640" y="583" type="line"/>
      <point x="640" y="499" type="line"/>
      <point x="771" y="475"/>
      <point x="763" y="450"/>
      <point x="763" y="423" type="curve" smooth="yes"/>
      <point x="763" y="90" type="line" smooth="yes"/>
      <point x="763" y="73"/>
      <point x="1034" y="164"/>
      <point x="1034" y="164" type="curve"/>
      <point x="1034" y="423" type="line" smooth="yes"/>
      <point x="1034" y="452"/>
      <point x="1049" y="482"/>
    </contour>
    <contour>
      <point x="1036" y="1092" type="curve" smooth="yes"/>
      <point x="956" y="1152"/>
      <point x="781" y="1186"/>
      <point x="700" y="1186" type="curve" smooth="yes"/>
      <point x="318" y="1186"/>
      <point x="42" y="943"/>
      <point x="42" y="535" type="curve" smooth="yes"/>
      <point x="42" y="156"/>
      <point x="311" y="-28"/>
      <point x="590" y="-27" type="curve" smooth="yes"/>
      <point x="702" y="-27"/>
      <point x="852" y="15"/>
      <point x="1034" y="164" type="curve"/>
      <point x="1026" y="173"/>
      <point x="895" y="237"/>
      <point x="879" y="245" type="curve"/>
      <point x="816" y="184"/>
      <point x="763" y="137"/>
      <point x="639" y="137" type="curve" smooth="yes"/>
      <point x="473" y="137"/>
      <point x="328" y="267"/>
      <point x="328" y="586" type="curve" smooth="yes"/>
      <point x="328" y="968"/>
      <point x="501" y="1063"/>
      <point x="593" y="1063" type="curve" smooth="yes"/>
      <point x="693" y="1063"/>
      <point x="770" y="1013"/>
      <point x="851" y="869" type="curve"/>
      <point x="925" y="852" type="line"/>
      <point x="957" y="881"/>
      <point x="1053" y="1080"/>
    </contour>
  </outline>
</glyph>
<glyph name="H" format="2">
  <advance width="1305"/>
  <unicode hex="0048"/>
  <anchor x="294" y="0" name="H"/>
  <anchor x="644" y="-92" name="L"/>
  <anchor x="644" y="1260" name="U"/>
  <outline>
    <contour>
      <point x="745" y="0" type="line"/>
      <point x="1251" y="0" type="line"/>
      <point x="1251" y="76" type="line"/>
      <point x="1162" y="92"/>
      <point x="1127" y="117"/>
      <point x="1127" y="132" type="curve" smooth="yes"/>
      <point x="1127" y="1025" type="line" smooth="yes"/>
      <point x="1127" y="1043"/>
      <point x="1168" y="1065"/>
      <point x="1251" y="1082" type="curve"/>
      <point x="1251" y="1159" type="line"/>
      <point x="745" y="1159" type="line"/>
      <point x="745" y="1082" type="line"/>
      <point x="833" y="1065"/>
      <point x="869" y="1040"/>
      <point x="869" y="1025" type="curve" smooth="yes"/>
      <point x="869" y="132" type="line" smooth="yes"/>
      <point x="869" y="115"/>
      <point x="828" y="92"/>
      <point x="745" y="76" type="curve"/>
    </contour>
    <contour>
      <point x="392" y="547" type="line"/>
      <point x="887" y="547" type="line"/>
      <point x="887" y="667" type="line"/>
      <point x="392" y="667" type="line"/>
    </contour>
    <contour>
      <point x="36" y="0" type="line"/>
      <point x="542" y="0" type="line"/>
      <point x="542" y="76" type="line"/>
      <point x="453" y="92"/>
      <point x="418" y="117"/>
      <point x="418" y="132" type="curve" smooth="yes"/>
      <point x="418" y="1025" type="line" smooth="yes"/>
      <point x="418" y="1043"/>
      <point x="460" y="1065"/>
      <point x="542" y="1082" type="curve"/>
      <point x="542" y="1159" type="line"/>
      <point x="36" y="1159" type="line"/>
      <point x="36" y="1082" type="line"/>
      <point x="125" y="1065"/>
      <point x="161" y="1040"/>
      <point x="161" y="1025" type="curve" smooth="yes"/>
      <point x="161" y="132" type="line" smooth="yes"/>
      <point x="161" y="115"/>
      <point x="119" y="92"/>
      <point x="36" y="76" type="curve"/>
    </contour>
  </outline>
</glyph>
<glyph name="I" format="2">
  <advance width="649"/>
  <unicode hex="0049"/>
  <anchor x="315" y="0" name="H"/>
  <anchor x="315" y="-92" name="L"/>
  <anchor x="373" y="0" name="O"/>
  <anchor x="564" y="1012" name="R"/>
  <anchor x="315" y="1260" name="U"/>
  <outline>
    <contour>
      <point x="53" y="0" type="line"/>
      <point x="578" y="0" type="line"/>
      <point x="578" y="83" type="line"/>
      <point x="488" y="99"/>
      <point x="455" y="124"/>
      <point x="455" y="139" type="curve" smooth="yes"/>
      <point x="455" y="1018" type="line" smooth="yes"/>
      <point x="455" y="1036"/>
      <point x="495" y="1058"/>
      <point x="578" y="1075" type="curve"/>
      <point x="578" y="1159" type="line"/>
      <point x="53" y="1159" type="line"/>
      <point x="53" y="1075" type="line"/>
      <point x="141" y="1058"/>
      <point x="175" y="1033"/>
      <point x="175" y="1018" type="curve" smooth="yes"/>
      <point x="175" y="139" type="line" smooth="yes"/>
      <point x="175" y="122"/>
      <point x="136" y="99"/>
      <point x="53" y="83" type="curve"/>
    </contour>
  </outline>
</glyph>
<glyph name="J" format="2">
  <advance width="663"/>
  <unicode hex="004A"/>
  <anchor x="339" y="-552" name="L"/>
  <anchor x="339" y="1260" name="U"/>
  <outline>
    <contour>
      <point x="610" y="1075" type="curve"/>
      <point x="610" y="1159" type="line"/>
      <point x="39" y="1159" type="line"/>
      <point x="39" y="1075" type="line"/>
      <point x="186" y="1054"/>
      <point x="207" y="1033"/>
      <point x="207" y="1018" type="curve" smooth="yes"/>
      <point x="207" y="88" type="line" smooth="yes"/>
      <point x="207" y="-199"/>
      <point x="152" y="-225"/>
      <point x="88" y="-225" type="curve" smooth="yes"/>
      <point x="41" y="-225"/>
      <point x="-32" y="-195"/>
      <point x="-100" y="-129" type="curve"/>
      <point x="-134" y="-141"/>
      <point x="-284" y="-278"/>
      <point x="-284" y="-308" type="curve" smooth="yes"/>
      <point x="-284" y="-340"/>
      <point x="-152" y="-404"/>
      <point x="-23" y="-404" type="curve" smooth="yes"/>
      <point x="79" y="-404"/>
      <point x="183" y="-350"/>
      <point x="249" y="-298" type="curve" smooth="yes"/>
      <point x="345" y="-220"/>
      <point x="487" y="-102"/>
      <point x="487" y="156" type="curve" smooth="yes"/>
      <point x="487" y="1018" type="line" smooth="yes"/>
      <point x="487" y="1036"/>
      <point x="527" y="1058"/>
    </contour>
  </outline>
</glyph>
<glyph name="K" format="2">
  <advance width="1210"/>
  <unicode hex="004B"/>
  <anchor x="302" y="0" name="H"/>
  <anchor x="623" y="-92" name="L"/>
  <anchor x="600" y="1260" name="U"/>
  <outline>
    <contour>
      <point x="1153" y="1075" type="curve"/>
      <point x="1153" y="1159" type="line"/>
      <point x="723" y="1159" type="line"/>
      <point x="723" y="1075" type="line"/>
      <point x="820" y="1067"/>
      <point x="814" y="1060"/>
      <point x="757" y="993" type="curve" smooth="yes"/>
      <point x="418" y="591" type="line"/>
      <point x="598" y="591" type="line"/>
      <point x="1019" y="1018" type="line" smooth="yes"/>
      <point x="1058" y="1058"/>
      <point x="1074" y="1065"/>
    </contour>
    <contour>
      <point x="1212" y="56" type="curve"/>
      <point x="1206" y="139" type="line"/>
      <point x="1142" y="132"/>
      <point x="1109" y="133"/>
      <point x="1072" y="171" type="curve" smooth="yes"/>
      <point x="591" y="663" type="line"/>
      <point x="418" y="591" type="line"/>
      <point x="863" y="26" type="line" smooth="yes"/>
      <point x="887" y="-3"/>
      <point x="913" y="-12"/>
      <point x="949" y="-12" type="curve" smooth="yes"/>
      <point x="1008" y="-12"/>
      <point x="1140" y="33"/>
    </contour>
    <contour>
      <point x="34" y="0" type="line"/>
      <point x="558" y="0" type="line"/>
      <point x="558" y="83" type="line"/>
      <point x="470" y="99"/>
      <point x="436" y="124"/>
      <point x="436" y="139" type="curve" smooth="yes"/>
      <point x="436" y="1018" type="line" smooth="yes"/>
      <point x="436" y="1036"/>
      <point x="477" y="1058"/>
      <point x="558" y="1075" type="curve"/>
      <point x="558" y="1159" type="line"/>
      <point x="34" y="1159" type="line"/>
      <point x="34" y="1075" type="line"/>
      <point x="123" y="1058"/>
      <point x="157" y="1033"/>
      <point x="157" y="1018" type="curve" smooth="yes"/>
      <point x="157" y="139" type="line" smooth="yes"/>
      <point x="157" y="122"/>
      <point x="117" y="99"/>
      <point x="34" y="83" type="curve"/>
    </contour>
  </outline>
</glyph>
<glyph name="L" format="2">
  <advance width="995"/>
  <unicode hex="004C"/>
  <anchor x="506" y="0" name="H"/>
  <anchor x="506" y="-92" name="L"/>
  <anchor x="788" y="828" name="R"/>
  <anchor x="475" y="1260" name="U"/>
  <outline>
    <contour>
      <point x="978" y="313" type="curve"/>
      <point x="895" y="339" type="line"/>
      <point x="842" y="197"/>
      <point x="808" y="126"/>
      <point x="695" y="126" type="curve" smooth="yes"/>
      <point x="607" y="126" type="line" smooth="yes"/>
      <point x="473" y="126"/>
      <point x="436" y="151"/>
      <point x="436" y="194" type="curve" smooth="yes"/>
      <point x="436" y="1018" type="line" smooth="yes"/>
      <point x="436" y="1036"/>
      <point x="477" y="1058"/>
      <point x="558" y="1075" type="curve"/>
      <point x="558" y="1159" type="line"/>
      <point x="34" y="1159" type="line"/>
      <point x="34" y="1075" type="line"/>
      <point x="123" y="1058"/>
      <point x="157" y="1033"/>
      <point x="157" y="1018" type="curve" smooth="yes"/>
      <point x="157" y="139" type="line" smooth="yes"/>
      <point x="157" y="122"/>
      <point x="117" y="99"/>
      <point x="34" y="83" type="curve"/>
      <point x="34" y="0" type="line"/>
      <point x="940" y="0" type="line"/>
      <point x="949" y="35"/>
      <point x="969" y="207"/>
    </contour>
  </outline>
</glyph>
<glyph name="M" format="2">
  <advance width="1640"/>
  <unicode hex="004D"/>
  <anchor x="1319" y="0" name="H"/>
  <anchor x="810" y="-92" name="L"/>
  <anchor x="810" y="1260" name="U"/>
  <outline>
    <contour>
      <point x="1059" y="0" type="line"/>
      <point x="1576" y="0" type="line"/>
      <point x="1576" y="83" type="line"/>
      <point x="1488" y="99"/>
      <point x="1443" y="124"/>
      <point x="1443" y="139" type="curve" smooth="yes"/>
      <point x="1434" y="1073" type="line"/>
      <point x="1181" y="1020" type="line"/>
      <point x="1190" y="139" type="line" smooth="yes"/>
      <point x="1190" y="122"/>
      <point x="1142" y="99"/>
      <point x="1059" y="83" type="curve"/>
    </contour>
    <contour>
      <point x="1547" y="1075" type="curve"/>
      <point x="1547" y="1159" type="line"/>
      <point x="1206" y="1159" type="line" smooth="yes"/>
      <point x="1183" y="1159"/>
      <point x="1169" y="1153"/>
      <point x="1136" y="1081" type="curve" smooth="yes"/>
      <point x="747" y="241" type="line" smooth="yes"/>
      <point x="730" y="202"/>
      <point x="768" y="154"/>
      <point x="797" y="0" type="curve"/>
      <point x="800" y="0" type="line"/>
      <point x="1223" y="908" type="line" smooth="yes"/>
      <point x="1269" y="1009"/>
      <point x="1464" y="1075"/>
    </contour>
    <contour>
      <point x="845" y="242" type="curve" smooth="yes"/>
      <point x="475" y="1081" type="line" smooth="yes"/>
      <point x="445" y="1148"/>
      <point x="429" y="1159"/>
      <point x="404" y="1159" type="curve" smooth="yes"/>
      <point x="53" y="1159" type="line"/>
      <point x="53" y="1075" type="line"/>
      <point x="120" y="1075"/>
      <point x="220" y="1052"/>
      <point x="269" y="942" type="curve" smooth="yes"/>
      <point x="689" y="0" type="line"/>
      <point x="797" y="0" type="line"/>
      <point x="827" y="154"/>
      <point x="862" y="205"/>
    </contour>
    <contour>
      <point x="44" y="0" type="line"/>
      <point x="439" y="0" type="line"/>
      <point x="439" y="83" type="line"/>
      <point x="350" y="99"/>
      <point x="316" y="124"/>
      <point x="316" y="139" type="curve" smooth="yes"/>
      <point x="326" y="1079" type="line"/>
      <point x="175" y="1056" type="line"/>
      <point x="166" y="139" type="line" smooth="yes"/>
      <point x="166" y="122"/>
      <point x="127" y="99"/>
      <point x="44" y="83" type="curve"/>
    </contour>
  </outline>
</glyph>
<glyph name="N" format="2">
  <advance width="1266"/>
  <unicode hex="004E"/>
  <anchor x="994" y="0" name="H"/>
  <anchor x="634" y="-92" name="L"/>
  <anchor x="634" y="1260" name="U"/>
  <outline>
    <contour>
      <point x="1232" y="1075" type="curve"/>
      <point x="1232" y="1159" type="line"/>
      <point x="834" y="1159" type="line"/>
      <point x="834" y="1075" type="line"/>
      <point x="932" y="1062"/>
      <point x="956" y="1033"/>
      <point x="956" y="1018" type="curve" smooth="yes"/>
      <point x="956" y="65" type="line"/>
      <point x="1110" y="29" type="line"/>
      <point x="1110" y="1018" type="line" smooth="yes"/>
      <point x="1110" y="1036"/>
      <point x="1144" y="1063"/>
    </contour>
    <contour>
      <point x="1110" y="-27" type="curve"/>
      <point x="1110" y="144" type="line"/>
      <point x="1110" y="144"/>
      <point x="1005" y="270"/>
      <point x="979" y="306" type="curve" smooth="yes"/>
      <point x="417" y="1087" type="line" smooth="yes"/>
      <point x="371" y="1150"/>
      <point x="365" y="1159"/>
      <point x="329" y="1159" type="curve" smooth="yes"/>
      <point x="34" y="1159" type="line"/>
      <point x="34" y="1075" type="line"/>
      <point x="99" y="1065"/>
      <point x="168" y="1005"/>
      <point x="218" y="934" type="curve" smooth="yes"/>
      <point x="824" y="96" type="line" smooth="yes"/>
      <point x="867" y="36"/>
      <point x="960" y="-16"/>
    </contour>
    <contour>
      <point x="34" y="0" type="line"/>
      <point x="434" y="0" type="line"/>
      <point x="434" y="83" type="line"/>
      <point x="339" y="96"/>
      <point x="312" y="124"/>
      <point x="312" y="139" type="curve" smooth="yes"/>
      <point x="312" y="1123" type="line"/>
      <point x="157" y="1056" type="line"/>
      <point x="157" y="139" type="line" smooth="yes"/>
      <point x="157" y="122"/>
      <point x="124" y="94"/>
      <point x="34" y="83" type="curve"/>
    </contour>
  </outline>
</glyph>
<glyph name="O" format="2">
  <advance width="1196"/>
  <unicode hex="004F"/>
  <anchor x="568" y="0" name="H"/>
  <anchor x="599" y="-92" name="L"/>
  <anchor x="661" y="0" name="O"/>
  <anchor x="1155" y="1012" name="R"/>
  <anchor x="599" y="1260" name="U"/>
  <outline>
    <contour>
      <point x="561" y="-27" type="curve" smooth="yes"/>
      <point x="872" y="-27"/>
      <point x="1134" y="262"/>
      <point x="1134" y="595" type="curve" smooth="yes"/>
      <point x="1134" y="895"/>
      <point x="952" y="1186"/>
      <point x="614" y="1186" type="curve" smooth="yes"/>
      <point x="271" y="1186"/>
      <point x="42" y="897"/>
      <point x="42" y="563" type="curve" smooth="yes"/>
      <point x="42" y="253"/>
      <point x="242" y="-27"/>
    </contour>
    <contour>
      <point x="610" y="105" type="curve" smooth="yes"/>
      <point x="454" y="105"/>
      <point x="328" y="314"/>
      <point x="328" y="589" type="curve" smooth="yes"/>
      <point x="328" y="889"/>
      <point x="403" y="1058"/>
      <point x="555" y="1058" type="curve" smooth="yes"/>
      <point x="730" y="1058"/>
      <point x="848" y="832"/>
      <point x="848" y="578" type="curve" smooth="yes"/>
      <point x="848" y="253"/>
      <point x="747" y="105"/>
    </contour>
  </outline>
</glyph>
<glyph name="P" format="2">
  <advance width="1117"/>
  <unicode hex="0050"/>
  <anchor x="540" y="-92" name="L"/>
  <anchor x="540" y="1260" name="U"/>
  <outline>
    <contour>
      <point x="1058" y="861" type="curve" smooth="yes"/>
      <point x="1058" y="1071"/>
      <point x="854" y="1186"/>
      <point x="557" y="1186" type="curve" smooth="yes"/>
      <point x="386" y="1186"/>
      <point x="162" y="1163"/>
      <point x="20" y="1131" type="curve"/>
      <point x="34" y="1030" type="line"/>
      <point x="153" y="1051"/>
      <point x="376" y="1075"/>
      <point x="505" y="1075" type="curve" smooth="yes"/>
      <point x="672" y="1075"/>
      <point x="772" y="981"/>
      <point x="772" y="823" type="curve" smooth="yes"/>
      <point x="772" y="650"/>
      <point x="690" y="583"/>
      <point x="588" y="583" type="curve" smooth="yes"/>
      <point x="544" y="583"/>
      <point x="518" y="588"/>
      <point x="467" y="611" type="curve"/>
      <point x="500" y="497" type="line"/>
      <point x="541" y="479"/>
      <point x="603" y="469"/>
      <point x="659" y="469" type="curve" smooth="yes"/>
      <point x="833" y="469"/>
      <point x="1058" y="606"/>
    </contour>
    <contour>
      <point x="34" y="0" type="line"/>
      <point x="587" y="0" type="line"/>
      <point x="587" y="83" type="line"/>
      <point x="459" y="104"/>
      <point x="436" y="124"/>
      <point x="436" y="139" type="curve" smooth="yes"/>
      <point x="436" y="1079" type="line"/>
      <point x="157" y="1079" type="line"/>
      <point x="157" y="139" type="line" smooth="yes"/>
      <point x="157" y="122"/>
      <point x="117" y="99"/>
      <point x="34" y="83" type="curve"/>
    </contour>
  </outline>
</glyph>
<glyph name="Q" format="2">
  <advance width="1196"/>
  <unicode hex="0051"/>
  <anchor x="631" y="-250" name="L"/>
  <anchor x="631" y="1260" name="U"/>
  <outline>
    <contour>
      <point x="1135" y="595" type="curve" smooth="yes"/>
      <point x="1135" y="895"/>
      <point x="952" y="1186"/>
      <point x="614" y="1186" type="curve" smooth="yes"/>
      <point x="271" y="1186"/>
      <point x="42" y="897"/>
      <point x="42" y="563" type="curve" smooth="yes"/>
      <point x="42" y="256"/>
      <point x="238" y="-27"/>
      <point x="561" y="-27" type="curve" smooth="yes"/>
      <point x="873" y="-27"/>
      <point x="1135" y="262"/>
    </contour>
    <contour>
      <point x="1378" y="-118" type="curve"/>
      <point x="1320" y="-41" type="line"/>
      <point x="1247" y="-97"/>
      <point x="1225" y="-103"/>
      <point x="1195" y="-103" type="curve" smooth="yes"/>
      <point x="1061" y="-103"/>
      <point x="926" y="7"/>
      <point x="741" y="45" type="curve" smooth="yes"/>
      <point x="709" y="50"/>
      <point x="492" y="18"/>
      <point x="492" y="18" type="curve"/>
      <point x="723" y="-14"/>
      <point x="967" y="-314"/>
      <point x="1191" y="-314" type="curve" smooth="yes"/>
      <point x="1227" y="-314"/>
      <point x="1320" y="-225"/>
    </contour>
    <contour>
      <point x="849" y="578" type="curve" smooth="yes"/>
      <point x="849" y="253"/>
      <point x="747" y="105"/>
      <point x="610" y="105" type="curve" smooth="yes"/>
      <point x="455" y="105"/>
      <point x="328" y="314"/>
      <point x="328" y="589" type="curve" smooth="yes"/>
      <point x="328" y="889"/>
      <point x="403" y="1058"/>
      <point x="555" y="1058" type="curve" smooth="yes"/>
      <point x="730" y="1058"/>
      <point x="849" y="832"/>
    </contour>
  </outline>
</glyph>
<glyph name="R" format="2">
  <advance width="1189"/>
  <unicode hex="0052"/>
  <anchor x="302" y="0" name="H"/>
  <anchor x="536" y="-92" name="L"/>
  <anchor x="536" y="1260" name="U"/>
  <outline>
    <contour>
      <point x="1007" y="908" type="curve" smooth="yes"/>
      <point x="1007" y="1066"/>
      <point x="881" y="1186"/>
      <point x="520" y="1186" type="curve" smooth="yes"/>
      <point x="335" y="1186"/>
      <point x="158" y="1160"/>
      <point x="20" y="1131" type="curve"/>
      <point x="34" y="1030" type="line"/>
      <point x="160" y="1050"/>
      <point x="367" y="1075"/>
      <point x="474" y="1075" type="curve" smooth="yes"/>
      <point x="682" y="1075"/>
      <point x="721" y="981"/>
      <point x="721" y="879" type="curve" smooth="yes"/>
      <point x="721" y="740"/>
      <point x="667" y="651"/>
      <point x="518" y="651" type="curve" smooth="yes"/>
      <point x="487" y="651"/>
      <point x="463" y="653"/>
      <point x="420" y="660" type="curve"/>
      <point x="425" y="542" type="line"/>
      <point x="463" y="533"/>
      <point x="500" y="529"/>
      <point x="534" y="529" type="curve" smooth="yes"/>
      <point x="793" y="529"/>
      <point x="1007" y="672"/>
    </contour>
    <contour>
      <point x="1202" y="56" type="curve"/>
      <point x="1186" y="139" type="line"/>
      <point x="1104" y="132"/>
      <point x="1088" y="142"/>
      <point x="1048" y="194" type="curve" smooth="yes"/>
      <point x="707" y="623" type="line"/>
      <point x="545" y="563" type="line"/>
      <point x="817" y="37" type="line"/>
      <point x="834" y="10"/>
      <point x="873" y="-12"/>
      <point x="908" y="-12" type="curve" smooth="yes"/>
      <point x="955" y="-12"/>
      <point x="1121" y="29"/>
    </contour>
    <contour>
      <point x="34" y="0" type="line"/>
      <point x="558" y="0" type="line"/>
      <point x="558" y="83" type="line"/>
      <point x="470" y="99"/>
      <point x="436" y="124"/>
      <point x="436" y="139" type="curve" smooth="yes"/>
      <point x="436" y="1089" type="line"/>
      <point x="157" y="1089" type="line"/>
      <point x="157" y="139" type="line" smooth="yes"/>
      <point x="157" y="122"/>
      <point x="117" y="99"/>
      <point x="34" y="83" type="curve"/>
    </contour>
  </outline>
</glyph>
<glyph name="S" format="2">
  <advance width="1007"/>
  <unicode hex="0053"/>
  <anchor x="488" y="0" name="H"/>
  <anchor x="510" y="-92" name="L"/>
  <anchor x="510" y="1260" name="U"/>
  <outline>
    <contour>
      <point x="795" y="891" type="line"/>
      <point x="825" y="917"/>
      <point x="895" y="1087"/>
      <point x="878" y="1102" type="curve"/>
      <point x="833" y="1150"/>
      <point x="695" y="1186"/>
      <point x="550" y="1186" type="curve" smooth="yes"/>
      <point x="236" y="1186"/>
      <point x="94" y="993"/>
      <point x="94" y="878" type="curve" smooth="yes"/>
      <point x="94" y="522"/>
      <point x="678" y="574"/>
      <point x="678" y="275" type="curve" smooth="yes"/>
      <point x="678" y="158"/>
      <point x="589" y="116"/>
      <point x="478" y="116" type="curve" smooth="yes"/>
      <point x="353" y="116"/>
      <point x="246" y="237"/>
      <point x="190" y="382" type="curve"/>
      <point x="109" y="386" type="line"/>
      <point x="79" y="275"/>
      <point x="81" y="71"/>
      <point x="98" y="62" type="curve"/>
      <point x="184" y="7"/>
      <point x="357" y="-27"/>
      <point x="448" y="-27" type="curve" smooth="yes"/>
      <point x="781" y="-27"/>
      <point x="935" y="183"/>
      <point x="935" y="346" type="curve" smooth="yes"/>
      <point x="935" y="710"/>
      <point x="346" y="712"/>
      <point x="346" y="944" type="curve" smooth="yes"/>
      <point x="346" y="1014"/>
      <point x="393" y="1073"/>
      <point x="507" y="1073" type="curve" smooth="yes"/>
      <point x="576" y="1073"/>
      <point x="673" y="1031"/>
      <point x="718" y="896" type="curve"/>
    </contour>
  </outline>
</glyph>
<glyph name="T" format="2">
  <advance width="1126"/>
  <unicode hex="0054"/>
  <anchor x="546" y="0" name="H"/>
  <anchor x="546" y="-92" name="L"/>
  <anchor x="546" y="1260" name="U"/>
  <outline>
    <contour>
      <point x="1096" y="1125" type="curve"/>
      <point x="1057" y="1159" type="line"/>
      <point x="690" y="1159" type="line"/>
      <point x="663" y="1032" type="line"/>
      <point x="896" y="1032" type="line" smooth="yes"/>
      <point x="949" y="1032"/>
      <point x="947" y="945"/>
      <point x="971" y="831" type="curve"/>
      <point x="1057" y="831" type="line"/>
      <point x="1072" y="908"/>
      <point x="1094" y="1062"/>
    </contour>
    <contour>
      <point x="202" y="1032" type="curve" smooth="yes"/>
      <point x="398" y="1032" type="line"/>
      <point x="395" y="1159" type="line"/>
      <point x="39" y="1159" type="line"/>
      <point x="26" y="1094"/>
      <point x="3" y="921"/>
      <point x="-2" y="849" type="curve"/>
      <point x="82" y="821" type="line"/>
      <point x="137" y="964"/>
      <point x="164" y="1032"/>
    </contour>
    <contour>
      <point x="271" y="0" type="line"/>
      <point x="831" y="0" type="line"/>
      <point x="831" y="83" type="line"/>
      <point x="718" y="106"/>
      <point x="690" y="133"/>
      <point x="690" y="149" type="curve" smooth="yes"/>
      <point x="690" y="1039" type="line" smooth="yes"/>
      <point x="690" y="1055"/>
      <point x="739" y="1058"/>
      <point x="822" y="1075" type="curve"/>
      <point x="822" y="1159" type="line"/>
      <point x="299" y="1159" type="line"/>
      <point x="299" y="1075" type="line"/>
      <point x="388" y="1058"/>
      <point x="410" y="1053"/>
      <point x="410" y="1039" type="curve" smooth="yes"/>
      <point x="410" y="149" type="line" smooth="yes"/>
      <point x="410" y="132"/>
      <point x="384" y="106"/>
      <point x="271" y="83" type="curve"/>
    </contour>
  </outline>
</glyph>
<glyph name="U" format="2">
  <advance width="1275"/>
  <unicode hex="0055"/>
  <anchor x="645" y="0" name="H"/>
  <anchor x="645" y="-92" name="L"/>
  <anchor x="725" y="0" name="O"/>
  <anchor x="1278" y="1012" name="R"/>
  <anchor x="645" y="1260" name="U"/>
  <outline>
    <contour>
      <point x="1228" y="1075" type="curve"/>
      <point x="1228" y="1159" type="line"/>
      <point x="797" y="1159" type="line"/>
      <point x="797" y="1075" type="line"/>
      <point x="886" y="1058"/>
      <point x="920" y="1033"/>
      <point x="920" y="1018" type="curve" smooth="yes"/>
      <point x="920" y="466" type="line" smooth="yes"/>
      <point x="920" y="284"/>
      <point x="878" y="122"/>
      <point x="703" y="122" type="curve" smooth="yes"/>
      <point x="493" y="122"/>
      <point x="436" y="241"/>
      <point x="436" y="476" type="curve" smooth="yes"/>
      <point x="436" y="1018" type="line" smooth="yes"/>
      <point x="436" y="1036"/>
      <point x="477" y="1058"/>
      <point x="558" y="1075" type="curve"/>
      <point x="558" y="1159" type="line"/>
      <point x="34" y="1159" type="line"/>
      <point x="34" y="1075" type="line"/>
      <point x="123" y="1058"/>
      <point x="157" y="1033"/>
      <point x="157" y="1018" type="curve" smooth="yes"/>
      <point x="157" y="408" type="line" smooth="yes"/>
      <point x="157" y="109"/>
      <point x="382" y="-27"/>
      <point x="635" y="-27" type="curve" smooth="yes"/>
      <point x="900" y="-27"/>
      <point x="1105" y="160"/>
      <point x="1105" y="482" type="curve" smooth="yes"/>
      <point x="1105" y="1018" type="line" smooth="yes"/>
      <point x="1105" y="1036"/>
      <point x="1145" y="1058"/>
    </contour>
  </outline>
</glyph>
<glyph name="V" format="2">
  <advance width="1261"/>
  <unicode hex="0056"/>
  <anchor x="619" y="0" name="H"/>
  <anchor x="621" y="-92" name="L"/>
  <anchor x="576" y="0" name="O"/>
  <anchor x="630" y="1260" name="U"/>
  <outline>
    <contour>
      <point x="1150" y="1067"/>
      <point x="1232" y="1082" type="curve"/>
      <point x="1232" y="1159" type="line"/>
      <point x="831" y="1159" type="line"/>
      <point x="831" y="1082" type="line"/>
      <point x="931" y="1070"/>
      <point x="956" y="1058"/>
      <point x="943" y="1022" type="curve" smooth="yes"/>
      <point x="682" y="287" type="line"/>
      <point x="392" y="1023" type="line" smooth="yes"/>
      <point x="379" y="1058"/>
      <point x="403" y="1075"/>
      <point x="501" y="1082" type="curve"/>
      <point x="501" y="1159" type="line"/>
      <point x="9" y="1159" type="line"/>
      <point x="9" y="1082" type="line"/>
      <point x="86" y="1072"/>
      <point x="117" y="1054"/>
      <point x="130" y="1022" type="curve" smooth="yes"/>
      <point x="553" y="-27" type="line"/>
      <point x="622" y="-11"/>
      <point x="727" y="27"/>
      <point x="747" y="81" type="curve" smooth="yes"/>
      <point x="1090" y="1022" type="line" smooth="yes"/>
      <point x="1102" y="1056"/>
    </contour>
  </outline>
</glyph>
<glyph name="W" format="2">
  <advance width="1601"/>
  <unicode hex="0057"/>
  <anchor x="814" y="-92" name="L"/>
  <anchor x="814" y="1260" name="U"/>
  <outline>
    <contour>
      <point x="1609" y="1075" type="curve"/>
      <point x="1609" y="1159" type="line"/>
      <point x="1186" y="1159" type="line"/>
      <point x="1186" y="1075" type="line"/>
      <point x="1269" y="1062"/>
      <point x="1334" y="1047"/>
      <point x="1328" y="1018" type="curve"/>
      <point x="1194" y="428" type="line"/>
      <point x="897" y="1159" type="line"/>
      <point x="780" y="1159" type="line"/>
      <point x="529" y="428" type="line"/>
      <point x="387" y="1011" type="line"/>
      <point x="382" y="1038"/>
      <point x="382" y="1063"/>
      <point x="501" y="1075" type="curve"/>
      <point x="501" y="1159" type="line"/>
      <point x="18" y="1159" type="line"/>
      <point x="18" y="1075" type="line"/>
      <point x="105" y="1060"/>
      <point x="138" y="1041"/>
      <point x="145" y="1011" type="curve" smooth="yes"/>
      <point x="384" y="-27" type="line"/>
      <point x="434" y="-16"/>
      <point x="517" y="1"/>
      <point x="534" y="54" type="curve"/>
      <point x="798" y="768" type="line"/>
      <point x="1121" y="-27" type="line"/>
      <point x="1157" y="-19"/>
      <point x="1248" y="1"/>
      <point x="1259" y="54" type="curve" smooth="yes"/>
      <point x="1469" y="1018" type="line" smooth="yes"/>
      <point x="1473" y="1038"/>
      <point x="1501" y="1053"/>
    </contour>
  </outline>
</glyph>
<glyph name="X" format="2">
  <advance width="1203"/>
  <unicode hex="0058"/>
  <anchor x="602" y="-92" name="L"/>
  <anchor x="602" y="1260" name="U"/>
  <outline>
    <contour>
      <point x="1140" y="1075" type="curve"/>
      <point x="1140" y="1159" type="line"/>
      <point x="723" y="1159" type="line"/>
      <point x="723" y="1075" type="line"/>
      <point x="833" y="1067"/>
      <point x="835" y="1054"/>
      <point x="800" y="998" type="curve" smooth="yes"/>
      <point x="536" y="581" type="line"/>
      <point x="611" y="440" type="line"/>
      <point x="972" y="998" type="line" smooth="yes"/>
      <point x="1005" y="1050"/>
      <point x="1051" y="1065"/>
    </contour>
    <contour>
      <point x="649" y="0" type="line"/>
      <point x="1185" y="0" type="line"/>
      <point x="1185" y="83" type="line"/>
      <point x="1113" y="92"/>
      <point x="1087" y="108"/>
      <point x="1051" y="160" type="curve" smooth="yes"/>
      <point x="475" y="998" type="line" smooth="yes"/>
      <point x="438" y="1051"/>
      <point x="469" y="1065"/>
      <point x="573" y="1075" type="curve"/>
      <point x="573" y="1159" type="line"/>
      <point x="26" y="1159" type="line"/>
      <point x="26" y="1075" type="line"/>
      <point x="107" y="1063"/>
      <point x="132" y="1052"/>
      <point x="170" y="998" type="curve" smooth="yes"/>
      <point x="746" y="160" type="line" smooth="yes"/>
      <point x="780" y="111"/>
      <point x="757" y="94"/>
      <point x="649" y="83" type="curve"/>
    </contour>
    <contour>
      <point x="357" y="160" type="curve" smooth="yes"/>
      <point x="614" y="531" type="line"/>
      <point x="548" y="691" type="line"/>
      <point x="184" y="160" type="line" smooth="yes"/>
      <point x="151" y="112"/>
      <point x="96" y="88"/>
      <point x="17" y="83" type="curve"/>
      <point x="17" y="0" type="line"/>
      <point x="431" y="0" type="line"/>
      <point x="431" y="83" type="line"/>
      <point x="318" y="90"/>
      <point x="320" y="108"/>
    </contour>
  </outline>
</glyph>
<glyph name="Y" format="2">
  <advance width="1174"/>
  <unicode hex="0059"/>
  <anchor x="589" y="-92" name="L"/>
  <anchor x="589" y="1260" name="U"/>
  <outline>
    <contour>
      <point x="1148" y="1075" type="curve"/>
      <point x="1148" y="1159" type="line"/>
      <point x="751" y="1159" type="line"/>
      <point x="751" y="1075" type="line"/>
      <point x="844" y="1063"/>
      <point x="870" y="1047"/>
      <point x="853" y="1015" type="curve"/>
      <point x="657" y="623" type="line"/>
      <point x="571" y="800"/>
      <point x="462" y="999"/>
      <point x="373" y="1121" type="curve" smooth="yes"/>
      <point x="350" y="1150"/>
      <point x="305" y="1168"/>
      <point x="267" y="1168" type="curve" smooth="yes"/>
      <point x="217" y="1168"/>
      <point x="71" y="1148"/>
      <point x="0" y="1137" type="curve"/>
      <point x="3" y="1054" type="line"/>
      <point x="105" y="1054"/>
      <point x="123" y="1042"/>
      <point x="143" y="1015" type="curve" smooth="yes"/>
      <point x="235" y="892"/>
      <point x="382" y="642"/>
      <point x="467" y="438" type="curve"/>
      <point x="712" y="438" type="line"/>
      <point x="1015" y="1015" type="line"/>
      <point x="1033" y="1046"/>
      <point x="1064" y="1060"/>
    </contour>
    <contour>
      <point x="308" y="0" type="line"/>
      <point x="870" y="0" type="line"/>
      <point x="870" y="83" type="line"/>
      <point x="755" y="106"/>
      <point x="729" y="133"/>
      <point x="729" y="149" type="curve" smooth="yes"/>
      <point x="729" y="586" type="line"/>
      <point x="448" y="586" type="line"/>
      <point x="448" y="149" type="line" smooth="yes"/>
      <point x="448" y="132"/>
      <point x="420" y="106"/>
      <point x="308" y="83" type="curve"/>
    </contour>
  </outline>
</glyph>
<glyph name="Z" format="2">
  <advance width="1051"/>
  <unicode hex="005A"/>
  <anchor x="524" y="-92" name="L"/>
  <anchor x="546" y="1260" name="U"/>
  <outline>
    <contour>
      <point x="989" y="358" type="curve"/>
      <point x="893" y="382" type="line"/>
      <point x="846" y="231"/>
      <point x="821" y="135"/>
      <point x="767" y="135" type="curve" smooth="yes"/>
      <point x="386" y="135" type="line"/>
      <point x="979" y="1108" type="line"/>
      <point x="945" y="1159" type="line"/>
      <point x="301" y="1159" type="line" smooth="yes"/>
      <point x="229" y="1159"/>
      <point x="193" y="1159"/>
      <point x="126" y="1173" type="curve"/>
      <point x="88" y="808" type="line"/>
      <point x="186" y="787" type="line"/>
      <point x="212" y="915"/>
      <point x="280" y="1023"/>
      <point x="318" y="1023" type="curve" smooth="yes"/>
      <point x="642" y="1023" type="line"/>
      <point x="43" y="52" type="line"/>
      <point x="80" y="0" type="line"/>
      <point x="978" y="0" type="line"/>
      <point x="979" y="71"/>
      <point x="985" y="279"/>
    </contour>
  </outline>
</glyph>
<glyph name="bracketleft" format="2">
  <advance width="669"/>
  <unicode hex="005B"/>
  <outline>
    <contour>
      <point x="654" y="-195" type="curve"/>
      <point x="611" y="-158" type="line"/>
      <point x="367" y="-158" type="line"/>
      <point x="367" y="1322" type="line"/>
      <point x="616" y="1322" type="line"/>
      <point x="624" y="1337"/>
      <point x="647" y="1406"/>
      <point x="652" y="1436" type="curve"/>
      <point x="611" y="1472" type="line"/>
      <point x="106" y="1472" type="line"/>
      <point x="106" y="-308" type="line"/>
      <point x="616" y="-308" type="line"/>
      <point x="626" y="-287"/>
      <point x="649" y="-219"/>
    </contour>
  </outline>
</glyph>
<glyph name="backslash" format="2">
  <advance width="884"/>
  <unicode hex="005C"/>
  <outline>
    <contour>
      <point x="811" y="-308" type="curve"/>
      <point x="855" y="-274" type="line"/>
      <point x="232" y="1415" type="line"/>
      <point x="198" y="1436"/>
      <point x="109" y="1462"/>
      <point x="73" y="1472" type="curve"/>
      <point x="28" y="1440" type="line"/>
      <point x="651" y="-250" type="line"/>
      <point x="673" y="-266"/>
      <point x="782" y="-299"/>
    </contour>
  </outline>
</glyph>
<glyph name="bracketright" format="2">
  <advance width="579"/>
  <unicode hex="005D"/>
  <outline>
    <contour>
      <point x="59" y="-308" type="line"/>
      <point x="542" y="-308" type="line"/>
      <point x="542" y="1472" type="line"/>
      <point x="54" y="1472" type="line"/>
      <point x="45" y="1450"/>
      <point x="23" y="1389"/>
      <point x="18" y="1365" type="curve"/>
      <point x="59" y="1329" type="line"/>
      <point x="303" y="1329" type="line"/>
      <point x="303" y="-165" type="line"/>
      <point x="54" y="-165" type="line"/>
      <point x="46" y="-180"/>
      <point x="25" y="-244"/>
      <point x="20" y="-275" type="curve"/>
    </contour>
  </outline>
</glyph>
<glyph name="asciicircum" format="2">
  <advance width="927"/>
  <unicode hex="005E"/>
  <anchor x="463" y="1554" name="U"/>
  <outline>
    <contour>
      <point x="834" y="584" type="curve"/>
      <point x="510" y="1426" type="line"/>
      <point x="476" y="1409"/>
      <point x="418" y="1373"/>
      <point x="388" y="1345" type="curve"/>
      <point x="92" y="544" type="line"/>
      <point x="113" y="519" type="line"/>
      <point x="138" y="531"/>
      <point x="186" y="559"/>
      <point x="212" y="584" type="curve"/>
      <point x="442" y="1209" type="line"/>
      <point x="702" y="544" type="line"/>
      <point x="736" y="519" type="line"/>
      <point x="778" y="539"/>
      <point x="804" y="555"/>
    </contour>
  </outline>
</glyph>
<glyph name="underscore" format="2">
  <advance width="985"/>
  <unicode hex="005F"/>
  <outline>
    <contour>
      <point x="0" y="-290" type="line"/>
      <point x="985" y="-290" type="line"/>
      <point x="985" y="-158" type="line"/>
      <point x="0" y="-158" type="line"/>
    </contour>
  </outline>
</glyph>
<glyph name="grave" format="2">
  <advance width="600"/>
  <unicode hex="0060"/>
  <anchor x="300" y="1297" name="U"/>
  <outline>
    <contour>
      <point x="422" y="1002" type="curve"/>
      <point x="235" y="1403" type="line"/>
      <point x="204" y="1401"/>
      <point x="13" y="1365"/>
      <point x="-9" y="1359" type="curve"/>
      <point x="-40" y="1298" type="line"/>
      <point x="327" y="952" type="line"/>
      <point x="348" y="958"/>
      <point x="405" y="987"/>
    </contour>
  </outline>
</glyph>
<glyph name="a" format="2">
  <advance width="986"/>
  <unicode hex="0061"/>
  <anchor x="369" y="0" name="H"/>
  <anchor x="469" y="-92" name="L"/>
  <anchor x="752" y="0" name="O"/>
  <anchor x="986" y="828" name="R"/>
  <anchor x="491" y="966" name="U"/>
  <outline>
    <contour>
      <point x="984" y="119" type="curve"/>
      <point x="959" y="205" type="line"/>
      <point x="910" y="185"/>
      <point x="897" y="180"/>
      <point x="880" y="180" type="curve" smooth="yes"/>
      <point x="858" y="180"/>
      <point x="843" y="200"/>
      <point x="843" y="252" type="curve" smooth="yes"/>
      <point x="843" y="650" type="line" smooth="yes"/>
      <point x="843" y="776"/>
      <point x="767" y="883"/>
      <point x="577" y="883" type="curve" smooth="yes"/>
      <point x="345" y="883"/>
      <point x="127" y="765"/>
      <point x="65" y="605" type="curve"/>
      <point x="89" y="547" type="line"/>
      <point x="120" y="540"/>
      <point x="381" y="609"/>
      <point x="378" y="632" type="curve" smooth="yes"/>
      <point x="371" y="707"/>
      <point x="428" y="747"/>
      <point x="473" y="747" type="curve" smooth="yes"/>
      <point x="550" y="746"/>
      <point x="573" y="696"/>
      <point x="573" y="623" type="curve" smooth="yes"/>
      <point x="573" y="150" type="line" smooth="yes"/>
      <point x="573" y="41"/>
      <point x="613" y="-27"/>
      <point x="668" y="-27" type="curve" smooth="yes"/>
      <point x="720" y="-27"/>
      <point x="880" y="47"/>
    </contour>
    <contour>
      <point x="582" y="426" type="curve"/>
      <point x="582" y="529" type="line"/>
      <point x="270" y="481"/>
      <point x="188" y="428"/>
      <point x="128" y="368" type="curve" smooth="yes"/>
      <point x="83" y="323"/>
      <point x="51" y="269"/>
      <point x="51" y="193" type="curve" smooth="yes"/>
      <point x="51" y="50"/>
      <point x="158" y="-27"/>
      <point x="269" y="-27" type="curve" smooth="yes"/>
      <point x="352" y="-27"/>
      <point x="474" y="2"/>
      <point x="589" y="126" type="curve"/>
      <point x="582" y="249" type="line"/>
      <point x="485" y="165"/>
      <point x="443" y="158"/>
      <point x="412" y="158" type="curve" smooth="yes"/>
      <point x="380" y="158"/>
      <point x="334" y="179"/>
      <point x="334" y="254" type="curve" smooth="yes"/>
      <point x="334" y="303"/>
      <point x="355" y="332"/>
      <point x="387" y="364" type="curve" smooth="yes"/>
      <point x="416" y="392"/>
      <point x="463" y="407"/>
    </contour>
  </outline>
</glyph>
<glyph name="b" format="2">
  <advance width="1045"/>
  <unicode hex="0062"/>
  <anchor x="490" y="0" name="H"/>
  <anchor x="490" y="-92" name="L"/>
  <anchor x="1040" y="828" name="R"/>
  <anchor x="549" y="1490" name="U"/>
  <outline>
    <contour>
      <point x="984" y="475" type="curve" smooth="yes"/>
      <point x="984" y="721"/>
      <point x="874" y="883"/>
      <point x="684" y="883" type="curve" smooth="yes"/>
      <point x="614" y="883"/>
      <point x="499" y="859"/>
      <point x="376" y="778" type="curve"/>
      <point x="376" y="1383" type="line"/>
      <point x="363" y="1398"/>
      <point x="348" y="1411"/>
      <point x="332" y="1426" type="curve"/>
      <point x="229" y="1388"/>
      <point x="133" y="1371"/>
      <point x="-2" y="1352" type="curve"/>
      <point x="-2" y="1271" type="line"/>
      <point x="98" y="1259"/>
      <point x="106" y="1258"/>
      <point x="106" y="1148" type="curve" smooth="yes"/>
      <point x="106" y="88" type="line"/>
      <point x="238" y="25"/>
      <point x="395" y="-27"/>
      <point x="475" y="-27" type="curve" smooth="yes"/>
      <point x="691" y="-27"/>
      <point x="984" y="261"/>
    </contour>
    <contour>
      <point x="733" y="386" type="curve" smooth="yes"/>
      <point x="733" y="244"/>
      <point x="681" y="147"/>
      <point x="565" y="147" type="curve" smooth="yes"/>
      <point x="533" y="147"/>
      <point x="474" y="168"/>
      <point x="376" y="209" type="curve"/>
      <point x="376" y="661" type="line"/>
      <point x="458" y="691"/>
      <point x="500" y="704"/>
      <point x="544" y="704" type="curve" smooth="yes"/>
      <point x="651" y="704"/>
      <point x="733" y="631"/>
    </contour>
  </outline>
</glyph>
<glyph name="c" format="2">
  <advance width="878"/>
  <unicode hex="0063"/>
  <anchor x="481" y="0" name="H"/>
  <anchor x="481" y="-92" name="L"/>
  <anchor x="868" y="828" name="R"/>
  <anchor x="481" y="966" name="U"/>
  <outline>
    <contour>
      <point x="850" y="174" type="curve"/>
      <point x="791" y="246" type="line"/>
      <point x="666" y="161"/>
      <point x="606" y="147"/>
      <point x="537" y="147" type="curve" smooth="yes"/>
      <point x="413" y="147"/>
      <point x="321" y="250"/>
      <point x="321" y="437" type="curve" smooth="yes"/>
      <point x="321" y="679"/>
      <point x="408" y="759"/>
      <point x="503" y="759" type="curve" smooth="yes"/>
      <point x="586" y="759"/>
      <point x="630" y="692"/>
      <point x="683" y="525" type="curve"/>
      <point x="761" y="516" type="line"/>
      <point x="784" y="550"/>
      <point x="853" y="780"/>
      <point x="847" y="810" type="curve"/>
      <point x="806" y="853"/>
      <point x="646" y="883"/>
      <point x="565" y="883" type="curve" smooth="yes"/>
      <point x="256" y="883"/>
      <point x="51" y="672"/>
      <point x="51" y="408" type="curve" smooth="yes"/>
      <point x="51" y="135"/>
      <point x="237" y="-27"/>
      <point x="450" y="-27" type="curve" smooth="yes"/>
      <point x="565" y="-27"/>
      <point x="690" y="-1"/>
    </contour>
  </outline>
</glyph>
<glyph name="d" format="2">
  <advance width="1101"/>
  <unicode hex="0064"/>
  <anchor x="502" y="0" name="H"/>
  <anchor x="531" y="-92" name="L"/>
  <anchor x="1101" y="828" name="R"/>
  <anchor x="531" y="1554" name="U"/>
  <outline>
    <contour>
      <point x="1099" y="121" type="curve"/>
      <point x="1064" y="205" type="line"/>
      <point x="1002" y="176"/>
      <point x="992" y="179"/>
      <point x="976" y="186" type="curve" smooth="yes"/>
      <point x="962" y="191"/>
      <point x="955" y="213"/>
      <point x="955" y="299" type="curve" smooth="yes"/>
      <point x="955" y="1387" type="line"/>
      <point x="916" y="1426" type="line"/>
      <point x="852" y="1405"/>
      <point x="718" y="1379"/>
      <point x="563" y="1366" type="curve"/>
      <point x="563" y="1286" type="line"/>
      <point x="681" y="1278"/>
      <point x="685" y="1263"/>
      <point x="685" y="1128" type="curve" smooth="yes"/>
      <point x="685" y="294" type="line" smooth="yes"/>
      <point x="685" y="98"/>
      <point x="713" y="-27"/>
      <point x="785" y="-27" type="curve" smooth="yes"/>
      <point x="819" y="-27"/>
      <point x="986" y="45"/>
    </contour>
    <contour>
      <point x="753" y="173" type="curve"/>
      <point x="751" y="182"/>
      <point x="723" y="265"/>
      <point x="708" y="273" type="curve"/>
      <point x="621" y="190"/>
      <point x="578" y="180"/>
      <point x="514" y="180" type="curve" smooth="yes"/>
      <point x="413" y="180"/>
      <point x="321" y="284"/>
      <point x="321" y="469" type="curve" smooth="yes"/>
      <point x="321" y="672"/>
      <point x="399" y="748"/>
      <point x="500" y="748" type="curve" smooth="yes"/>
      <point x="582" y="748"/>
      <point x="642" y="704"/>
      <point x="691" y="627" type="curve"/>
      <point x="731" y="649"/>
      <point x="746" y="710"/>
      <point x="746" y="784" type="curve"/>
      <point x="650" y="868"/>
      <point x="580" y="883"/>
      <point x="506" y="883" type="curve" smooth="yes"/>
      <point x="239" y="883"/>
      <point x="51" y="675"/>
      <point x="51" y="408" type="curve" smooth="yes"/>
      <point x="51" y="135"/>
      <point x="224" y="-27"/>
      <point x="405" y="-27" type="curve" smooth="yes"/>
      <point x="526" y="-27"/>
      <point x="585" y="11"/>
    </contour>
  </outline>
</glyph>
<glyph name="e" format="2">
  <advance width="925"/>
  <unicode hex="0065"/>
  <anchor x="490" y="0" name="H"/>
  <anchor x="490" y="-92" name="L"/>
  <anchor x="513" y="0" name="O"/>
  <anchor x="938" y="828" name="R"/>
  <anchor x="500" y="966" name="U"/>
  <outline>
    <contour>
      <point x="848" y="478"/>
      <point x="870" y="503" type="curve"/>
      <point x="870" y="714"/>
      <point x="750" y="883"/>
      <point x="509" y="883" type="curve" smooth="yes"/>
      <point x="407" y="883"/>
      <point x="308" y="842"/>
      <point x="240" y="792" type="curve" smooth="yes"/>
      <point x="115" y="699"/>
      <point x="55" y="574"/>
      <point x="55" y="408" type="curve" smooth="yes"/>
      <point x="55" y="149"/>
      <point x="230" y="-27"/>
      <point x="446" y="-27" type="curve" smooth="yes"/>
      <point x="599" y="-27"/>
      <point x="691" y="9"/>
      <point x="864" y="179" type="curve"/>
      <point x="859" y="188"/>
      <point x="828" y="236"/>
      <point x="812" y="244" type="curve"/>
      <point x="666" y="149"/>
      <point x="607" y="138"/>
      <point x="529" y="138" type="curve" smooth="yes"/>
      <point x="388" y="138"/>
      <point x="312" y="264"/>
      <point x="312" y="448" type="curve" smooth="yes"/>
      <point x="312" y="645"/>
      <point x="345" y="768"/>
      <point x="474" y="768" type="curve" smooth="yes"/>
      <point x="588" y="768"/>
      <point x="627" y="642"/>
      <point x="627" y="566" type="curve" smooth="yes"/>
      <point x="627" y="540"/>
      <point x="620" y="533"/>
      <point x="592" y="533" type="curve" smooth="yes"/>
      <point x="169" y="533" type="line"/>
      <point x="167" y="423" type="line"/>
      <point x="732" y="423" type="line"/>
      <point x="771" y="438"/>
    </contour>
  </outline>
</glyph>
<glyph name="f" format="2">
  <advance width="671"/>
  <unicode hex="0066"/>
  <anchor x="308" y="0" name="H"/>
  <anchor x="299" y="-92" name="L"/>
  <anchor x="475" y="1490" name="U"/>
  <outline>
    <contour>
      <point x="859" y="1337" type="curve" smooth="yes"/>
      <point x="859" y="1358"/>
      <point x="739" y="1426"/>
      <point x="609" y="1426" type="curve" smooth="yes"/>
      <point x="518" y="1426"/>
      <point x="405" y="1382"/>
      <point x="300" y="1275" type="curve" smooth="yes"/>
      <point x="202" y="1172"/>
      <point x="161" y="1034"/>
      <point x="161" y="884" type="curve" smooth="yes"/>
      <point x="161" y="855" type="line"/>
      <point x="101" y="855" type="line"/>
      <point x="30" y="761" type="line"/>
      <point x="60" y="724" type="line"/>
      <point x="161" y="724" type="line"/>
      <point x="161" y="137" type="line" smooth="yes"/>
      <point x="161" y="122"/>
      <point x="127" y="98"/>
      <point x="44" y="83" type="curve"/>
      <point x="44" y="0" type="line"/>
      <point x="614" y="0" type="line"/>
      <point x="614" y="83" type="line"/>
      <point x="470" y="110"/>
      <point x="432" y="122"/>
      <point x="432" y="137" type="curve" smooth="yes"/>
      <point x="432" y="724" type="line"/>
      <point x="530" y="724"/>
      <point x="575" y="706"/>
      <point x="604" y="692" type="curve"/>
      <point x="626" y="713"/>
      <point x="671" y="772"/>
      <point x="694" y="817" type="curve"/>
      <point x="656" y="855" type="line"/>
      <point x="432" y="855" type="line"/>
      <point x="432" y="934" type="line" smooth="yes"/>
      <point x="432" y="1204"/>
      <point x="468" y="1267"/>
      <point x="531" y="1267" type="curve" smooth="yes"/>
      <point x="574" y="1267"/>
      <point x="630" y="1232"/>
      <point x="687" y="1146" type="curve"/>
      <point x="723" y="1164"/>
      <point x="859" y="1283"/>
    </contour>
  </outline>
</glyph>
<glyph name="g" format="2">
  <advance width="1007"/>
  <unicode hex="0067"/>
  <anchor x="496" y="-432" name="H"/>
  <anchor x="496" y="-552" name="L"/>
  <anchor x="1007" y="828" name="R"/>
  <anchor x="496" y="966" name="U"/>
  <outline>
    <contour>
      <point x="992" y="-88" type="curve" smooth="yes"/>
      <point x="992" y="53"/>
      <point x="910" y="105"/>
      <point x="608" y="145" type="curve" smooth="yes"/>
      <point x="417" y="170"/>
      <point x="418" y="184"/>
      <point x="418" y="202" type="curve" smooth="yes"/>
      <point x="418" y="212"/>
      <point x="419" y="248"/>
      <point x="518" y="322" type="curve"/>
      <point x="333" y="306" type="line"/>
      <point x="190" y="214"/>
      <point x="123" y="130"/>
      <point x="123" y="96" type="curve" smooth="yes"/>
      <point x="123" y="38"/>
      <point x="290" y="-25"/>
      <point x="531" y="-58" type="curve" smooth="yes"/>
      <point x="710" y="-83"/>
      <point x="732" y="-131"/>
      <point x="732" y="-166" type="curve" smooth="yes"/>
      <point x="732" y="-227"/>
      <point x="689" y="-297"/>
      <point x="557" y="-297" type="curve" smooth="yes"/>
      <point x="390" y="-297"/>
      <point x="275" y="-234"/>
      <point x="275" y="-163" type="curve" smooth="yes"/>
      <point x="275" y="-122"/>
      <point x="281" y="-75"/>
      <point x="435" y="27" type="curve"/>
      <point x="430" y="52"/>
      <point x="307" y="56"/>
      <point x="307" y="56" type="curve"/>
      <point x="67" y="-67"/>
      <point x="5" y="-132"/>
      <point x="5" y="-199" type="curve" smooth="yes"/>
      <point x="5" y="-377"/>
      <point x="280" y="-448"/>
      <point x="484" y="-448" type="curve" smooth="yes"/>
      <point x="734" y="-448"/>
      <point x="992" y="-245"/>
    </contour>
    <contour>
      <point x="1009" y="844" type="curve"/>
      <point x="980" y="883" type="line"/>
      <point x="923" y="862"/>
      <point x="789" y="817"/>
      <point x="684" y="808" type="curve"/>
      <point x="716" y="716" type="line"/>
      <point x="820" y="711"/>
      <point x="891" y="718"/>
      <point x="957" y="731" type="curve"/>
      <point x="974" y="761"/>
      <point x="1005" y="821"/>
    </contour>
    <contour>
      <point x="863" y="589" type="curve" smooth="yes"/>
      <point x="863" y="748"/>
      <point x="714" y="883"/>
      <point x="501" y="883" type="curve" smooth="yes"/>
      <point x="267" y="883"/>
      <point x="69" y="734"/>
      <point x="69" y="553" type="curve" smooth="yes"/>
      <point x="69" y="382"/>
      <point x="245" y="271"/>
      <point x="471" y="271" type="curve" smooth="yes"/>
      <point x="688" y="271"/>
      <point x="863" y="402"/>
    </contour>
    <contour>
      <point x="602" y="552" type="curve" smooth="yes"/>
      <point x="602" y="440"/>
      <point x="555" y="390"/>
      <point x="484" y="390" type="curve" smooth="yes"/>
      <point x="377" y="390"/>
      <point x="330" y="486"/>
      <point x="330" y="606" type="curve" smooth="yes"/>
      <point x="330" y="716"/>
      <point x="388" y="768"/>
      <point x="448" y="768" type="curve" smooth="yes"/>
      <point x="548" y="768"/>
      <point x="602" y="671"/>
    </contour>
  </outline>
</glyph>
<glyph name="h" format="2">
  <advance width="1128"/>
  <unicode hex="0068"/>
  <anchor x="306" y="0" name="H"/>
  <anchor x="574" y="-92" name="L"/>
  <anchor x="574" y="1490" name="U"/>
  <outline>
    <contour>
      <point x="605" y="0" type="line"/>
      <point x="1110" y="0" type="line"/>
      <point x="1110" y="83" type="line"/>
      <point x="1015" y="108"/>
      <point x="993" y="122"/>
      <point x="993" y="139" type="curve" smooth="yes"/>
      <point x="993" y="626" type="line" smooth="yes"/>
      <point x="993" y="819"/>
      <point x="895" y="883"/>
      <point x="789" y="883" type="curve" smooth="yes"/>
      <point x="694" y="883"/>
      <point x="589" y="863"/>
      <point x="427" y="772" type="curve"/>
      <point x="427" y="1383" type="line"/>
      <point x="383" y="1426" type="line"/>
      <point x="279" y="1390"/>
      <point x="198" y="1371"/>
      <point x="39" y="1352" type="curve"/>
      <point x="39" y="1271" type="line"/>
      <point x="158" y="1258"/>
      <point x="157" y="1252"/>
      <point x="157" y="1150" type="curve" smooth="yes"/>
      <point x="157" y="139" type="line" smooth="yes"/>
      <point x="157" y="119"/>
      <point x="120" y="104"/>
      <point x="39" y="83" type="curve"/>
      <point x="39" y="0" type="line"/>
      <point x="546" y="0" type="line"/>
      <point x="546" y="83" type="line"/>
      <point x="465" y="99"/>
      <point x="427" y="121"/>
      <point x="427" y="139" type="curve" smooth="yes"/>
      <point x="427" y="637" type="line"/>
      <point x="518" y="665"/>
      <point x="565" y="686"/>
      <point x="627" y="686" type="curve" smooth="yes"/>
      <point x="697" y="686"/>
      <point x="722" y="642"/>
      <point x="722" y="493" type="curve" smooth="yes"/>
      <point x="722" y="139" type="line" smooth="yes"/>
      <point x="722" y="122"/>
      <point x="693" y="106"/>
      <point x="605" y="83" type="curve"/>
    </contour>
  </outline>
</glyph>
<glyph name="i" format="2">
  <advance width="599"/>
  <unicode hex="0069"/>
  <anchor x="306" y="0" name="H"/>
  <anchor x="306" y="-92" name="L"/>
  <anchor x="364" y="0" name="O"/>
  <anchor x="599" y="828" name="R"/>
  <anchor x="306" y="966" name="U"/>
  <outline>
    <contour>
      <point x="480" y="1160" type="curve" smooth="yes"/>
      <point x="480" y="1239"/>
      <point x="399" y="1269"/>
      <point x="324" y="1269" type="curve" smooth="yes"/>
      <point x="222" y="1269"/>
      <point x="142" y="1214"/>
      <point x="142" y="1122" type="curve" smooth="yes"/>
      <point x="142" y="1043"/>
      <point x="221" y="1011"/>
      <point x="296" y="1011" type="curve" smooth="yes"/>
      <point x="402" y="1011"/>
      <point x="480" y="1068"/>
    </contour>
    <contour>
      <point x="53" y="0" type="line"/>
      <point x="558" y="0" type="line"/>
      <point x="558" y="83" type="line"/>
      <point x="470" y="99"/>
      <point x="441" y="124"/>
      <point x="441" y="139" type="curve" smooth="yes"/>
      <point x="441" y="883" type="line"/>
      <point x="366" y="883" type="line"/>
      <point x="269" y="852"/>
      <point x="175" y="835"/>
      <point x="53" y="820" type="curve"/>
      <point x="53" y="740" type="line"/>
      <point x="169" y="729"/>
      <point x="170" y="708"/>
      <point x="170" y="582" type="curve" smooth="yes"/>
      <point x="170" y="139" type="line" smooth="yes"/>
      <point x="170" y="122"/>
      <point x="136" y="99"/>
      <point x="53" y="83" type="curve"/>
    </contour>
  </outline>
</glyph>
<glyph name="j" format="2">
  <advance width="576"/>
  <unicode hex="006A"/>
  <anchor x="301" y="-552" name="L"/>
  <anchor x="301" y="966" name="U"/>
  <outline>
    <contour>
      <point x="481" y="1160" type="curve" smooth="yes"/>
      <point x="481" y="1239"/>
      <point x="400" y="1269"/>
      <point x="325" y="1269" type="curve" smooth="yes"/>
      <point x="223" y="1269"/>
      <point x="142" y="1214"/>
      <point x="142" y="1122" type="curve" smooth="yes"/>
      <point x="142" y="1043"/>
      <point x="222" y="1011"/>
      <point x="297" y="1011" type="curve" smooth="yes"/>
      <point x="403" y="1011"/>
      <point x="481" y="1068"/>
    </contour>
    <contour>
      <point x="436" y="102" type="curve"/>
      <point x="436" y="883" type="line"/>
      <point x="358" y="883" type="line"/>
      <point x="247" y="851"/>
      <point x="195" y="839"/>
      <point x="48" y="820" type="curve"/>
      <point x="48" y="740" type="line"/>
      <point x="165" y="727"/>
      <point x="166" y="708"/>
      <point x="166" y="582" type="curve" smooth="yes"/>
      <point x="166" y="39" type="line" smooth="yes"/>
      <point x="166" y="-225"/>
      <point x="123" y="-269"/>
      <point x="63" y="-269" type="curve" smooth="yes"/>
      <point x="16" y="-269"/>
      <point x="-77" y="-228"/>
      <point x="-119" y="-173" type="curve"/>
      <point x="-155" y="-189"/>
      <point x="-302" y="-309"/>
      <point x="-302" y="-352" type="curve" smooth="yes"/>
      <point x="-302" y="-384"/>
      <point x="-157" y="-448"/>
      <point x="-49" y="-448" type="curve" smooth="yes"/>
      <point x="29" y="-448"/>
      <point x="140" y="-396"/>
      <point x="206" y="-345" type="curve" smooth="yes"/>
      <point x="305" y="-272"/>
      <point x="436" y="-180"/>
    </contour>
  </outline>
</glyph>
<glyph name="k" format="2">
  <advance width="1100"/>
  <unicode hex="006B"/>
  <anchor x="285" y="0" name="H"/>
  <anchor x="578" y="-92" name="L"/>
  <anchor x="1100" y="828" name="R"/>
  <anchor x="578" y="1490" name="U"/>
  <outline>
    <contour>
      <point x="1079" y="772" type="curve"/>
      <point x="1079" y="855" type="line"/>
      <point x="632" y="855" type="line"/>
      <point x="632" y="772" type="line"/>
      <point x="696" y="772"/>
      <point x="729" y="763"/>
      <point x="649" y="691" type="curve" smooth="yes"/>
      <point x="422" y="483" type="line"/>
      <point x="570" y="456" type="line"/>
      <point x="911" y="704" type="line" smooth="yes"/>
      <point x="964" y="742"/>
      <point x="1025" y="766"/>
    </contour>
    <contour>
      <point x="44" y="0" type="line"/>
      <point x="533" y="0" type="line"/>
      <point x="533" y="83" type="line"/>
      <point x="442" y="111"/>
      <point x="432" y="121"/>
      <point x="432" y="139" type="curve" smooth="yes"/>
      <point x="432" y="1383" type="line"/>
      <point x="387" y="1426" type="line"/>
      <point x="292" y="1388"/>
      <point x="184" y="1369"/>
      <point x="44" y="1352" type="curve"/>
      <point x="44" y="1271" type="line"/>
      <point x="150" y="1259"/>
      <point x="162" y="1258"/>
      <point x="162" y="1148" type="curve" smooth="yes"/>
      <point x="162" y="139" type="line" smooth="yes"/>
      <point x="162" y="117"/>
      <point x="125" y="104"/>
      <point x="44" y="83" type="curve"/>
    </contour>
    <contour>
      <point x="1112" y="38" type="curve"/>
      <point x="1106" y="122" type="line"/>
      <point x="1034" y="116"/>
      <point x="1011" y="117"/>
      <point x="976" y="157" type="curve" smooth="yes"/>
      <point x="619" y="553" type="line"/>
      <point x="424" y="483" type="line"/>
      <point x="748" y="39" type="line" smooth="yes"/>
      <point x="775" y="3"/>
      <point x="813" y="-9"/>
      <point x="865" y="-9" type="curve" smooth="yes"/>
      <point x="891" y="-9"/>
      <point x="1040" y="22"/>
    </contour>
  </outline>
</glyph>
<glyph name="l" format="2">
  <advance width="599"/>
  <unicode hex="006C"/>
  <anchor x="306" y="0" name="H"/>
  <anchor x="306" y="-92" name="L"/>
  <anchor x="580" y="828" name="R"/>
  <anchor x="306" y="1554" name="U"/>
  <outline>
    <contour>
      <point x="44" y="0" type="line"/>
      <point x="569" y="0" type="line"/>
      <point x="569" y="83" type="line"/>
      <point x="468" y="99"/>
      <point x="441" y="121"/>
      <point x="441" y="139" type="curve" smooth="yes"/>
      <point x="441" y="1383" type="line"/>
      <point x="396" y="1426" type="line"/>
      <point x="288" y="1386"/>
      <point x="196" y="1369"/>
      <point x="53" y="1352" type="curve"/>
      <point x="53" y="1271" type="line"/>
      <point x="156" y="1259"/>
      <point x="170" y="1257"/>
      <point x="170" y="1148" type="curve" smooth="yes"/>
      <point x="170" y="139" type="line" smooth="yes"/>
      <point x="170" y="119"/>
      <point x="149" y="101"/>
      <point x="44" y="83" type="curve"/>
    </contour>
  </outline>
</glyph>
<glyph name="m" format="2">
  <advance width="1634"/>
  <unicode hex="006D"/>
  <anchor x="1354" y="0" name="H"/>
  <anchor x="828" y="-92" name="L"/>
  <anchor x="828" y="966" name="U"/>
  <outline>
    <contour>
      <point x="1123" y="0" type="line"/>
      <point x="1619" y="0" type="line"/>
      <point x="1619" y="83" type="line"/>
      <point x="1522" y="108"/>
      <point x="1489" y="122"/>
      <point x="1489" y="139" type="curve" smooth="yes"/>
      <point x="1489" y="626" type="line" smooth="yes"/>
      <point x="1489" y="819"/>
      <point x="1379" y="883"/>
      <point x="1262" y="883" type="curve" smooth="yes"/>
      <point x="1172" y="883"/>
      <point x="1095" y="878"/>
      <point x="937" y="780" type="curve"/>
      <point x="932" y="788" type="line" smooth="yes"/>
      <point x="909" y="816"/>
      <point x="859" y="883"/>
      <point x="742" y="883" type="curve" smooth="yes"/>
      <point x="654" y="883"/>
      <point x="578" y="880"/>
      <point x="423" y="783" type="curve"/>
      <point x="413" y="839" type="line"/>
      <point x="371" y="883" type="line"/>
      <point x="271" y="851"/>
      <point x="187" y="835"/>
      <point x="39" y="820" type="curve"/>
      <point x="39" y="740" type="line"/>
      <point x="158" y="725"/>
      <point x="157" y="719"/>
      <point x="157" y="620" type="curve" smooth="yes"/>
      <point x="157" y="139" type="line" smooth="yes"/>
      <point x="157" y="119"/>
      <point x="120" y="104"/>
      <point x="39" y="83" type="curve"/>
      <point x="39" y="0" type="line"/>
      <point x="534" y="0" type="line"/>
      <point x="534" y="83" type="line"/>
      <point x="455" y="99"/>
      <point x="427" y="121"/>
      <point x="427" y="139" type="curve" smooth="yes"/>
      <point x="427" y="659" type="line"/>
      <point x="509" y="692"/>
      <point x="567" y="695"/>
      <point x="606" y="695" type="curve" smooth="yes"/>
      <point x="670" y="695"/>
      <point x="688" y="689"/>
      <point x="688" y="538" type="curve" smooth="yes"/>
      <point x="688" y="139" type="line" smooth="yes"/>
      <point x="688" y="122"/>
      <point x="682" y="106"/>
      <point x="593" y="83" type="curve"/>
      <point x="593" y="0" type="line"/>
      <point x="1066" y="0" type="line"/>
      <point x="1066" y="83" type="line"/>
      <point x="970" y="108"/>
      <point x="958" y="122"/>
      <point x="958" y="139" type="curve" smooth="yes"/>
      <point x="958" y="659" type="line"/>
      <point x="1028" y="691"/>
      <point x="1089" y="695"/>
      <point x="1126" y="695" type="curve" smooth="yes"/>
      <point x="1188" y="695"/>
      <point x="1219" y="689"/>
      <point x="1219" y="538" type="curve" smooth="yes"/>
      <point x="1219" y="139" type="line" smooth="yes"/>
      <point x="1219" y="122"/>
      <point x="1213" y="106"/>
      <point x="1123" y="83" type="curve"/>
    </contour>
  </outline>
</glyph>
<glyph name="n" format="2">
  <advance width="1128"/>
  <unicode hex="006E"/>
  <anchor x="858" y="0" name="H"/>
  <anchor x="574" y="-92" name="L"/>
  <anchor x="574" y="966" name="U"/>
  <outline>
    <contour>
      <point x="605" y="0" type="line"/>
      <point x="1110" y="0" type="line"/>
      <point x="1110" y="83" type="line"/>
      <point x="1015" y="108"/>
      <point x="993" y="122"/>
      <point x="993" y="139" type="curve" smooth="yes"/>
      <point x="993" y="626" type="line" smooth="yes"/>
      <point x="993" y="819"/>
      <point x="895" y="883"/>
      <point x="789" y="883" type="curve" smooth="yes"/>
      <point x="694" y="883"/>
      <point x="587" y="863"/>
      <point x="423" y="765" type="curve"/>
      <point x="413" y="839" type="line"/>
      <point x="371" y="883" type="line"/>
      <point x="269" y="849"/>
      <point x="177" y="833"/>
      <point x="39" y="820" type="curve"/>
      <point x="39" y="740" type="line"/>
      <point x="157" y="725"/>
      <point x="157" y="717"/>
      <point x="157" y="620" type="curve" smooth="yes"/>
      <point x="157" y="139" type="line" smooth="yes"/>
      <point x="157" y="119"/>
      <point x="120" y="104"/>
      <point x="39" y="83" type="curve"/>
      <point x="39" y="0" type="line"/>
      <point x="546" y="0" type="line"/>
      <point x="546" y="83" type="line"/>
      <point x="465" y="99"/>
      <point x="427" y="121"/>
      <point x="427" y="139" type="curve" smooth="yes"/>
      <point x="427" y="637" type="line"/>
      <point x="546" y="684"/>
      <point x="590" y="686"/>
      <point x="638" y="686" type="curve" smooth="yes"/>
      <point x="702" y="686"/>
      <point x="722" y="642"/>
      <point x="722" y="516" type="curve" smooth="yes"/>
      <point x="722" y="139" type="line" smooth="yes"/>
      <point x="722" y="122"/>
      <point x="693" y="106"/>
      <point x="605" y="83" type="curve"/>
    </contour>
  </outline>
</glyph>
<glyph name="o" format="2">
  <advance width="1013"/>
  <unicode hex="006F"/>
  <anchor x="527" y="0" name="H"/>
  <anchor x="527" y="-92" name="L"/>
  <anchor x="569" y="0" name="O"/>
  <anchor x="1010" y="828" name="R"/>
  <anchor x="527" y="966" name="U"/>
  <outline>
    <contour>
      <point x="962" y="446" type="curve" smooth="yes"/>
      <point x="962" y="697"/>
      <point x="789" y="883"/>
      <point x="524" y="883" type="curve" smooth="yes"/>
      <point x="239" y="883"/>
      <point x="51" y="652"/>
      <point x="51" y="408" type="curve" smooth="yes"/>
      <point x="51" y="158"/>
      <point x="224" y="-27"/>
      <point x="488" y="-27" type="curve" smooth="yes"/>
      <point x="746" y="-27"/>
      <point x="962" y="201"/>
    </contour>
    <contour>
      <point x="676" y="396" type="curve" smooth="yes"/>
      <point x="676" y="197"/>
      <point x="644" y="96"/>
      <point x="514" y="96" type="curve" smooth="yes"/>
      <point x="402" y="96"/>
      <point x="337" y="241"/>
      <point x="337" y="435" type="curve" smooth="yes"/>
      <point x="337" y="619"/>
      <point x="367" y="759"/>
      <point x="499" y="759" type="curve" smooth="yes"/>
      <point x="625" y="759"/>
      <point x="676" y="590"/>
    </contour>
  </outline>
</glyph>
<glyph name="p" format="2">
  <advance width="1086"/>
  <unicode hex="0070"/>
  <anchor x="295" y="-442" name="H"/>
  <anchor x="730" y="-92" name="L"/>
  <anchor x="1078" y="828" name="R"/>
  <anchor x="536" y="966" name="U"/>
  <outline>
    <contour>
      <point x="671" y="-27" type="curve" smooth="yes"/>
      <point x="807" y="-27"/>
      <point x="1034" y="205"/>
      <point x="1034" y="463" type="curve" smooth="yes"/>
      <point x="1034" y="765"/>
      <point x="879" y="883"/>
      <point x="712" y="883" type="curve" smooth="yes"/>
      <point x="642" y="883"/>
      <point x="566" y="871"/>
      <point x="421" y="768" type="curve"/>
      <point x="413" y="839" type="line"/>
      <point x="371" y="883" type="line"/>
      <point x="265" y="849"/>
      <point x="212" y="839"/>
      <point x="39" y="820" type="curve"/>
      <point x="39" y="740" type="line"/>
      <point x="156" y="733"/>
      <point x="157" y="712"/>
      <point x="157" y="620" type="curve" smooth="yes"/>
      <point x="157" y="-301" type="line" smooth="yes"/>
      <point x="157" y="-322"/>
      <point x="120" y="-338"/>
      <point x="39" y="-358" type="curve"/>
      <point x="39" y="-441" type="line"/>
      <point x="582" y="-441" type="line"/>
      <point x="582" y="-358" type="line"/>
      <point x="467" y="-340"/>
      <point x="427" y="-320"/>
      <point x="427" y="-301" type="curve" smooth="yes"/>
      <point x="427" y="67" type="line"/>
      <point x="547" y="-6"/>
      <point x="601" y="-27"/>
    </contour>
    <contour>
      <point x="573" y="702" type="curve" smooth="yes"/>
      <point x="669" y="702"/>
      <point x="778" y="638"/>
      <point x="778" y="391" type="curve" smooth="yes"/>
      <point x="778" y="237"/>
      <point x="732" y="147"/>
      <point x="659" y="147" type="curve" smooth="yes"/>
      <point x="603" y="147"/>
      <point x="570" y="145"/>
      <point x="427" y="218" type="curve"/>
      <point x="427" y="661" type="line"/>
      <point x="535" y="708"/>
      <point x="529" y="702"/>
    </contour>
  </outline>
</glyph>
<glyph name="q" format="2">
  <advance width="1070"/>
  <unicode hex="0071"/>
  <anchor x="308" y="-92" name="L"/>
  <anchor x="1065" y="828" name="R"/>
  <anchor x="556" y="966" name="U"/>
  <outline>
    <contour>
      <point x="517" y="-441" type="line"/>
      <point x="1061" y="-441" type="line"/>
      <point x="1061" y="-358" type="line"/>
      <point x="967" y="-340"/>
      <point x="944" y="-320"/>
      <point x="944" y="-301" type="curve" smooth="yes"/>
      <point x="944" y="627" type="line" smooth="yes"/>
      <point x="944" y="738"/>
      <point x="973" y="844"/>
      <point x="973" y="844" type="curve"/>
      <point x="933" y="883" type="line"/>
      <point x="903" y="852"/>
      <point x="713" y="759"/>
      <point x="674" y="746" type="curve"/>
      <point x="674" y="-301" type="line" smooth="yes"/>
      <point x="674" y="-322"/>
      <point x="632" y="-340"/>
      <point x="517" y="-358" type="curve"/>
    </contour>
    <contour>
      <point x="742" y="173" type="curve"/>
      <point x="736" y="182"/>
      <point x="712" y="265"/>
      <point x="697" y="273" type="curve"/>
      <point x="610" y="190"/>
      <point x="567" y="180"/>
      <point x="503" y="180" type="curve" smooth="yes"/>
      <point x="401" y="180"/>
      <point x="321" y="271"/>
      <point x="321" y="480" type="curve" smooth="yes"/>
      <point x="321" y="678"/>
      <point x="385" y="748"/>
      <point x="489" y="748" type="curve" smooth="yes"/>
      <point x="548" y="748"/>
      <point x="642" y="693"/>
      <point x="680" y="615" type="curve"/>
      <point x="720" y="639"/>
      <point x="734" y="699"/>
      <point x="734" y="772" type="curve"/>
      <point x="639" y="868"/>
      <point x="580" y="883"/>
      <point x="506" y="883" type="curve" smooth="yes"/>
      <point x="416" y="883"/>
      <point x="308" y="839"/>
      <point x="239" y="789" type="curve" smooth="yes"/>
      <point x="152" y="728"/>
      <point x="51" y="623"/>
      <point x="51" y="408" type="curve" smooth="yes"/>
      <point x="51" y="135"/>
      <point x="224" y="-27"/>
      <point x="371" y="-27" type="curve" smooth="yes"/>
      <point x="503" y="-27"/>
      <point x="574" y="11"/>
    </contour>
  </outline>
</glyph>
<glyph name="r" format="2">
  <advance width="889"/>
  <unicode hex="0072"/>
  <anchor x="284" y="0" name="H"/>
  <anchor x="284" y="-92" name="L"/>
  <anchor x="491" y="966" name="U"/>
  <outline>
    <contour>
      <point x="863" y="837" type="curve" smooth="yes"/>
      <point x="819" y="863"/>
      <point x="760" y="883"/>
      <point x="709" y="883" type="curve" smooth="yes"/>
      <point x="603" y="883"/>
      <point x="491" y="822"/>
      <point x="425" y="752" type="curve"/>
      <point x="413" y="839" type="line"/>
      <point x="371" y="883" type="line"/>
      <point x="244" y="849"/>
      <point x="207" y="841"/>
      <point x="39" y="820" type="curve"/>
      <point x="39" y="740" type="line"/>
      <point x="107" y="735"/>
      <point x="119" y="730"/>
      <point x="135" y="715" type="curve" smooth="yes"/>
      <point x="146" y="704"/>
      <point x="157" y="678"/>
      <point x="157" y="597" type="curve" smooth="yes"/>
      <point x="157" y="139" type="line" smooth="yes"/>
      <point x="157" y="119"/>
      <point x="120" y="101"/>
      <point x="39" y="83" type="curve"/>
      <point x="39" y="0" type="line"/>
      <point x="594" y="0" type="line"/>
      <point x="594" y="83" type="line"/>
      <point x="479" y="99"/>
      <point x="427" y="121"/>
      <point x="427" y="139" type="curve" smooth="yes"/>
      <point x="427" y="566" type="line"/>
      <point x="508" y="697"/>
      <point x="561" y="688"/>
      <point x="604" y="688" type="curve" smooth="yes"/>
      <point x="671" y="688"/>
      <point x="703" y="577"/>
      <point x="706" y="478" type="curve"/>
      <point x="790" y="478" type="line"/>
      <point x="820" y="544"/>
      <point x="886" y="824"/>
    </contour>
  </outline>
</glyph>
<glyph name="s" format="2">
  <advance width="809"/>
  <unicode hex="0073"/>
  <anchor x="390" y="0" name="H"/>
  <anchor x="403" y="-92" name="L"/>
  <anchor x="403" y="966" name="U"/>
  <outline>
    <contour>
      <point x="744" y="0"/>
      <point x="744" y="260" type="curve" smooth="yes"/>
      <point x="744" y="397"/>
      <point x="625" y="460"/>
      <point x="518" y="514" type="curve" smooth="yes"/>
      <point x="379" y="585"/>
      <point x="306" y="620"/>
      <point x="306" y="699" type="curve" smooth="yes"/>
      <point x="306" y="749"/>
      <point x="345" y="782"/>
      <point x="417" y="782" type="curve" smooth="yes"/>
      <point x="505" y="782"/>
      <point x="562" y="713"/>
      <point x="583" y="598" type="curve"/>
      <point x="655" y="591" type="line"/>
      <point x="690" y="638"/>
      <point x="726" y="800"/>
      <point x="711" y="812" type="curve" smooth="yes"/>
      <point x="652" y="855"/>
      <point x="537" y="883"/>
      <point x="423" y="883" type="curve" smooth="yes"/>
      <point x="247" y="883"/>
      <point x="76" y="787"/>
      <point x="76" y="634" type="curve" smooth="yes"/>
      <point x="76" y="517"/>
      <point x="193" y="448"/>
      <point x="295" y="394" type="curve" smooth="yes"/>
      <point x="407" y="335"/>
      <point x="514" y="279"/>
      <point x="514" y="181" type="curve" smooth="yes"/>
      <point x="514" y="117"/>
      <point x="474" y="92"/>
      <point x="391" y="92" type="curve" smooth="yes"/>
      <point x="291" y="92"/>
      <point x="203" y="174"/>
      <point x="170" y="314" type="curve"/>
      <point x="84" y="324" type="line"/>
      <point x="57" y="223"/>
      <point x="62" y="48"/>
      <point x="78" y="39" type="curve" smooth="yes"/>
      <point x="160" y="-7"/>
      <point x="277" y="-27"/>
      <point x="363" y="-27" type="curve" smooth="yes"/>
      <point x="481" y="-27"/>
    </contour>
  </outline>
</glyph>
<glyph name="t" format="2">
  <advance width="713"/>
  <unicode hex="0074"/>
  <anchor x="347" y="0" name="H"/>
  <anchor x="347" y="-92" name="L"/>
  <anchor x="524" y="828" name="R"/>
  <anchor x="347" y="1214" name="U"/>
  <outline>
    <contour>
      <point x="519" y="27"/>
      <point x="695" y="153" type="curve"/>
      <point x="650" y="228" type="line"/>
      <point x="545" y="170"/>
      <point x="500" y="156"/>
      <point x="457" y="156" type="curve" smooth="yes"/>
      <point x="420" y="156"/>
      <point x="386" y="199"/>
      <point x="386" y="319" type="curve" smooth="yes"/>
      <point x="386" y="731" type="line"/>
      <point x="452" y="731" type="line" smooth="yes"/>
      <point x="506" y="731"/>
      <point x="573" y="713"/>
      <point x="602" y="699" type="curve"/>
      <point x="627" y="719"/>
      <point x="672" y="776"/>
      <point x="695" y="819" type="curve"/>
      <point x="659" y="855" type="line"/>
      <point x="386" y="855" type="line"/>
      <point x="386" y="1154" type="line"/>
      <point x="348" y="1186" type="line"/>
      <point x="138" y="1035" type="line"/>
      <point x="138" y="855" type="line"/>
      <point x="71" y="855" type="line"/>
      <point x="0" y="766" type="line"/>
      <point x="28" y="731" type="line"/>
      <point x="138" y="731" type="line"/>
      <point x="138" y="230" type="line" smooth="yes"/>
      <point x="138" y="59"/>
      <point x="230" y="-27"/>
      <point x="343" y="-27" type="curve" smooth="yes"/>
      <point x="407" y="-27"/>
    </contour>
  </outline>
</glyph>
<glyph name="u" format="2">
  <advance width="1098"/>
  <unicode hex="0075"/>
  <anchor x="486" y="0" name="H"/>
  <anchor x="548" y="-92" name="L"/>
  <anchor x="820" y="0" name="O"/>
  <anchor x="1208" y="828" name="R"/>
  <anchor x="548" y="966" name="U"/>
  <outline>
    <contour>
      <point x="1093" y="119" type="curve"/>
      <point x="1062" y="205" type="line"/>
      <point x="1000" y="178"/>
      <point x="986" y="173"/>
      <point x="972" y="184" type="curve" smooth="yes"/>
      <point x="956" y="197"/>
      <point x="951" y="202"/>
      <point x="951" y="277" type="curve" smooth="yes"/>
      <point x="951" y="836" type="line"/>
      <point x="914" y="883" type="line"/>
      <point x="813" y="861"/>
      <point x="707" y="844"/>
      <point x="563" y="833" type="curve"/>
      <point x="563" y="753" type="line"/>
      <point x="676" y="746"/>
      <point x="681" y="730"/>
      <point x="681" y="620" type="curve" smooth="yes"/>
      <point x="681" y="241" type="line"/>
      <point x="584" y="169"/>
      <point x="525" y="160"/>
      <point x="490" y="160" type="curve" smooth="yes"/>
      <point x="435" y="160"/>
      <point x="404" y="179"/>
      <point x="404" y="318" type="curve" smooth="yes"/>
      <point x="404" y="836" type="line"/>
      <point x="368" y="883" type="line"/>
      <point x="253" y="851"/>
      <point x="169" y="844"/>
      <point x="26" y="833" type="curve"/>
      <point x="26" y="753" type="line"/>
      <point x="134" y="742"/>
      <point x="134" y="738"/>
      <point x="134" y="620" type="curve" smooth="yes"/>
      <point x="134" y="256" type="line" smooth="yes"/>
      <point x="134" y="26"/>
      <point x="261" y="-27"/>
      <point x="375" y="-27" type="curve" smooth="yes"/>
      <point x="453" y="-27"/>
      <point x="528" y="-11"/>
      <point x="681" y="108" type="curve"/>
      <point x="699" y="-17"/>
      <point x="749" y="-27"/>
      <point x="793" y="-27" type="curve" smooth="yes"/>
      <point x="823" y="-27"/>
      <point x="1003" y="60"/>
    </contour>
  </outline>
</glyph>
<glyph name="v" format="2">
  <advance width="973"/>
  <unicode hex="0076"/>
  <anchor x="475" y="0" name="H"/>
  <anchor x="497" y="-92" name="L"/>
  <anchor x="441" y="0" name="O"/>
  <anchor x="516" y="966" name="U"/>
  <outline>
    <contour>
      <point x="964" y="772" type="curve"/>
      <point x="964" y="855" type="line"/>
      <point x="667" y="855" type="line"/>
      <point x="667" y="772" type="line"/>
      <point x="746" y="758"/>
      <point x="746" y="746"/>
      <point x="730" y="709" type="curve" smooth="yes"/>
      <point x="560" y="323" type="line"/>
      <point x="379" y="709" type="line" smooth="yes"/>
      <point x="362" y="747"/>
      <point x="367" y="760"/>
      <point x="462" y="772" type="curve"/>
      <point x="462" y="855" type="line"/>
      <point x="7" y="855" type="line"/>
      <point x="7" y="772" type="line"/>
      <point x="67" y="758"/>
      <point x="83" y="742"/>
      <point x="98" y="709" type="curve" smooth="yes"/>
      <point x="435" y="-27" type="line"/>
      <point x="511" y="-9"/>
      <point x="592" y="32"/>
      <point x="614" y="86" type="curve" smooth="yes"/>
      <point x="874" y="709" type="line" smooth="yes"/>
      <point x="889" y="743"/>
      <point x="894" y="754"/>
    </contour>
  </outline>
</glyph>
<glyph name="w" format="2">
  <advance width="1362"/>
  <unicode hex="0077"/>
  <anchor x="688" y="-92" name="L"/>
  <anchor x="706" y="966" name="U"/>
  <outline>
    <contour>
      <point x="1354" y="772" type="curve"/>
      <point x="1354" y="855" type="line"/>
      <point x="1055" y="855" type="line"/>
      <point x="1055" y="772" type="line"/>
      <point x="1140" y="758"/>
      <point x="1128" y="741"/>
      <point x="1119" y="715" type="curve" smooth="yes"/>
      <point x="1003" y="370" type="line"/>
      <point x="776" y="855" type="line"/>
      <point x="761" y="855"/>
      <point x="707" y="855"/>
      <point x="707" y="855" type="curve"/>
      <point x="644" y="530" type="line"/>
      <point x="923" y="-27" type="line"/>
      <point x="954" y="-20"/>
      <point x="1043" y="0"/>
      <point x="1059" y="54" type="curve"/>
      <point x="1262" y="715" type="line" smooth="yes"/>
      <point x="1273" y="743"/>
      <point x="1290" y="754"/>
    </contour>
    <contour>
      <point x="493" y="54" type="curve"/>
      <point x="771" y="670" type="line"/>
      <point x="774" y="855" type="line"/>
      <point x="774" y="855"/>
      <point x="718" y="855"/>
      <point x="701" y="855" type="curve"/>
      <point x="485" y="370" type="line"/>
      <point x="368" y="715" type="line"/>
      <point x="360" y="738"/>
      <point x="363" y="760"/>
      <point x="462" y="772" type="curve"/>
      <point x="462" y="855" type="line"/>
      <point x="7" y="855" type="line"/>
      <point x="7" y="772" type="line"/>
      <point x="67" y="758"/>
      <point x="100" y="736"/>
      <point x="107" y="715" type="curve" smooth="yes"/>
      <point x="359" y="-27" type="line"/>
      <point x="391" y="-20"/>
      <point x="474" y="-1"/>
    </contour>
  </outline>
</glyph>
<glyph name="x" format="2">
  <advance width="1002"/>
  <unicode hex="0078"/>
  <anchor x="776" y="0" name="H"/>
  <anchor x="498" y="-92" name="L"/>
  <anchor x="498" y="966" name="U"/>
  <outline>
    <contour>
      <point x="959" y="772" type="curve"/>
      <point x="959" y="855" type="line"/>
      <point x="608" y="855" type="line"/>
      <point x="608" y="772" type="line"/>
      <point x="684" y="764"/>
      <point x="691" y="753"/>
      <point x="644" y="695" type="curve" smooth="yes"/>
      <point x="448" y="457" type="line"/>
      <point x="552" y="386" type="line"/>
      <point x="801" y="695" type="line" smooth="yes"/>
      <point x="837" y="738"/>
      <point x="859" y="764"/>
    </contour>
    <contour>
      <point x="487" y="0" type="line"/>
      <point x="989" y="0" type="line"/>
      <point x="989" y="83" type="line"/>
      <point x="908" y="94"/>
      <point x="880" y="127"/>
      <point x="853" y="164" type="curve"/>
      <point x="475" y="695" type="line" smooth="yes"/>
      <point x="433" y="755"/>
      <point x="439" y="764"/>
      <point x="514" y="772" type="curve"/>
      <point x="514" y="855" type="line"/>
      <point x="17" y="855" type="line"/>
      <point x="17" y="772" type="line"/>
      <point x="105" y="764"/>
      <point x="130" y="739"/>
      <point x="162" y="695" type="curve" smooth="yes"/>
      <point x="544" y="158" type="line" smooth="yes"/>
      <point x="592" y="92"/>
      <point x="548" y="88"/>
      <point x="487" y="83" type="curve"/>
    </contour>
    <contour>
      <point x="310" y="158" type="curve" smooth="yes"/>
      <point x="515" y="408" type="line"/>
      <point x="413" y="482" type="line"/>
      <point x="155" y="164" type="line" smooth="yes"/>
      <point x="125" y="128"/>
      <point x="94" y="98"/>
      <point x="7" y="83" type="curve"/>
      <point x="7" y="0" type="line"/>
      <point x="367" y="0" type="line"/>
      <point x="367" y="83" type="line"/>
      <point x="309" y="88"/>
      <point x="258" y="96"/>
    </contour>
  </outline>
</glyph>
<glyph name="y" format="2">
  <advance width="973"/>
  <unicode hex="0079"/>
  <anchor x="774" y="-92" name="L"/>
  <anchor x="967" y="828" name="R"/>
  <anchor x="507" y="966" name="U"/>
  <outline>
    <contour>
      <point x="964" y="772" type="curve"/>
      <point x="964" y="855" type="line"/>
      <point x="668" y="855" type="line"/>
      <point x="668" y="772" type="line"/>
      <point x="737" y="760"/>
      <point x="734" y="745"/>
      <point x="719" y="709" type="curve" smooth="yes"/>
      <point x="559" y="322" type="line"/>
      <point x="390" y="709" type="line" smooth="yes"/>
      <point x="374" y="747"/>
      <point x="378" y="761"/>
      <point x="462" y="772" type="curve"/>
      <point x="462" y="855" type="line"/>
      <point x="7" y="855" type="line"/>
      <point x="7" y="772" type="line"/>
      <point x="67" y="758"/>
      <point x="95" y="741"/>
      <point x="109" y="709" type="curve" smooth="yes"/>
      <point x="422" y="-21" type="line"/>
      <point x="395" y="-84" type="line" smooth="yes"/>
      <point x="351" y="-190"/>
      <point x="309" y="-210"/>
      <point x="262" y="-226" type="curve" smooth="yes"/>
      <point x="218" y="-241"/>
      <point x="148" y="-231"/>
      <point x="86" y="-187" type="curve"/>
      <point x="47" y="-212"/>
      <point x="-65" y="-352"/>
      <point x="-65" y="-377" type="curve" smooth="yes"/>
      <point x="-65" y="-400"/>
      <point x="45" y="-448"/>
      <point x="139" y="-448" type="curve" smooth="yes"/>
      <point x="316" y="-448"/>
      <point x="449" y="-334"/>
      <point x="556" y="-64" type="curve" smooth="yes"/>
      <point x="863" y="708" type="line" smooth="yes"/>
      <point x="877" y="744"/>
      <point x="891" y="754"/>
    </contour>
  </outline>
</glyph>
<glyph name="z" format="2">
  <advance width="917"/>
  <unicode hex="007A"/>
  <anchor x="453" y="0" name="H"/>
  <anchor x="453" y="-92" name="L"/>
  <anchor x="482" y="966" name="U"/>
  <outline>
    <contour>
      <point x="840" y="349" type="curve"/>
      <point x="763" y="369" type="line"/>
      <point x="725" y="224"/>
      <point x="710" y="126"/>
      <point x="659" y="126" type="curve" smooth="yes"/>
      <point x="386" y="126" type="line"/>
      <point x="860" y="816" type="line"/>
      <point x="840" y="855" type="line"/>
      <point x="287" y="855" type="line" smooth="yes"/>
      <point x="208" y="855"/>
      <point x="179" y="855"/>
      <point x="126" y="870" type="curve"/>
      <point x="98" y="524" type="line"/>
      <point x="176" y="502" type="line"/>
      <point x="213" y="649"/>
      <point x="266" y="729"/>
      <point x="328" y="729" type="curve" smooth="yes"/>
      <point x="519" y="729" type="line"/>
      <point x="47" y="41" type="line"/>
      <point x="71" y="0" type="line"/>
      <point x="829" y="0" type="line"/>
      <point x="836" y="43"/>
      <point x="840" y="272"/>
    </contour>
  </outline>
</glyph>
<glyph name="braceleft" format="2">
  <advance width="675"/>
  <unicode hex="007B"/>
  <outline>
    <contour>
      <point x="661" y="1384" type="curve"/>
      <point x="615" y="1472" type="line"/>
      <point x="398" y="1389"/>
      <point x="217" y="1287"/>
      <point x="217" y="1121" type="curve" smooth="yes"/>
      <point x="217" y="992"/>
      <point x="254" y="920"/>
      <point x="254" y="793" type="curve" smooth="yes"/>
      <point x="254" y="701"/>
      <point x="201" y="642"/>
      <point x="69" y="604" type="curve"/>
      <point x="85" y="511" type="line"/>
      <point x="121" y="516"/>
      <point x="111" y="516"/>
      <point x="145" y="516" type="curve" smooth="yes"/>
      <point x="213" y="516"/>
      <point x="254" y="487"/>
      <point x="254" y="388" type="curve" smooth="yes"/>
      <point x="254" y="257"/>
      <point x="217" y="166"/>
      <point x="217" y="43" type="curve" smooth="yes"/>
      <point x="217" y="-133"/>
      <point x="369" y="-207"/>
      <point x="608" y="-289" type="curve"/>
      <point x="652" y="-189" type="line"/>
      <point x="522" y="-118"/>
      <point x="503" y="-63"/>
      <point x="503" y="17" type="curve" smooth="yes"/>
      <point x="503" y="118"/>
      <point x="541" y="229"/>
      <point x="541" y="354" type="curve" smooth="yes"/>
      <point x="541" y="489"/>
      <point x="475" y="578"/>
      <point x="353" y="600" type="curve"/>
      <point x="456" y="645"/>
      <point x="541" y="747"/>
      <point x="541" y="849" type="curve" smooth="yes"/>
      <point x="541" y="969"/>
      <point x="503" y="1053"/>
      <point x="503" y="1174" type="curve" smooth="yes"/>
      <point x="503" y="1246"/>
      <point x="565" y="1325"/>
    </contour>
  </outline>
</glyph>
<glyph name="bar" format="2">
  <advance width="460"/>
  <unicode hex="007C"/>
  <outline>
    <contour>
      <point x="316" y="-296" type="curve"/>
      <point x="316" y="1504" type="line"/>
      <point x="272" y="1536" type="line"/>
      <point x="236" y="1527"/>
      <point x="177" y="1500"/>
      <point x="143" y="1480" type="curve"/>
      <point x="143" y="-323" type="line"/>
      <point x="186" y="-354" type="line"/>
      <point x="216" y="-345"/>
      <point x="294" y="-315"/>
    </contour>
  </outline>
</glyph>
<glyph name="braceright" format="2">
  <advance width="675"/>
  <unicode hex="007D"/>
  <outline>
    <contour>
      <point x="606" y="576" type="curve"/>
      <point x="590" y="669" type="line"/>
      <point x="554" y="664"/>
      <point x="564" y="663"/>
      <point x="530" y="663" type="curve" smooth="yes"/>
      <point x="462" y="663"/>
      <point x="419" y="692"/>
      <point x="419" y="793" type="curve" smooth="yes"/>
      <point x="419" y="923"/>
      <point x="458" y="1014"/>
      <point x="458" y="1136" type="curve" smooth="yes"/>
      <point x="458" y="1315"/>
      <point x="304" y="1387"/>
      <point x="67" y="1471" type="curve"/>
      <point x="23" y="1371" type="line"/>
      <point x="154" y="1298"/>
      <point x="173" y="1243"/>
      <point x="173" y="1164" type="curve" smooth="yes"/>
      <point x="173" y="1063"/>
      <point x="134" y="951"/>
      <point x="134" y="827" type="curve" smooth="yes"/>
      <point x="134" y="691"/>
      <point x="200" y="602"/>
      <point x="322" y="580" type="curve"/>
      <point x="219" y="535"/>
      <point x="134" y="433"/>
      <point x="134" y="331" type="curve" smooth="yes"/>
      <point x="134" y="210"/>
      <point x="173" y="127"/>
      <point x="173" y="7" type="curve" smooth="yes"/>
      <point x="173" y="-64"/>
      <point x="111" y="-143"/>
      <point x="15" y="-203" type="curve"/>
      <point x="60" y="-290" type="line"/>
      <point x="277" y="-207"/>
      <point x="458" y="-106"/>
      <point x="458" y="59" type="curve" smooth="yes"/>
      <point x="458" y="187"/>
      <point x="419" y="259"/>
      <point x="419" y="387" type="curve" smooth="yes"/>
      <point x="419" y="478"/>
      <point x="473" y="538"/>
    </contour>
  </outline>
</glyph>
<glyph name="asciitilde" format="2">
  <advance width="919"/>
  <unicode hex="007E"/>
  <outline>
    <contour>
      <point x="896" y="723" type="curve"/>
      <point x="825" y="757" type="line"/>
      <point x="774" y="657"/>
      <point x="698" y="610"/>
      <point x="652" y="610" type="curve" smooth="yes"/>
      <point x="553" y="610"/>
      <point x="461" y="757"/>
      <point x="323" y="757" type="curve" smooth="yes"/>
      <point x="184" y="757"/>
      <point x="75" y="571"/>
      <point x="22" y="450" type="curve"/>
      <point x="93" y="414" type="line"/>
      <point x="145" y="516"/>
      <point x="216" y="563"/>
      <point x="265" y="563" type="curve" smooth="yes"/>
      <point x="370" y="563"/>
      <point x="492" y="416"/>
      <point x="595" y="416" type="curve" smooth="yes"/>
      <point x="734" y="416"/>
      <point x="845" y="602"/>
    </contour>
  </outline>
</glyph>
<glyph name="exclamdown" format="2">
  <advance width="605"/>
  <unicode hex="00A1"/>
  <outline>
    <contour>
      <point x="461" y="651"/>
      <point x="461" y="752" type="curve" smooth="yes"/>
      <point x="461" y="846"/>
      <point x="389" y="883"/>
      <point x="314" y="883" type="curve" smooth="yes"/>
      <point x="215" y="883"/>
      <point x="132" y="827"/>
      <point x="132" y="724" type="curve" smooth="yes"/>
      <point x="132" y="630"/>
      <point x="208" y="592"/>
      <point x="278" y="592" type="curve" smooth="yes"/>
      <point x="375" y="592"/>
    </contour>
    <contour>
      <point x="387" y="-433"/>
      <point x="443" y="-402" type="curve"/>
      <point x="363" y="477" type="line"/>
      <point x="336" y="496" type="line"/>
      <point x="306" y="487"/>
      <point x="254" y="477"/>
      <point x="231" y="460" type="curve"/>
      <point x="149" y="-483" type="line"/>
      <point x="198" y="-515" type="line"/>
      <point x="249" y="-497"/>
    </contour>
  </outline>
</glyph>
<glyph name="cent" format="2">
  <advance width="994"/>
  <unicode hex="00A2"/>
  <outline>
    <contour>
      <point x="597" y="15" type="curve"/>
      <point x="597" y="1113" type="line"/>
      <point x="562" y="1145" type="line"/>
      <point x="524" y="1136"/>
      <point x="503" y="1115"/>
      <point x="469" y="1094" type="curve"/>
      <point x="469" y="-3" type="line"/>
      <point x="503" y="-37" type="line"/>
      <point x="533" y="-28"/>
      <point x="575" y="-4"/>
    </contour>
    <contour>
      <point x="916" y="333" type="curve"/>
      <point x="847" y="414" type="line"/>
      <point x="729" y="295"/>
      <point x="657" y="263"/>
      <point x="571" y="263" type="curve" smooth="yes"/>
      <point x="423" y="263"/>
      <point x="312" y="356"/>
      <point x="312" y="566" type="curve" smooth="yes"/>
      <point x="312" y="794"/>
      <point x="434" y="859"/>
      <point x="537" y="859" type="curve" smooth="yes"/>
      <point x="664" y="859"/>
      <point x="729" y="757"/>
      <point x="752" y="713" type="curve"/>
      <point x="829" y="693" type="line"/>
      <point x="851" y="724"/>
      <point x="919" y="891"/>
      <point x="914" y="919" type="curve"/>
      <point x="873" y="965"/>
      <point x="700" y="992"/>
      <point x="619" y="992" type="curve" smooth="yes"/>
      <point x="288" y="992"/>
      <point x="73" y="800"/>
      <point x="73" y="539" type="curve" smooth="yes"/>
      <point x="73" y="265"/>
      <point x="328" y="118"/>
      <point x="504" y="118" type="curve" smooth="yes"/>
      <point x="646" y="118"/>
      <point x="756" y="157"/>
    </contour>
  </outline>
</glyph>
<glyph name="sterling" format="2">
  <advance width="994"/>
  <unicode hex="00A3"/>
  <outline>
    <contour>
      <point x="924" y="1071" type="curve"/>
      <point x="810" y="1129"/>
      <point x="684" y="1136"/>
      <point x="619" y="1136" type="curve" smooth="yes"/>
      <point x="328" y="1136"/>
      <point x="132" y="872"/>
      <point x="158" y="531" type="curve" smooth="yes"/>
      <point x="185" y="204"/>
      <point x="154" y="146"/>
      <point x="36" y="51" type="curve"/>
      <point x="80" y="-27" type="line"/>
      <point x="260" y="87"/>
      <point x="744" y="-91"/>
      <point x="909" y="0" type="curve"/>
      <point x="918" y="35"/>
      <point x="949" y="205"/>
      <point x="958" y="311" type="curve"/>
      <point x="875" y="338" type="line"/>
      <point x="822" y="195"/>
      <point x="780" y="150"/>
      <point x="667" y="147" type="curve" smooth="yes"/>
      <point x="531" y="144"/>
      <point x="537" y="161"/>
      <point x="369" y="147" type="curve"/>
      <point x="452" y="266"/>
      <point x="478" y="379"/>
      <point x="459" y="547" type="curve" smooth="yes"/>
      <point x="413" y="995"/>
      <point x="555" y="1011"/>
      <point x="618" y="1011" type="curve" smooth="yes"/>
      <point x="721" y="1011"/>
      <point x="784" y="902"/>
      <point x="801" y="750" type="curve"/>
      <point x="888" y="750" type="line"/>
      <point x="903" y="797"/>
      <point x="922" y="1009"/>
    </contour>
    <contour>
      <point x="720" y="470" type="line"/>
      <point x="766" y="566" type="line"/>
      <point x="731" y="599" type="line"/>
      <point x="67" y="599" type="line"/>
      <point x="60" y="579"/>
      <point x="30" y="523"/>
      <point x="26" y="504" type="curve"/>
      <point x="56" y="470" type="line"/>
    </contour>
  </outline>
</glyph>
<glyph name="currency" format="2">
  <advance width="994"/>
  <unicode hex="00A4"/>
  <outline>
    <contour>
      <point x="338" y="716" type="curve" smooth="yes"/>
      <point x="382" y="760"/>
      <point x="440" y="782"/>
      <point x="498" y="782" type="curve" smooth="yes"/>
      <point x="557" y="782"/>
      <point x="612" y="760"/>
      <point x="658" y="716" type="curve" smooth="yes"/>
      <point x="702" y="672"/>
      <point x="725" y="612"/>
      <point x="725" y="553" type="curve" smooth="yes"/>
      <point x="725" y="495"/>
      <point x="702" y="437"/>
      <point x="659" y="392" type="curve" smooth="yes"/>
      <point x="613" y="346"/>
      <point x="557" y="325"/>
      <point x="498" y="325" type="curve" smooth="yes"/>
      <point x="440" y="325"/>
      <point x="382" y="346"/>
      <point x="335" y="393" type="curve" smooth="yes"/>
      <point x="291" y="437"/>
      <point x="270" y="494"/>
      <point x="270" y="552" type="curve" smooth="yes"/>
      <point x="270" y="611"/>
      <point x="293" y="672"/>
    </contour>
    <contour>
      <point x="247" y="807" type="curve" smooth="yes"/>
      <point x="176" y="736"/>
      <point x="140" y="644"/>
      <point x="140" y="551" type="curve" smooth="yes"/>
      <point x="140" y="460"/>
      <point x="175" y="369"/>
      <point x="244" y="300" type="curve" smooth="yes"/>
      <point x="314" y="230"/>
      <point x="406" y="196"/>
      <point x="498" y="196" type="curve" smooth="yes"/>
      <point x="591" y="196"/>
      <point x="682" y="230"/>
      <point x="750" y="298" type="curve" smooth="yes"/>
      <point x="819" y="369"/>
      <point x="855" y="460"/>
      <point x="855" y="551" type="curve" smooth="yes"/>
      <point x="855" y="644"/>
      <point x="818" y="737"/>
      <point x="747" y="807" type="curve" smooth="yes"/>
      <point x="678" y="878"/>
      <point x="589" y="914"/>
      <point x="498" y="914" type="curve" smooth="yes"/>
      <point x="407" y="914"/>
      <point x="318" y="878"/>
    </contour>
    <contour>
      <point x="348" y="315" type="line"/>
      <point x="307" y="406" type="line"/>
      <point x="261" y="403" type="line"/>
      <point x="59" y="201" type="line"/>
      <point x="70" y="172"/>
      <point x="87" y="141"/>
      <point x="101" y="116" type="curve"/>
      <point x="145" y="114" type="line"/>
    </contour>
    <contour>
      <point x="252" y="712" type="line"/>
      <point x="342" y="754" type="line"/>
      <point x="339" y="800" type="line"/>
      <point x="147" y="992" type="line"/>
      <point x="118" y="979"/>
      <point x="87" y="964"/>
      <point x="63" y="951" type="curve"/>
      <point x="60" y="904" type="line"/>
    </contour>
    <contour>
      <point x="845" y="114" type="line"/>
      <point x="935" y="155" type="line"/>
      <point x="934" y="202" type="line"/>
      <point x="740" y="395" type="line"/>
      <point x="713" y="383"/>
      <point x="680" y="367"/>
      <point x="655" y="353" type="curve"/>
      <point x="652" y="308" type="line"/>
    </contour>
    <contour>
      <point x="931" y="903" type="line"/>
      <point x="891" y="992" type="line"/>
      <point x="845" y="991" type="line"/>
      <point x="642" y="788" type="line"/>
      <point x="654" y="760"/>
      <point x="671" y="727"/>
      <point x="685" y="703" type="curve"/>
      <point x="731" y="700" type="line"/>
    </contour>
  </outline>
</glyph>
<glyph name="yen" format="2">
  <advance width="994"/>
  <unicode hex="00A5"/>
  <outline>
    <contour>
      <point x="205" y="0" type="line"/>
      <point x="767" y="0" type="line"/>
      <point x="767" y="83" type="line"/>
      <point x="652" y="106"/>
      <point x="625" y="133"/>
      <point x="625" y="149" type="curve" smooth="yes"/>
      <point x="625" y="330" type="line"/>
      <point x="852" y="330" type="line"/>
      <point x="891" y="435" type="line"/>
      <point x="868" y="456" type="line"/>
      <point x="625" y="456" type="line"/>
      <point x="625" y="455" type="line"/>
      <point x="887" y="963" type="line"/>
      <point x="904" y="993"/>
      <point x="936" y="1008"/>
      <point x="1019" y="1024" type="curve"/>
      <point x="1019" y="1107" type="line"/>
      <point x="621" y="1107" type="line"/>
      <point x="621" y="1024" type="line"/>
      <point x="716" y="1012"/>
      <point x="742" y="995"/>
      <point x="725" y="963" type="curve"/>
      <point x="559" y="633" type="line"/>
      <point x="474" y="810"/>
      <point x="391" y="948"/>
      <point x="301" y="1069" type="curve" smooth="yes"/>
      <point x="278" y="1099"/>
      <point x="233" y="1116"/>
      <point x="195" y="1116" type="curve" smooth="yes"/>
      <point x="145" y="1116"/>
      <point x="-10" y="1096"/>
      <point x="-83" y="1086" type="curve"/>
      <point x="-79" y="1003" type="line"/>
      <point x="22" y="1003"/>
      <point x="40" y="991"/>
      <point x="61" y="963" type="curve" smooth="yes"/>
      <point x="146" y="846"/>
      <point x="260" y="653"/>
      <point x="345" y="459" type="curve"/>
      <point x="345" y="456" type="line"/>
      <point x="88" y="456" type="line"/>
      <point x="81" y="437"/>
      <point x="57" y="370"/>
      <point x="51" y="352" type="curve"/>
      <point x="73" y="330" type="line"/>
      <point x="345" y="330" type="line"/>
      <point x="345" y="149" type="line" smooth="yes"/>
      <point x="345" y="132"/>
      <point x="317" y="106"/>
      <point x="205" y="83" type="curve"/>
    </contour>
  </outline>
</glyph>
<glyph name="brokenbar" format="2">
  <advance width="460"/>
  <unicode hex="00A6"/>
  <outline>
    <contour>
      <point x="323" y="721" type="curve"/>
      <point x="323" y="1504" type="line"/>
      <point x="278" y="1536" type="line"/>
      <point x="240" y="1527"/>
      <point x="172" y="1500"/>
      <point x="136" y="1480" type="curve"/>
      <point x="136" y="695" type="line"/>
      <point x="181" y="663" type="line"/>
      <point x="212" y="672"/>
      <point x="298" y="702"/>
    </contour>
    <contour>
      <point x="323" y="-297" type="curve"/>
      <point x="323" y="475" type="line"/>
      <point x="278" y="509" type="line"/>
      <point x="240" y="497"/>
      <point x="172" y="471"/>
      <point x="136" y="450" type="curve"/>
      <point x="136" y="-324" type="line"/>
      <point x="181" y="-356" type="line"/>
      <point x="212" y="-346"/>
      <point x="298" y="-316"/>
    </contour>
  </outline>
</glyph>
<glyph name="section" format="2">
  <advance width="978"/>
  <unicode hex="00A7"/>
  <outline>
    <contour>
      <point x="440" y="-27" type="curve" smooth="yes"/>
      <point x="567" y="-27"/>
      <point x="834" y="4"/>
      <point x="834" y="264" type="curve" smooth="yes"/>
      <point x="834" y="401"/>
      <point x="671" y="476"/>
      <point x="564" y="530" type="curve"/>
      <point x="407" y="617"/>
      <point x="328" y="658"/>
      <point x="328" y="764" type="curve" smooth="yes"/>
      <point x="328" y="829"/>
      <point x="407" y="911"/>
      <point x="468" y="910" type="curve"/>
      <point x="370" y="1010" type="line"/>
      <point x="222" y="986"/>
      <point x="89" y="849"/>
      <point x="89" y="718" type="curve" smooth="yes"/>
      <point x="89" y="543"/>
      <point x="241" y="442"/>
      <point x="331" y="396" type="curve" smooth="yes"/>
      <point x="443" y="337"/>
      <point x="582" y="277"/>
      <point x="582" y="179" type="curve" smooth="yes"/>
      <point x="582" y="115"/>
      <point x="552" y="96"/>
      <point x="463" y="96" type="curve" smooth="yes"/>
      <point x="370" y="96"/>
      <point x="284" y="178"/>
      <point x="245" y="325" type="curve"/>
      <point x="150" y="335" type="line"/>
      <point x="121" y="225"/>
      <point x="127" y="44"/>
      <point x="144" y="37" type="curve"/>
      <point x="225" y="-7"/>
      <point x="349" y="-27"/>
    </contour>
    <contour>
      <point x="671" y="303" type="line"/>
      <point x="783" y="340"/>
      <point x="889" y="462"/>
      <point x="889" y="622" type="curve" smooth="yes"/>
      <point x="889" y="819"/>
      <point x="737" y="914"/>
      <point x="642" y="960" type="curve" smooth="yes"/>
      <point x="502" y="1033"/>
      <point x="394" y="1062"/>
      <point x="394" y="1140" type="curve" smooth="yes"/>
      <point x="394" y="1188"/>
      <point x="431" y="1219"/>
      <point x="501" y="1219" type="curve" smooth="yes"/>
      <point x="594" y="1219"/>
      <point x="649" y="1146"/>
      <point x="664" y="1025" type="curve"/>
      <point x="743" y="1018" type="line"/>
      <point x="781" y="1071"/>
      <point x="816" y="1244"/>
      <point x="801" y="1255" type="curve" smooth="yes"/>
      <point x="740" y="1299"/>
      <point x="625" y="1324"/>
      <point x="504" y="1324" type="curve" smooth="yes"/>
      <point x="320" y="1324"/>
      <point x="142" y="1224"/>
      <point x="142" y="1070" type="curve" smooth="yes"/>
      <point x="142" y="955"/>
      <point x="310" y="880"/>
      <point x="408" y="827" type="curve" smooth="yes"/>
      <point x="576" y="737"/>
      <point x="648" y="689"/>
      <point x="648" y="560" type="curve" smooth="yes"/>
      <point x="648" y="484"/>
      <point x="585" y="411"/>
      <point x="529" y="402" type="curve"/>
    </contour>
  </outline>
</glyph>
<glyph name="dieresis" format="2">
  <advance width="736"/>
  <unicode hex="00A8"/>
  <anchor x="369" y="1297" name="U"/>
  <outline>
    <contour>
      <point x="317" y="1170" type="curve" smooth="yes"/>
      <point x="317" y="1254"/>
      <point x="267" y="1296"/>
      <point x="189" y="1296" type="curve" smooth="yes"/>
      <point x="103" y="1296"/>
      <point x="22" y="1214"/>
      <point x="22" y="1111" type="curve" smooth="yes"/>
      <point x="22" y="1029"/>
      <point x="69" y="985"/>
      <point x="150" y="985" type="curve" smooth="yes"/>
      <point x="240" y="985"/>
      <point x="317" y="1067"/>
    </contour>
    <contour>
      <point x="717" y="1170" type="curve" smooth="yes"/>
      <point x="717" y="1254"/>
      <point x="667" y="1296"/>
      <point x="590" y="1296" type="curve" smooth="yes"/>
      <point x="505" y="1296"/>
      <point x="423" y="1214"/>
      <point x="423" y="1111" type="curve" smooth="yes"/>
      <point x="423" y="1029"/>
      <point x="470" y="985"/>
      <point x="551" y="985" type="curve" smooth="yes"/>
      <point x="640" y="985"/>
      <point x="717" y="1067"/>
    </contour>
  </outline>
</glyph>
<glyph name="copyright" format="2">
  <advance width="1387"/>
  <unicode hex="00A9"/>
  <outline>
    <contour>
      <point x="692" y="-27" type="curve" smooth="yes"/>
      <point x="1051" y="-27"/>
      <point x="1313" y="264"/>
      <point x="1313" y="622" type="curve" smooth="yes"/>
      <point x="1313" y="981"/>
      <point x="1051" y="1271"/>
      <point x="692" y="1271" type="curve" smooth="yes"/>
      <point x="333" y="1271"/>
      <point x="73" y="981"/>
      <point x="73" y="622" type="curve" smooth="yes"/>
      <point x="73" y="264"/>
      <point x="333" y="-27"/>
    </contour>
    <contour>
      <point x="672" y="219" type="curve" smooth="yes"/>
      <point x="770" y="219"/>
      <point x="861" y="241"/>
      <point x="997" y="391" type="curve"/>
      <point x="951" y="448" type="line"/>
      <point x="843" y="371"/>
      <point x="803" y="362"/>
      <point x="745" y="362" type="curve" smooth="yes"/>
      <point x="635" y="362"/>
      <point x="537" y="467"/>
      <point x="537" y="629" type="curve" smooth="yes"/>
      <point x="537" y="825"/>
      <point x="606" y="916"/>
      <point x="715" y="916" type="curve" smooth="yes"/>
      <point x="807" y="916"/>
      <point x="839" y="824"/>
      <point x="857" y="724" type="curve"/>
      <point x="917" y="716" type="line"/>
      <point x="937" y="746"/>
      <point x="989" y="920"/>
      <point x="985" y="946" type="curve"/>
      <point x="950" y="983"/>
      <point x="848" y="1017"/>
      <point x="770" y="1017" type="curve" smooth="yes"/>
      <point x="515" y="1017"/>
      <point x="333" y="823"/>
      <point x="333" y="598" type="curve" smooth="yes"/>
      <point x="333" y="366"/>
      <point x="496" y="219"/>
    </contour>
    <contour>
      <point x="692" y="93" type="curve" smooth="yes"/>
      <point x="402" y="93"/>
      <point x="193" y="330"/>
      <point x="193" y="622" type="curve" smooth="yes"/>
      <point x="193" y="912"/>
      <point x="402" y="1150"/>
      <point x="692" y="1150" type="curve" smooth="yes"/>
      <point x="985" y="1150"/>
      <point x="1194" y="912"/>
      <point x="1194" y="622" type="curve" smooth="yes"/>
      <point x="1194" y="330"/>
      <point x="985" y="93"/>
    </contour>
  </outline>
</glyph>
<glyph name="ordfeminine" format="2">
  <advance width="530"/>
  <unicode hex="00AA"/>
  <outline>
    <contour>
      <point x="460" y="708"/>
      <point x="517" y="746" type="curve"/>
      <point x="504" y="787" type="line"/>
      <point x="470" y="773"/>
      <point x="460" y="770"/>
      <point x="454" y="774" type="curve"/>
      <point x="447" y="782"/>
      <point x="441" y="795"/>
      <point x="441" y="829" type="curve" smooth="yes"/>
      <point x="441" y="1010" type="line" smooth="yes"/>
      <point x="441" y="1137"/>
      <point x="393" y="1169"/>
      <point x="305" y="1169" type="curve" smooth="yes"/>
      <point x="195" y="1169"/>
      <point x="82" y="1115"/>
      <point x="44" y="1028" type="curve"/>
      <point x="56" y="1001" type="line"/>
      <point x="72" y="998"/>
      <point x="200" y="1032"/>
      <point x="197" y="1043" type="curve" smooth="yes"/>
      <point x="188" y="1085"/>
      <point x="216" y="1101"/>
      <point x="252" y="1101" type="curve" smooth="yes"/>
      <point x="309" y="1101"/>
      <point x="310" y="1060"/>
      <point x="310" y="985" type="curve" smooth="yes"/>
      <point x="310" y="833" type="line" smooth="yes"/>
      <point x="310" y="698"/>
      <point x="328" y="672"/>
      <point x="350" y="672" type="curve" smooth="yes"/>
      <point x="397" y="672"/>
    </contour>
    <contour>
      <point x="261" y="914" type="curve" smooth="yes"/>
      <point x="368" y="936" type="line"/>
      <point x="368" y="987" type="line"/>
      <point x="209" y="955" type="line" smooth="yes"/>
      <point x="83" y="931"/>
      <point x="35" y="852"/>
      <point x="35" y="777" type="curve" smooth="yes"/>
      <point x="35" y="700"/>
      <point x="100" y="672"/>
      <point x="149" y="672" type="curve" smooth="yes"/>
      <point x="194" y="672"/>
      <point x="254" y="689"/>
      <point x="318" y="755" type="curve"/>
      <point x="314" y="816" type="line"/>
      <point x="264" y="770"/>
      <point x="240" y="764"/>
      <point x="217" y="764" type="curve" smooth="yes"/>
      <point x="199" y="764"/>
      <point x="174" y="776"/>
      <point x="174" y="817" type="curve" smooth="yes"/>
      <point x="174" y="870"/>
      <point x="214" y="904"/>
    </contour>
    <contour>
      <point x="37" y="539" type="line"/>
      <point x="492" y="539" type="line"/>
      <point x="492" y="624" type="line"/>
      <point x="37" y="624" type="line"/>
    </contour>
  </outline>
</glyph>
<glyph name="guillemotleft" format="2">
  <advance width="1003"/>
  <unicode hex="00AB"/>
  <outline>
    <contour>
      <point x="446" y="395" type="curve"/>
      <point x="834" y="-5" type="line"/>
      <point x="895" y="43" type="line"/>
      <point x="727" y="429" type="line"/>
      <point x="725" y="427"/>
      <point x="895" y="812"/>
      <point x="894" y="812" type="curve"/>
      <point x="834" y="862" type="line"/>
      <point x="449" y="462" type="line" smooth="yes"/>
      <point x="446" y="460"/>
      <point x="446" y="395"/>
    </contour>
    <contour>
      <point x="51" y="395" type="curve"/>
      <point x="439" y="-5" type="line"/>
      <point x="500" y="43" type="line"/>
      <point x="332" y="429" type="line"/>
      <point x="328" y="427"/>
      <point x="500" y="812"/>
      <point x="499" y="812" type="curve"/>
      <point x="439" y="862" type="line"/>
      <point x="53" y="462" type="line" smooth="yes"/>
      <point x="51" y="460"/>
      <point x="51" y="395"/>
    </contour>
  </outline>
</glyph>
<glyph name="logicalnot" format="2">
  <advance width="994"/>
  <unicode hex="00AC"/>
  <outline>
    <contour>
      <point x="908" y="214" type="curve"/>
      <point x="908" y="559" type="line"/>
      <point x="870" y="590" type="line"/>
      <point x="870" y="590"/>
      <point x="851" y="590"/>
      <point x="127" y="590" type="curve"/>
      <point x="116" y="567"/>
      <point x="84" y="501"/>
      <point x="76" y="476" type="curve"/>
      <point x="110" y="443" type="line"/>
      <point x="751" y="443" type="line"/>
      <point x="751" y="179" type="line"/>
      <point x="784" y="145" type="line"/>
      <point x="814" y="155"/>
      <point x="883" y="195"/>
    </contour>
  </outline>
</glyph>
<glyph name="registered" format="2">
  <advance width="671"/>
  <unicode hex="00AE"/>
  <outline>
    <contour>
      <point x="662" y="997" type="curve" smooth="yes"/>
      <point x="662" y="1184"/>
      <point x="522" y="1338"/>
      <point x="334" y="1338" type="curve" smooth="yes"/>
      <point x="147" y="1338"/>
      <point x="9" y="1184"/>
      <point x="9" y="997" type="curve" smooth="yes"/>
      <point x="9" y="810"/>
      <point x="147" y="656"/>
      <point x="334" y="656" type="curve" smooth="yes"/>
      <point x="522" y="656"/>
      <point x="662" y="810"/>
    </contour>
    <contour>
      <point x="586" y="997" type="curve" smooth="yes"/>
      <point x="586" y="851"/>
      <point x="481" y="733"/>
      <point x="334" y="733" type="curve" smooth="yes"/>
      <point x="190" y="733"/>
      <point x="85" y="851"/>
      <point x="85" y="997" type="curve" smooth="yes"/>
      <point x="85" y="1142"/>
      <point x="190" y="1261"/>
      <point x="334" y="1261" type="curve" smooth="yes"/>
      <point x="481" y="1261"/>
      <point x="586" y="1142"/>
    </contour>
    <contour>
      <point x="481" y="1100" type="curve" smooth="yes"/>
      <point x="481" y="1150"/>
      <point x="440" y="1191"/>
      <point x="325" y="1191" type="curve" smooth="yes"/>
      <point x="275" y="1191"/>
      <point x="220" y="1185"/>
      <point x="184" y="1177" type="curve"/>
      <point x="189" y="1144" type="line"/>
      <point x="229" y="1150"/>
      <point x="281" y="1155"/>
      <point x="315" y="1155" type="curve" smooth="yes"/>
      <point x="363" y="1155"/>
      <point x="394" y="1127"/>
      <point x="394" y="1092" type="curve" smooth="yes"/>
      <point x="394" y="1045"/>
      <point x="374" y="1020"/>
      <point x="312" y="1020" type="curve" smooth="yes"/>
      <point x="301" y="1020"/>
      <point x="293" y="1021"/>
      <point x="280" y="1023" type="curve"/>
      <point x="282" y="984" type="line"/>
      <point x="294" y="981"/>
      <point x="306" y="979"/>
      <point x="316" y="979" type="curve" smooth="yes"/>
      <point x="432" y="979"/>
      <point x="481" y="1026"/>
    </contour>
    <contour>
      <point x="517" y="828" type="curve"/>
      <point x="514" y="851" type="line"/>
      <point x="487" y="849"/>
      <point x="481" y="852"/>
      <point x="473" y="865" type="curve" smooth="yes"/>
      <point x="377" y="1009" type="line"/>
      <point x="318" y="997" type="line"/>
      <point x="400" y="821" type="line" smooth="yes"/>
      <point x="403" y="813"/>
      <point x="413" y="808"/>
      <point x="424" y="808" type="curve" smooth="yes"/>
      <point x="438" y="808"/>
      <point x="492" y="820"/>
    </contour>
    <contour>
      <point x="186" y="811" type="line"/>
      <point x="327" y="811" type="line"/>
      <point x="327" y="836" type="line"/>
      <point x="299" y="840"/>
      <point x="297" y="846"/>
      <point x="297" y="851" type="curve" smooth="yes"/>
      <point x="297" y="1174" type="line"/>
      <point x="220" y="1174" type="line"/>
      <point x="220" y="851" type="line" smooth="yes"/>
      <point x="220" y="845"/>
      <point x="212" y="840"/>
      <point x="186" y="836" type="curve"/>
    </contour>
  </outline>
</glyph>
<glyph name="macron" format="2">
  <advance width="929"/>
  <unicode hex="00AF"/>
  <outline>
    <contour>
      <point x="905" y="1215" type="curve"/>
      <point x="870" y="1249" type="line"/>
      <point x="84" y="1249" type="line"/>
      <point x="73" y="1225"/>
      <point x="31" y="1140"/>
      <point x="25" y="1114" type="curve"/>
      <point x="59" y="1081" type="line"/>
      <point x="845" y="1081" type="line"/>
      <point x="854" y="1100"/>
      <point x="896" y="1189"/>
    </contour>
  </outline>
</glyph>
<glyph name="degree" format="2">
  <advance width="674"/>
  <unicode hex="00B0"/>
  <outline>
    <contour>
      <point x="582" y="968" type="curve" smooth="yes"/>
      <point x="582" y="1079"/>
      <point x="490" y="1176"/>
      <point x="378" y="1176" type="curve" smooth="yes"/>
      <point x="242" y="1176"/>
      <point x="91" y="1044"/>
      <point x="91" y="864" type="curve" smooth="yes"/>
      <point x="91" y="752"/>
      <point x="177" y="658"/>
      <point x="296" y="658" type="curve" smooth="yes"/>
      <point x="429" y="658"/>
      <point x="582" y="791"/>
    </contour>
    <contour>
      <point x="420" y="915" type="curve" smooth="yes"/>
      <point x="420" y="852"/>
      <point x="374" y="814"/>
      <point x="328" y="814" type="curve" smooth="yes"/>
      <point x="283" y="814"/>
      <point x="255" y="865"/>
      <point x="255" y="918" type="curve" smooth="yes"/>
      <point x="255" y="979"/>
      <point x="299" y="1018"/>
      <point x="345" y="1018" type="curve" smooth="yes"/>
      <point x="390" y="1018"/>
      <point x="420" y="970"/>
    </contour>
  </outline>
</glyph>
<glyph name="plusminus" format="2">
  <advance width="806"/>
  <unicode hex="00B1"/>
  <outline>
    <contour>
      <point x="762" y="685" type="curve"/>
      <point x="728" y="718" type="line"/>
      <point x="94" y="718" type="line"/>
      <point x="83" y="694"/>
      <point x="50" y="627"/>
      <point x="44" y="600" type="curve"/>
      <point x="78" y="566" type="line"/>
      <point x="711" y="566" type="line"/>
      <point x="720" y="588"/>
      <point x="754" y="658"/>
    </contour>
    <contour>
      <point x="480" y="324" type="curve"/>
      <point x="480" y="967" type="line"/>
      <point x="447" y="1000" type="line"/>
      <point x="420" y="993"/>
      <point x="354" y="969"/>
      <point x="331" y="962" type="curve"/>
      <point x="331" y="316" type="line"/>
      <point x="364" y="285" type="line"/>
      <point x="392" y="290"/>
      <point x="456" y="312"/>
    </contour>
    <contour>
      <point x="762" y="208" type="curve"/>
      <point x="728" y="242" type="line"/>
      <point x="94" y="242" type="line"/>
      <point x="83" y="218"/>
      <point x="50" y="151"/>
      <point x="44" y="123" type="curve"/>
      <point x="78" y="90" type="line"/>
      <point x="711" y="90" type="line"/>
      <point x="720" y="110"/>
      <point x="754" y="182"/>
    </contour>
  </outline>
</glyph>
<glyph name="twosuperior" format="2">
  <advance width="695"/>
  <unicode hex="00B2"/>
  <anchor x="347" y="517" name="L"/>
  <anchor x="347" y="1332" name="U"/>
  <outline>
    <contour>
      <point x="620" y="570" type="line"/>
      <point x="629" y="788" type="line"/>
      <point x="567" y="801" type="line"/>
      <point x="567" y="801"/>
      <point x="560" y="682"/>
      <point x="502" y="682" type="curve" smooth="yes"/>
      <point x="249" y="682" type="line"/>
      <point x="530" y="940"/>
      <point x="621" y="1022"/>
      <point x="621" y="1121" type="curve" smooth="yes"/>
      <point x="621" y="1204"/>
      <point x="530" y="1252"/>
      <point x="383" y="1252" type="curve" smooth="yes"/>
      <point x="208" y="1252"/>
      <point x="67" y="1158"/>
      <point x="67" y="1082" type="curve"/>
      <point x="92" y="1032" type="line"/>
      <point x="131" y="1036"/>
      <point x="233" y="1058"/>
      <point x="263" y="1072" type="curve"/>
      <point x="246" y="1128"/>
      <point x="269" y="1184"/>
      <point x="340" y="1184" type="curve" smooth="yes"/>
      <point x="399" y="1184"/>
      <point x="425" y="1138"/>
      <point x="425" y="1080" type="curve" smooth="yes"/>
      <point x="425" y="1003"/>
      <point x="348" y="913"/>
      <point x="49" y="610" type="curve"/>
      <point x="68" y="570" type="line"/>
    </contour>
  </outline>
</glyph>
<glyph name="threesuperior" format="2">
  <advance width="695"/>
  <unicode hex="00B3"/>
  <anchor x="347" y="517" name="L"/>
  <anchor x="347" y="1332" name="U"/>
  <outline>
    <contour>
      <point x="623" y="781" type="curve" smooth="yes"/>
      <point x="623" y="870"/>
      <point x="556" y="946"/>
      <point x="447" y="955" type="curve"/>
      <point x="528" y="976"/>
      <point x="586" y="1044"/>
      <point x="586" y="1099" type="curve" smooth="yes"/>
      <point x="586" y="1173"/>
      <point x="522" y="1252"/>
      <point x="350" y="1252" type="curve" smooth="yes"/>
      <point x="176" y="1252"/>
      <point x="70" y="1151"/>
      <point x="70" y="1090" type="curve"/>
      <point x="94" y="1045" type="line"/>
      <point x="148" y="1051"/>
      <point x="225" y="1074"/>
      <point x="265" y="1094" type="curve"/>
      <point x="244" y="1145"/>
      <point x="281" y="1184"/>
      <point x="312" y="1184" type="curve" smooth="yes"/>
      <point x="369" y="1184"/>
      <point x="386" y="1139"/>
      <point x="386" y="1089" type="curve" smooth="yes"/>
      <point x="386" y="1044"/>
      <point x="364" y="980"/>
      <point x="222" y="949" type="curve"/>
      <point x="235" y="892" type="line"/>
      <point x="262" y="895"/>
      <point x="270" y="895"/>
      <point x="294" y="895" type="curve" smooth="yes"/>
      <point x="341" y="895"/>
      <point x="421" y="866"/>
      <point x="421" y="769" type="curve" smooth="yes"/>
      <point x="421" y="675"/>
      <point x="359" y="639"/>
      <point x="291" y="639" type="curve" smooth="yes"/>
      <point x="226" y="639"/>
      <point x="160" y="661"/>
      <point x="82" y="711" type="curve"/>
      <point x="53" y="646" type="line"/>
      <point x="130" y="583"/>
      <point x="248" y="553"/>
      <point x="313" y="553" type="curve" smooth="yes"/>
      <point x="492" y="553"/>
      <point x="623" y="656"/>
    </contour>
  </outline>
</glyph>
<glyph name="acute" format="2">
  <advance width="600"/>
  <unicode hex="00B4"/>
  <anchor x="300" y="1297" name="U"/>
  <outline>
    <contour>
      <point x="274" y="952" type="curve"/>
      <point x="646" y="1301" type="line"/>
      <point x="614" y="1359" type="line"/>
      <point x="586" y="1368"/>
      <point x="388" y="1400"/>
      <point x="359" y="1403" type="curve"/>
      <point x="177" y="1000" type="line"/>
      <point x="191" y="989"/>
      <point x="252" y="955"/>
    </contour>
  </outline>
</glyph>
<glyph name="mu" format="2">
  <advance width="1105"/>
  <unicode hex="00B5"/>
  <outline>
    <contour>
      <point x="1108" y="97" type="curve"/>
      <point x="1077" y="183" type="line"/>
      <point x="1037" y="161"/>
      <point x="1016" y="157"/>
      <point x="991" y="157" type="curve" smooth="yes"/>
      <point x="965" y="157"/>
      <point x="955" y="176"/>
      <point x="955" y="290" type="curve" smooth="yes"/>
      <point x="955" y="327"/>
      <point x="955" y="677"/>
      <point x="955" y="698" type="curve" smooth="yes"/>
      <point x="957" y="774"/>
      <point x="965" y="804"/>
      <point x="970" y="836" type="curve"/>
      <point x="933" y="883" type="line"/>
      <point x="852" y="860"/>
      <point x="725" y="838"/>
      <point x="650" y="828" type="curve"/>
      <point x="665" y="805"/>
      <point x="685" y="727"/>
      <point x="685" y="688" type="curve" smooth="yes"/>
      <point x="685" y="658"/>
      <point x="685" y="225"/>
      <point x="685" y="198" type="curve" smooth="yes"/>
      <point x="685" y="80"/>
      <point x="727" y="-28"/>
      <point x="816" y="-28" type="curve" smooth="yes"/>
      <point x="890" y="-28"/>
      <point x="1037" y="40"/>
    </contour>
    <contour>
      <point x="741" y="210" type="curve"/>
      <point x="727" y="347" type="line"/>
      <point x="617" y="199"/>
      <point x="578" y="175"/>
      <point x="536" y="175" type="curve" smooth="yes"/>
      <point x="506" y="175"/>
      <point x="412" y="235"/>
      <point x="412" y="359" type="curve" smooth="yes"/>
      <point x="412" y="372"/>
      <point x="412" y="825"/>
      <point x="412" y="832" type="curve"/>
      <point x="402" y="845"/>
      <point x="367" y="883"/>
      <point x="366" y="883" type="curve" smooth="yes"/>
      <point x="257" y="850"/>
      <point x="151" y="827"/>
      <point x="33" y="822" type="curve"/>
      <point x="33" y="741" type="line"/>
      <point x="149" y="729"/>
      <point x="142" y="712"/>
      <point x="142" y="617" type="curve" smooth="yes"/>
      <point x="142" y="606"/>
      <point x="142" y="447"/>
      <point x="142" y="429" type="curve" smooth="yes"/>
      <point x="142" y="205"/>
      <point x="363" y="-28"/>
      <point x="462" y="-28" type="curve" smooth="yes"/>
      <point x="557" y="-28"/>
      <point x="620" y="30"/>
    </contour>
    <contour>
      <point x="281" y="422" type="curve"/>
      <point x="275" y="471"/>
      <point x="142" y="565"/>
      <point x="142" y="565" type="curve"/>
      <point x="142" y="500"/>
      <point x="142" y="-395"/>
      <point x="142" y="-422" type="curve"/>
      <point x="188" y="-460" type="line"/>
      <point x="217" y="-445"/>
      <point x="419" y="-362"/>
      <point x="455" y="-350" type="curve"/>
      <point x="377" y="-273"/>
      <point x="284" y="-133"/>
      <point x="283" y="62" type="curve"/>
      <point x="285" y="206"/>
      <point x="273" y="310"/>
    </contour>
  </outline>
</glyph>
<glyph name="paragraph" format="2">
  <advance width="1173"/>
  <unicode hex="00B6"/>
  <outline>
    <contour>
      <point x="1052" y="1159"/>
      <point x="1052" y="1159" type="curve"/>
      <point x="1052" y="1159"/>
      <point x="612" y="1186"/>
      <point x="505" y="1186" type="curve" smooth="yes"/>
      <point x="210" y="1186"/>
      <point x="27" y="1039"/>
      <point x="27" y="830" type="curve" smooth="yes"/>
      <point x="27" y="600"/>
      <point x="227" y="474"/>
      <point x="501" y="474" type="curve" smooth="yes"/>
      <point x="625" y="474"/>
      <point x="659" y="508"/>
      <point x="659" y="508" type="curve"/>
      <point x="652" y="596" type="line"/>
      <point x="652" y="596"/>
      <point x="620" y="588"/>
      <point x="540" y="588" type="curve" smooth="yes"/>
      <point x="371" y="588"/>
      <point x="299" y="729"/>
      <point x="299" y="862" type="curve" smooth="yes"/>
      <point x="299" y="1000"/>
      <point x="424" y="1072"/>
      <point x="533" y="1072" type="curve" smooth="yes"/>
      <point x="599" y="1072"/>
      <point x="799" y="1063"/>
      <point x="918" y="1018" type="curve"/>
      <point x="928" y="1009"/>
    </contour>
    <contour>
      <point x="455" y="-230" type="line"/>
      <point x="1109" y="-230" type="line"/>
      <point x="1109" y="-153" type="line"/>
      <point x="1020" y="-136"/>
      <point x="984" y="-112"/>
      <point x="984" y="-96" type="curve" smooth="yes"/>
      <point x="984" y="1025" type="line" smooth="yes"/>
      <point x="984" y="1043"/>
      <point x="1026" y="1065"/>
      <point x="1109" y="1082" type="curve"/>
      <point x="1109" y="1159" type="line"/>
      <point x="448" y="1159" type="line"/>
      <point x="448" y="1082" type="line"/>
      <point x="537" y="1065"/>
      <point x="582" y="1101"/>
      <point x="582" y="1086" type="curve" smooth="yes"/>
      <point x="580" y="-96" type="line" smooth="yes"/>
      <point x="580" y="-114"/>
      <point x="539" y="-136"/>
      <point x="455" y="-153" type="curve"/>
    </contour>
    <contour>
      <point x="820" y="1070" type="line"/>
      <point x="820" y="-96" type="line" smooth="yes"/>
      <point x="820" y="-110"/>
      <point x="797" y="-121"/>
      <point x="782" y="-125" type="curve"/>
      <point x="770" y="-121"/>
      <point x="747" y="-110"/>
      <point x="747" y="-96" type="curve" smooth="yes"/>
      <point x="747" y="1088" type="line"/>
    </contour>
  </outline>
</glyph>
<glyph name="periodcentered" format="2">
  <advance width="431"/>
  <unicode hex="00B7"/>
  <outline>
    <contour>
      <point x="216" y="581" type="curve" smooth="yes"/>
      <point x="280" y="581"/>
      <point x="334" y="646"/>
      <point x="334" y="746" type="curve" smooth="yes"/>
      <point x="334" y="853"/>
      <point x="281" y="906"/>
      <point x="216" y="906" type="curve" smooth="yes"/>
      <point x="155" y="906"/>
      <point x="96" y="851"/>
      <point x="96" y="746" type="curve" smooth="yes"/>
      <point x="96" y="643"/>
      <point x="155" y="581"/>
    </contour>
  </outline>
</glyph>
<glyph name="cedilla" format="2">
  <advance width="431"/>
  <unicode hex="00B8"/>
  <anchor x="223" y="-552" name="L"/>
  <outline>
    <contour>
      <point x="431" y="-301"/>
      <point x="431" y="-210" type="curve" smooth="yes"/>
      <point x="431" y="-141"/>
      <point x="379" y="-95"/>
      <point x="275" y="-77" type="curve"/>
      <point x="322" y="46" type="line"/>
      <point x="195" y="47" type="line"/>
      <point x="130" y="-157"/>
      <point x="107" y="-183"/>
      <point x="107" y="-183" type="curve"/>
      <point x="154" y="-186"/>
      <point x="184" y="-203"/>
      <point x="184" y="-244" type="curve" smooth="yes"/>
      <point x="184" y="-284"/>
      <point x="144" y="-322"/>
      <point x="45" y="-335" type="curve"/>
      <point x="83" y="-408" type="line"/>
      <point x="272" y="-391"/>
    </contour>
  </outline>
</glyph>
<glyph name="onesuperior" format="2">
  <advance width="695"/>
  <unicode hex="00B9"/>
  <anchor x="343" y="517" name="L"/>
  <anchor x="343" y="1332" name="U"/>
  <outline>
    <contour>
      <point x="93" y="570" type="line"/>
      <point x="618" y="570" type="line"/>
      <point x="618" y="623" type="line"/>
      <point x="488" y="638"/>
      <point x="455" y="658"/>
      <point x="455" y="674" type="curve" smooth="yes"/>
      <point x="455" y="1231" type="line"/>
      <point x="424" y="1257" type="line"/>
      <point x="358" y="1235"/>
      <point x="148" y="1174"/>
      <point x="73" y="1163" type="curve"/>
      <point x="95" y="1110" type="line"/>
      <point x="208" y="1131"/>
      <point x="247" y="1127"/>
      <point x="257" y="1118" type="curve" smooth="yes"/>
      <point x="268" y="1108"/>
      <point x="269" y="1093"/>
      <point x="269" y="1064" type="curve" smooth="yes"/>
      <point x="269" y="674" type="line" smooth="yes"/>
      <point x="269" y="657"/>
      <point x="227" y="638"/>
      <point x="93" y="623" type="curve"/>
    </contour>
  </outline>
</glyph>
